%TF.GenerationSoftware,KiCad,Pcbnew,5.1.10*%
%TF.CreationDate,2021-09-02T20:29:26+02:00*%
%TF.ProjectId,Termostato-Diferencial-Mini,5465726d-6f73-4746-9174-6f2d44696665,rev?*%
%TF.SameCoordinates,PX9e11d20PY4c6afd0*%
%TF.FileFunction,Legend,Top*%
%TF.FilePolarity,Positive*%
%FSLAX45Y45*%
G04 Gerber Fmt 4.5, Leading zero omitted, Abs format (unit mm)*
G04 Created by KiCad (PCBNEW 5.1.10) date 2021-09-02 20:29:26*
%MOMM*%
%LPD*%
G01*
G04 APERTURE LIST*
%ADD10C,0.100000*%
%ADD11C,0.150000*%
%ADD12C,0.050000*%
%TA.AperFunction,Profile*%
%ADD13C,0.200000*%
%TD*%
%ADD14C,0.250000*%
%ADD15C,0.120000*%
G04 APERTURE END LIST*
D10*
X-2372419Y-640238D02*
X-2405752Y-592619D01*
X-2429562Y-640238D02*
X-2429562Y-540238D01*
X-2391467Y-540238D01*
X-2381943Y-545000D01*
X-2377181Y-549762D01*
X-2372419Y-559286D01*
X-2372419Y-573571D01*
X-2377181Y-583095D01*
X-2381943Y-587857D01*
X-2391467Y-592619D01*
X-2429562Y-592619D01*
X-2353372Y-649762D02*
X-2277181Y-649762D01*
X-2267657Y-540238D02*
X-2210514Y-540238D01*
X-2239086Y-640238D02*
X-2239086Y-540238D01*
X-2177181Y-587857D02*
X-2143848Y-587857D01*
X-2129562Y-640238D02*
X-2177181Y-640238D01*
X-2177181Y-540238D01*
X-2129562Y-540238D01*
X-2086705Y-640238D02*
X-2086705Y-540238D01*
X-2053371Y-611667D01*
X-2020038Y-540238D01*
X-2020038Y-640238D01*
X-1972419Y-640238D02*
X-1972419Y-540238D01*
X-1934324Y-540238D01*
X-1924800Y-545000D01*
X-1920038Y-549762D01*
X-1915276Y-559286D01*
X-1915276Y-573571D01*
X-1920038Y-583095D01*
X-1924800Y-587857D01*
X-1934324Y-592619D01*
X-1972419Y-592619D01*
D11*
X2760200Y-363000D02*
X2760200Y-1179000D01*
X2760200Y-363000D02*
X3667200Y-363000D01*
X2760200Y-2773000D02*
X2760200Y-1971000D01*
X3667200Y-2773000D02*
X2760200Y-2773000D01*
X3667200Y-363000D02*
X3667200Y-2773000D01*
D10*
X1685200Y-2211000D02*
X1483300Y-2211000D01*
X-3164800Y-3388000D02*
X2567200Y-3388000D01*
D11*
X-2219943Y255286D02*
X-2253276Y298143D01*
X-2277086Y255286D02*
X-2277086Y345286D01*
X-2238991Y345286D01*
X-2229467Y341000D01*
X-2224705Y336714D01*
X-2219943Y328143D01*
X-2219943Y315286D01*
X-2224705Y306714D01*
X-2229467Y302429D01*
X-2238991Y298143D01*
X-2277086Y298143D01*
X-2200895Y246714D02*
X-2124705Y246714D01*
X-2100895Y255286D02*
X-2100895Y345286D01*
X-2077086Y345286D01*
X-2062800Y341000D01*
X-2053276Y332429D01*
X-2048514Y323857D01*
X-2043752Y306714D01*
X-2043752Y293857D01*
X-2048514Y276714D01*
X-2053276Y268143D01*
X-2062800Y259571D01*
X-2077086Y255286D01*
X-2100895Y255286D01*
X-2269943Y610286D02*
X-2303276Y653143D01*
X-2327086Y610286D02*
X-2327086Y700286D01*
X-2288991Y700286D01*
X-2279467Y696000D01*
X-2274705Y691714D01*
X-2269943Y683143D01*
X-2269943Y670286D01*
X-2274705Y661714D01*
X-2279467Y657429D01*
X-2288991Y653143D01*
X-2327086Y653143D01*
X-2250895Y601714D02*
X-2174705Y601714D01*
X-2117562Y657429D02*
X-2103276Y653143D01*
X-2098514Y648857D01*
X-2093752Y640286D01*
X-2093752Y627429D01*
X-2098514Y618857D01*
X-2103276Y614572D01*
X-2112800Y610286D01*
X-2150895Y610286D01*
X-2150895Y700286D01*
X-2117562Y700286D01*
X-2108038Y696000D01*
X-2103276Y691714D01*
X-2098514Y683143D01*
X-2098514Y674572D01*
X-2103276Y666000D01*
X-2108038Y661714D01*
X-2117562Y657429D01*
X-2150895Y657429D01*
X-2050895Y610286D02*
X-2050895Y700286D01*
X-1993752Y610286D02*
X-2036610Y661714D01*
X-1993752Y700286D02*
X-2050895Y648857D01*
X-2222324Y966286D02*
X-2255657Y1009143D01*
X-2279467Y966286D02*
X-2279467Y1056286D01*
X-2241372Y1056286D01*
X-2231848Y1052000D01*
X-2227086Y1047714D01*
X-2222324Y1039143D01*
X-2222324Y1026286D01*
X-2227086Y1017714D01*
X-2231848Y1013429D01*
X-2241372Y1009143D01*
X-2279467Y1009143D01*
X-2203276Y957714D02*
X-2127086Y957714D01*
X-2103276Y1056286D02*
X-2103276Y983429D01*
X-2098514Y974857D01*
X-2093752Y970571D01*
X-2084229Y966286D01*
X-2065181Y966286D01*
X-2055657Y970571D01*
X-2050895Y974857D01*
X-2046133Y983429D01*
X-2046133Y1056286D01*
X-2272324Y1318286D02*
X-2305657Y1361143D01*
X-2329467Y1318286D02*
X-2329467Y1408286D01*
X-2291372Y1408286D01*
X-2281848Y1404000D01*
X-2277086Y1399714D01*
X-2272324Y1391143D01*
X-2272324Y1378286D01*
X-2277086Y1369714D01*
X-2281848Y1365429D01*
X-2291372Y1361143D01*
X-2329467Y1361143D01*
X-2253276Y1309714D02*
X-2177086Y1309714D01*
X-2134229Y1408286D02*
X-2115181Y1408286D01*
X-2105657Y1404000D01*
X-2096133Y1395429D01*
X-2091371Y1378286D01*
X-2091371Y1348286D01*
X-2096133Y1331143D01*
X-2105657Y1322572D01*
X-2115181Y1318286D01*
X-2134229Y1318286D01*
X-2143752Y1322572D01*
X-2153276Y1331143D01*
X-2158038Y1348286D01*
X-2158038Y1378286D01*
X-2153276Y1395429D01*
X-2143752Y1404000D01*
X-2134229Y1408286D01*
X-2048514Y1318286D02*
X-2048514Y1408286D01*
X-1991371Y1318286D02*
X-2034229Y1369714D01*
X-1991371Y1408286D02*
X-2048514Y1356857D01*
D10*
X-1882562Y2830333D02*
X-1834943Y2830333D01*
X-1892086Y2801762D02*
X-1858752Y2901762D01*
X-1825419Y2801762D01*
X-1734943Y2801762D02*
X-1768276Y2849381D01*
X-1792086Y2801762D02*
X-1792086Y2901762D01*
X-1753990Y2901762D01*
X-1744467Y2897000D01*
X-1739705Y2892238D01*
X-1734943Y2882714D01*
X-1734943Y2868429D01*
X-1739705Y2858905D01*
X-1744467Y2854143D01*
X-1753990Y2849381D01*
X-1792086Y2849381D01*
X-1692086Y2801762D02*
X-1692086Y2901762D01*
X-1668276Y2901762D01*
X-1653990Y2897000D01*
X-1644467Y2887476D01*
X-1639705Y2877952D01*
X-1634943Y2858905D01*
X-1634943Y2844619D01*
X-1639705Y2825571D01*
X-1644467Y2816048D01*
X-1653990Y2806524D01*
X-1668276Y2801762D01*
X-1692086Y2801762D01*
X-1592086Y2901762D02*
X-1592086Y2820810D01*
X-1587324Y2811286D01*
X-1582562Y2806524D01*
X-1573038Y2801762D01*
X-1553990Y2801762D01*
X-1544467Y2806524D01*
X-1539705Y2811286D01*
X-1534943Y2820810D01*
X-1534943Y2901762D01*
X-1487324Y2801762D02*
X-1487324Y2901762D01*
X-1439705Y2801762D02*
X-1439705Y2901762D01*
X-1382562Y2801762D01*
X-1382562Y2901762D01*
X-1315895Y2901762D02*
X-1296848Y2901762D01*
X-1287324Y2897000D01*
X-1277800Y2887476D01*
X-1273038Y2868429D01*
X-1273038Y2835095D01*
X-1277800Y2816048D01*
X-1287324Y2806524D01*
X-1296848Y2801762D01*
X-1315895Y2801762D01*
X-1325419Y2806524D01*
X-1334943Y2816048D01*
X-1339705Y2835095D01*
X-1339705Y2868429D01*
X-1334943Y2887476D01*
X-1325419Y2897000D01*
X-1315895Y2901762D01*
X-1673038Y2641762D02*
X-1720657Y2641762D01*
X-1720657Y2741762D01*
X-1639705Y2641762D02*
X-1639705Y2741762D01*
X-1592086Y2641762D02*
X-1592086Y2741762D01*
X-1534943Y2641762D01*
X-1534943Y2741762D01*
X-1487324Y2641762D02*
X-1487324Y2741762D01*
X-1430181Y2641762D02*
X-1473038Y2698905D01*
X-1430181Y2741762D02*
X-1487324Y2684619D01*
D11*
X-3379800Y-1559000D02*
X-3379800Y-1090000D01*
X-3154800Y-1559000D02*
X-3379800Y-1559000D01*
X-3154800Y-1090000D02*
X-3154800Y-1559000D01*
X-3379800Y-1090000D02*
X-3154800Y-1090000D01*
D10*
X-1839371Y2072200D02*
X-1782229Y2072200D01*
X-1850800Y2037914D02*
X-1810800Y2157914D01*
X-1770800Y2037914D01*
X-1673657Y2157914D02*
X-1730800Y2157914D01*
X-1736514Y2100772D01*
X-1730800Y2106486D01*
X-1719371Y2112200D01*
X-1690800Y2112200D01*
X-1679371Y2106486D01*
X-1673657Y2100772D01*
X-1667943Y2089343D01*
X-1667943Y2060771D01*
X-1673657Y2049343D01*
X-1679371Y2043629D01*
X-1690800Y2037914D01*
X-1719371Y2037914D01*
X-1730800Y2043629D01*
X-1736514Y2049343D01*
X-1616514Y2083629D02*
X-1525086Y2083629D01*
X-1473657Y2072200D02*
X-1416514Y2072200D01*
X-1485086Y2037914D02*
X-1445086Y2157914D01*
X-1405086Y2037914D01*
X-1313657Y2117914D02*
X-1313657Y2037914D01*
X-1342229Y2163629D02*
X-1370800Y2077914D01*
X-1296514Y2077914D01*
X-3388300Y3203167D02*
X-3321633Y3203167D01*
X-3401633Y3163167D02*
X-3354967Y3303167D01*
X-3308300Y3163167D01*
X-3261633Y3163167D02*
X-3261633Y3303167D01*
X-3208300Y3303167D01*
X-3194967Y3296500D01*
X-3188300Y3289833D01*
X-3181633Y3276500D01*
X-3181633Y3256500D01*
X-3188300Y3243167D01*
X-3194967Y3236500D01*
X-3208300Y3229833D01*
X-3261633Y3229833D01*
X-3128300Y3203167D02*
X-3061633Y3203167D01*
X-3141633Y3163167D02*
X-3094967Y3303167D01*
X-3048300Y3163167D01*
X-2921633Y3176500D02*
X-2928300Y3169833D01*
X-2948300Y3163167D01*
X-2961633Y3163167D01*
X-2981633Y3169833D01*
X-2994967Y3183167D01*
X-3001633Y3196500D01*
X-3008300Y3223167D01*
X-3008300Y3243167D01*
X-3001633Y3269833D01*
X-2994967Y3283167D01*
X-2981633Y3296500D01*
X-2961633Y3303167D01*
X-2948300Y3303167D01*
X-2928300Y3296500D01*
X-2921633Y3289833D01*
X-2861633Y3163167D02*
X-2861633Y3303167D01*
X-2861633Y3236500D02*
X-2781633Y3236500D01*
X-2781633Y3163167D02*
X-2781633Y3303167D01*
X-2714967Y3236500D02*
X-2668300Y3236500D01*
X-2648300Y3163167D02*
X-2714967Y3163167D01*
X-2714967Y3303167D01*
X-2648300Y3303167D01*
X-2541633Y3236500D02*
X-2521633Y3229833D01*
X-2514967Y3223167D01*
X-2508300Y3209833D01*
X-2508300Y3189833D01*
X-2514967Y3176500D01*
X-2521633Y3169833D01*
X-2534967Y3163167D01*
X-2588300Y3163167D01*
X-2588300Y3303167D01*
X-2541633Y3303167D01*
X-2528300Y3296500D01*
X-2521633Y3289833D01*
X-2514967Y3276500D01*
X-2514967Y3263167D01*
X-2521633Y3249833D01*
X-2528300Y3243167D01*
X-2541633Y3236500D01*
X-2588300Y3236500D01*
X-2368300Y3176500D02*
X-2374967Y3169833D01*
X-2394967Y3163167D01*
X-2408300Y3163167D01*
X-2428300Y3169833D01*
X-2441633Y3183167D01*
X-2448300Y3196500D01*
X-2454967Y3223167D01*
X-2454967Y3243167D01*
X-2448300Y3269833D01*
X-2441633Y3283167D01*
X-2428300Y3296500D01*
X-2408300Y3303167D01*
X-2394967Y3303167D01*
X-2374967Y3296500D01*
X-2368300Y3289833D01*
X-2308300Y3163167D02*
X-2308300Y3303167D01*
X-2228300Y3163167D01*
X-2228300Y3303167D01*
X-2074967Y3229833D02*
X-2081633Y3236500D01*
X-2094967Y3243167D01*
X-2108300Y3243167D01*
X-2121633Y3236500D01*
X-2128300Y3229833D01*
X-2134967Y3216500D01*
X-2134967Y3203167D01*
X-2128300Y3189833D01*
X-2121633Y3183167D01*
X-2108300Y3176500D01*
X-2094967Y3176500D01*
X-2081633Y3183167D01*
X-2074967Y3189833D01*
X-2074967Y3243167D02*
X-2074967Y3189833D01*
X-2068300Y3183167D01*
X-2061633Y3183167D01*
X-2048300Y3189833D01*
X-2041633Y3203167D01*
X-2041633Y3236500D01*
X-2054967Y3256500D01*
X-2074967Y3269833D01*
X-2101633Y3276500D01*
X-2128300Y3269833D01*
X-2148300Y3256500D01*
X-2161633Y3236500D01*
X-2168300Y3209833D01*
X-2161633Y3183167D01*
X-2148300Y3163167D01*
X-2128300Y3149833D01*
X-2101633Y3143167D01*
X-2074967Y3149833D01*
X-2054967Y3163167D01*
X-1908300Y3296500D02*
X-1921633Y3303167D01*
X-1941633Y3303167D01*
X-1961633Y3296500D01*
X-1974967Y3283167D01*
X-1981633Y3269833D01*
X-1988300Y3243167D01*
X-1988300Y3223167D01*
X-1981633Y3196500D01*
X-1974967Y3183167D01*
X-1961633Y3169833D01*
X-1941633Y3163167D01*
X-1928300Y3163167D01*
X-1908300Y3169833D01*
X-1901633Y3176500D01*
X-1901633Y3223167D01*
X-1928300Y3223167D01*
X-1841633Y3163167D02*
X-1841633Y3303167D01*
X-1794967Y3203167D01*
X-1748300Y3303167D01*
X-1748300Y3163167D01*
X-1688300Y3203167D02*
X-1621633Y3203167D01*
X-1701633Y3163167D02*
X-1654967Y3303167D01*
X-1608300Y3163167D01*
X-1561633Y3163167D02*
X-1561633Y3303167D01*
X-1428300Y3163167D02*
X-1494967Y3163167D01*
X-1494967Y3303167D01*
X-1381633Y3176500D02*
X-1374967Y3169833D01*
X-1381633Y3163167D01*
X-1388300Y3169833D01*
X-1381633Y3176500D01*
X-1381633Y3163167D01*
X-1234967Y3176500D02*
X-1241633Y3169833D01*
X-1261633Y3163167D01*
X-1274967Y3163167D01*
X-1294967Y3169833D01*
X-1308300Y3183167D01*
X-1314967Y3196500D01*
X-1321633Y3223167D01*
X-1321633Y3243167D01*
X-1314967Y3269833D01*
X-1308300Y3283167D01*
X-1294967Y3296500D01*
X-1274967Y3303167D01*
X-1261633Y3303167D01*
X-1241633Y3296500D01*
X-1234967Y3289833D01*
X-1148300Y3303167D02*
X-1121633Y3303167D01*
X-1108300Y3296500D01*
X-1094967Y3283167D01*
X-1088300Y3256500D01*
X-1088300Y3209833D01*
X-1094967Y3183167D01*
X-1108300Y3169833D01*
X-1121633Y3163167D01*
X-1148300Y3163167D01*
X-1161633Y3169833D01*
X-1174967Y3183167D01*
X-1181633Y3209833D01*
X-1181633Y3256500D01*
X-1174967Y3283167D01*
X-1161633Y3296500D01*
X-1148300Y3303167D01*
X-1028300Y3163167D02*
X-1028300Y3303167D01*
X-981633Y3203167D01*
X-934967Y3303167D01*
X-934967Y3163167D01*
X-3394367Y3582167D02*
X-3314367Y3582167D01*
X-3354367Y3442167D02*
X-3354367Y3582167D01*
X-3267700Y3515500D02*
X-3221033Y3515500D01*
X-3201033Y3442167D02*
X-3267700Y3442167D01*
X-3267700Y3582167D01*
X-3201033Y3582167D01*
X-3061033Y3442167D02*
X-3107700Y3508833D01*
X-3141033Y3442167D02*
X-3141033Y3582167D01*
X-3087700Y3582167D01*
X-3074367Y3575500D01*
X-3067700Y3568833D01*
X-3061033Y3555500D01*
X-3061033Y3535500D01*
X-3067700Y3522167D01*
X-3074367Y3515500D01*
X-3087700Y3508833D01*
X-3141033Y3508833D01*
X-3001033Y3442167D02*
X-3001033Y3582167D01*
X-2954367Y3482167D01*
X-2907700Y3582167D01*
X-2907700Y3442167D01*
X-2814367Y3582167D02*
X-2787700Y3582167D01*
X-2774367Y3575500D01*
X-2761033Y3562167D01*
X-2754367Y3535500D01*
X-2754367Y3488833D01*
X-2761033Y3462167D01*
X-2774367Y3448833D01*
X-2787700Y3442167D01*
X-2814367Y3442167D01*
X-2827700Y3448833D01*
X-2841033Y3462167D01*
X-2847700Y3488833D01*
X-2847700Y3535500D01*
X-2841033Y3562167D01*
X-2827700Y3575500D01*
X-2814367Y3582167D01*
X-2701033Y3448833D02*
X-2681033Y3442167D01*
X-2647700Y3442167D01*
X-2634367Y3448833D01*
X-2627700Y3455500D01*
X-2621033Y3468833D01*
X-2621033Y3482167D01*
X-2627700Y3495500D01*
X-2634367Y3502167D01*
X-2647700Y3508833D01*
X-2674367Y3515500D01*
X-2687700Y3522167D01*
X-2694367Y3528833D01*
X-2701033Y3542167D01*
X-2701033Y3555500D01*
X-2694367Y3568833D01*
X-2687700Y3575500D01*
X-2674367Y3582167D01*
X-2641033Y3582167D01*
X-2621033Y3575500D01*
X-2581033Y3582167D02*
X-2501033Y3582167D01*
X-2541033Y3442167D02*
X-2541033Y3582167D01*
X-2461033Y3482167D02*
X-2394367Y3482167D01*
X-2474367Y3442167D02*
X-2427700Y3582167D01*
X-2381033Y3442167D01*
X-2354367Y3582167D02*
X-2274367Y3582167D01*
X-2314367Y3442167D02*
X-2314367Y3582167D01*
X-2201033Y3582167D02*
X-2174367Y3582167D01*
X-2161033Y3575500D01*
X-2147700Y3562167D01*
X-2141033Y3535500D01*
X-2141033Y3488833D01*
X-2147700Y3462167D01*
X-2161033Y3448833D01*
X-2174367Y3442167D01*
X-2201033Y3442167D01*
X-2214367Y3448833D01*
X-2227700Y3462167D01*
X-2234367Y3488833D01*
X-2234367Y3535500D01*
X-2227700Y3562167D01*
X-2214367Y3575500D01*
X-2201033Y3582167D01*
X-1974367Y3442167D02*
X-1974367Y3582167D01*
X-1941033Y3582167D01*
X-1921033Y3575500D01*
X-1907700Y3562167D01*
X-1901033Y3548833D01*
X-1894367Y3522167D01*
X-1894367Y3502167D01*
X-1901033Y3475500D01*
X-1907700Y3462167D01*
X-1921033Y3448833D01*
X-1941033Y3442167D01*
X-1974367Y3442167D01*
X-1834367Y3442167D02*
X-1834367Y3582167D01*
X-1721033Y3515500D02*
X-1767700Y3515500D01*
X-1767700Y3442167D02*
X-1767700Y3582167D01*
X-1701033Y3582167D01*
X-1647700Y3515500D02*
X-1601033Y3515500D01*
X-1581033Y3442167D02*
X-1647700Y3442167D01*
X-1647700Y3582167D01*
X-1581033Y3582167D01*
X-1441033Y3442167D02*
X-1487700Y3508833D01*
X-1521033Y3442167D02*
X-1521033Y3582167D01*
X-1467700Y3582167D01*
X-1454367Y3575500D01*
X-1447700Y3568833D01*
X-1441033Y3555500D01*
X-1441033Y3535500D01*
X-1447700Y3522167D01*
X-1454367Y3515500D01*
X-1467700Y3508833D01*
X-1521033Y3508833D01*
X-1381033Y3515500D02*
X-1334367Y3515500D01*
X-1314367Y3442167D02*
X-1381033Y3442167D01*
X-1381033Y3582167D01*
X-1314367Y3582167D01*
X-1254367Y3442167D02*
X-1254367Y3582167D01*
X-1174367Y3442167D01*
X-1174367Y3582167D01*
X-1027700Y3455500D02*
X-1034367Y3448833D01*
X-1054367Y3442167D01*
X-1067700Y3442167D01*
X-1087700Y3448833D01*
X-1101033Y3462167D01*
X-1107700Y3475500D01*
X-1114367Y3502167D01*
X-1114367Y3522167D01*
X-1107700Y3548833D01*
X-1101033Y3562167D01*
X-1087700Y3575500D01*
X-1067700Y3582167D01*
X-1054367Y3582167D01*
X-1034367Y3575500D01*
X-1027700Y3568833D01*
X-967700Y3442167D02*
X-967700Y3582167D01*
X-907700Y3482167D02*
X-841033Y3482167D01*
X-921033Y3442167D02*
X-874367Y3582167D01*
X-827700Y3442167D01*
X-714367Y3442167D02*
X-781033Y3442167D01*
X-781033Y3582167D01*
X-561033Y3442167D02*
X-561033Y3582167D01*
X-514367Y3482167D01*
X-467700Y3582167D01*
X-467700Y3442167D01*
X-401033Y3442167D02*
X-401033Y3582167D01*
X-334367Y3442167D02*
X-334367Y3582167D01*
X-254367Y3442167D01*
X-254367Y3582167D01*
X-187700Y3442167D02*
X-187700Y3582167D01*
X-21033Y3568833D02*
X-14367Y3575500D01*
X-1033Y3582167D01*
X32300Y3582167D01*
X45633Y3575500D01*
X52300Y3568833D01*
X58967Y3555500D01*
X58967Y3542167D01*
X52300Y3522167D01*
X-27700Y3442167D01*
X58967Y3442167D01*
X145633Y3582167D02*
X158967Y3582167D01*
X172300Y3575500D01*
X178967Y3568833D01*
X185633Y3555500D01*
X192300Y3528833D01*
X192300Y3495500D01*
X185633Y3468833D01*
X178967Y3455500D01*
X172300Y3448833D01*
X158967Y3442167D01*
X145633Y3442167D01*
X132300Y3448833D01*
X125633Y3455500D01*
X118967Y3468833D01*
X112300Y3495500D01*
X112300Y3528833D01*
X118967Y3555500D01*
X125633Y3568833D01*
X132300Y3575500D01*
X145633Y3582167D01*
X245633Y3568833D02*
X252300Y3575500D01*
X265633Y3582167D01*
X298967Y3582167D01*
X312300Y3575500D01*
X318967Y3568833D01*
X325633Y3555500D01*
X325633Y3542167D01*
X318967Y3522167D01*
X238967Y3442167D01*
X325633Y3442167D01*
X458967Y3442167D02*
X378967Y3442167D01*
X418967Y3442167D02*
X418967Y3582167D01*
X405633Y3562167D01*
X392300Y3548833D01*
X378967Y3542167D01*
X625633Y3495500D02*
X732300Y3495500D01*
X905633Y3442167D02*
X905633Y3582167D01*
X952300Y3482167D01*
X998967Y3582167D01*
X998967Y3442167D01*
X1065633Y3442167D02*
X1065633Y3582167D01*
X1125633Y3448833D02*
X1145633Y3442167D01*
X1178967Y3442167D01*
X1192300Y3448833D01*
X1198967Y3455500D01*
X1205633Y3468833D01*
X1205633Y3482167D01*
X1198967Y3495500D01*
X1192300Y3502167D01*
X1178967Y3508833D01*
X1152300Y3515500D01*
X1138967Y3522167D01*
X1132300Y3528833D01*
X1125633Y3542167D01*
X1125633Y3555500D01*
X1132300Y3568833D01*
X1138967Y3575500D01*
X1152300Y3582167D01*
X1185633Y3582167D01*
X1205633Y3575500D01*
X1292300Y3582167D02*
X1318967Y3582167D01*
X1332300Y3575500D01*
X1345633Y3562167D01*
X1352300Y3535500D01*
X1352300Y3488833D01*
X1345633Y3462167D01*
X1332300Y3448833D01*
X1318967Y3442167D01*
X1292300Y3442167D01*
X1278967Y3448833D01*
X1265633Y3462167D01*
X1258967Y3488833D01*
X1258967Y3535500D01*
X1265633Y3562167D01*
X1278967Y3575500D01*
X1292300Y3582167D01*
X1478967Y3442167D02*
X1412300Y3442167D01*
X1412300Y3582167D01*
X1518967Y3482167D02*
X1585633Y3482167D01*
X1505633Y3442167D02*
X1552300Y3582167D01*
X1598967Y3442167D01*
X1725633Y3442167D02*
X1678967Y3508833D01*
X1645633Y3442167D02*
X1645633Y3582167D01*
X1698967Y3582167D01*
X1712300Y3575500D01*
X1718967Y3568833D01*
X1725633Y3555500D01*
X1725633Y3535500D01*
X1718967Y3522167D01*
X1712300Y3515500D01*
X1698967Y3508833D01*
X1645633Y3508833D01*
X1865633Y3455500D02*
X1858967Y3448833D01*
X1838967Y3442167D01*
X1825633Y3442167D01*
X1805633Y3448833D01*
X1792300Y3462167D01*
X1785633Y3475500D01*
X1778967Y3502167D01*
X1778967Y3522167D01*
X1785633Y3548833D01*
X1792300Y3562167D01*
X1805633Y3575500D01*
X1825633Y3582167D01*
X1838967Y3582167D01*
X1858967Y3575500D01*
X1865633Y3568833D01*
X1918967Y3482167D02*
X1985633Y3482167D01*
X1905633Y3442167D02*
X1952300Y3582167D01*
X1998967Y3442167D01*
X2038967Y3448833D02*
X2058967Y3442167D01*
X2092300Y3442167D01*
X2105633Y3448833D01*
X2112300Y3455500D01*
X2118967Y3468833D01*
X2118967Y3482167D01*
X2112300Y3495500D01*
X2105633Y3502167D01*
X2092300Y3508833D01*
X2065633Y3515500D01*
X2052300Y3522167D01*
X2045633Y3528833D01*
X2038967Y3542167D01*
X2038967Y3555500D01*
X2045633Y3568833D01*
X2052300Y3575500D01*
X2065633Y3582167D01*
X2098967Y3582167D01*
X2118967Y3575500D01*
X2178967Y3515500D02*
X2225633Y3515500D01*
X2245633Y3442167D02*
X2178967Y3442167D01*
X2178967Y3582167D01*
X2245633Y3582167D01*
X2385633Y3442167D02*
X2338967Y3508833D01*
X2305633Y3442167D02*
X2305633Y3582167D01*
X2358967Y3582167D01*
X2372300Y3575500D01*
X2378967Y3568833D01*
X2385633Y3555500D01*
X2385633Y3535500D01*
X2378967Y3522167D01*
X2372300Y3515500D01*
X2358967Y3508833D01*
X2305633Y3508833D01*
X2472300Y3582167D02*
X2498967Y3582167D01*
X2512300Y3575500D01*
X2525633Y3562167D01*
X2532300Y3535500D01*
X2532300Y3488833D01*
X2525633Y3462167D01*
X2512300Y3448833D01*
X2498967Y3442167D01*
X2472300Y3442167D01*
X2458967Y3448833D01*
X2445633Y3462167D01*
X2438967Y3488833D01*
X2438967Y3535500D01*
X2445633Y3562167D01*
X2458967Y3575500D01*
X2472300Y3582167D01*
X2592300Y3455500D02*
X2598967Y3448833D01*
X2592300Y3442167D01*
X2585633Y3448833D01*
X2592300Y3455500D01*
X2592300Y3442167D01*
X2738967Y3455500D02*
X2732300Y3448833D01*
X2712300Y3442167D01*
X2698967Y3442167D01*
X2678967Y3448833D01*
X2665633Y3462167D01*
X2658967Y3475500D01*
X2652300Y3502167D01*
X2652300Y3522167D01*
X2658967Y3548833D01*
X2665633Y3562167D01*
X2678967Y3575500D01*
X2698967Y3582167D01*
X2712300Y3582167D01*
X2732300Y3575500D01*
X2738967Y3568833D01*
X2825633Y3582167D02*
X2852300Y3582167D01*
X2865633Y3575500D01*
X2878967Y3562167D01*
X2885633Y3535500D01*
X2885633Y3488833D01*
X2878967Y3462167D01*
X2865633Y3448833D01*
X2852300Y3442167D01*
X2825633Y3442167D01*
X2812300Y3448833D01*
X2798967Y3462167D01*
X2792300Y3488833D01*
X2792300Y3535500D01*
X2798967Y3562167D01*
X2812300Y3575500D01*
X2825633Y3582167D01*
X2945633Y3442167D02*
X2945633Y3582167D01*
X2992300Y3482167D01*
X3038967Y3582167D01*
X3038967Y3442167D01*
X-1794209Y1112149D02*
X-1727542Y1112149D01*
X-1832304Y1088339D02*
X-1760875Y1064530D01*
X-1760875Y1126434D01*
X-1727542Y1164530D02*
X-1827542Y1164530D01*
X-1727542Y1221672D02*
X-1784685Y1178815D01*
X-1827542Y1221672D02*
X-1770399Y1164530D01*
X-1827542Y1255006D02*
X-1827542Y1321672D01*
X-1727542Y1278815D01*
X-1794209Y751469D02*
X-1727542Y751469D01*
X-1832304Y727659D02*
X-1760875Y703850D01*
X-1760875Y765754D01*
X-1727542Y803850D02*
X-1827542Y803850D01*
X-1727542Y860992D02*
X-1784685Y818135D01*
X-1827542Y860992D02*
X-1770399Y803850D01*
X-1827542Y894326D02*
X-1827542Y960992D01*
X-1727542Y918135D01*
X-1794209Y390789D02*
X-1727542Y390789D01*
X-1832304Y366979D02*
X-1760875Y343170D01*
X-1760875Y405074D01*
X-1727542Y443170D02*
X-1827542Y443170D01*
X-1727542Y500312D02*
X-1784685Y457455D01*
X-1827542Y500312D02*
X-1770399Y443170D01*
X-1827542Y533646D02*
X-1827542Y600312D01*
X-1727542Y557455D01*
X-1794209Y40269D02*
X-1727542Y40269D01*
X-1832304Y16459D02*
X-1760875Y-7350D01*
X-1760875Y54554D01*
X-1727542Y92650D02*
X-1827542Y92650D01*
X-1727542Y149792D02*
X-1784685Y106935D01*
X-1827542Y149792D02*
X-1770399Y92650D01*
X-1827542Y183126D02*
X-1827542Y249792D01*
X-1727542Y206935D01*
X87786Y-3114186D02*
X87786Y-2994186D01*
X116357Y-2994186D01*
X133500Y-2999900D01*
X144929Y-3011328D01*
X150643Y-3022757D01*
X156357Y-3045614D01*
X156357Y-3062757D01*
X150643Y-3085614D01*
X144929Y-3097043D01*
X133500Y-3108471D01*
X116357Y-3114186D01*
X87786Y-3114186D01*
X202071Y-3079900D02*
X259214Y-3079900D01*
X190643Y-3114186D02*
X230643Y-2994186D01*
X270643Y-3114186D01*
X293500Y-2994186D02*
X362071Y-2994186D01*
X327786Y-3114186D02*
X327786Y-2994186D01*
X396357Y-3079900D02*
X453500Y-3079900D01*
X384928Y-3114186D02*
X424928Y-2994186D01*
X464928Y-3114186D01*
X659214Y-2999900D02*
X647786Y-2994186D01*
X630643Y-2994186D01*
X613500Y-2999900D01*
X602071Y-3011328D01*
X596357Y-3022757D01*
X590643Y-3045614D01*
X590643Y-3062757D01*
X596357Y-3085614D01*
X602071Y-3097043D01*
X613500Y-3108471D01*
X630643Y-3114186D01*
X642071Y-3114186D01*
X659214Y-3108471D01*
X664929Y-3102757D01*
X664929Y-3062757D01*
X642071Y-3062757D01*
X716357Y-3114186D02*
X716357Y-2994186D01*
X784928Y-3114186D01*
X784928Y-2994186D01*
X842071Y-3114186D02*
X842071Y-2994186D01*
X870643Y-2994186D01*
X887786Y-2999900D01*
X899214Y-3011328D01*
X904928Y-3022757D01*
X910643Y-3045614D01*
X910643Y-3062757D01*
X904928Y-3085614D01*
X899214Y-3097043D01*
X887786Y-3108471D01*
X870643Y-3114186D01*
X842071Y-3114186D01*
X1036357Y-2994186D02*
X1076357Y-3114186D01*
X1116357Y-2994186D01*
X1224929Y-3102757D02*
X1219214Y-3108471D01*
X1202071Y-3114186D01*
X1190643Y-3114186D01*
X1173500Y-3108471D01*
X1162071Y-3097043D01*
X1156357Y-3085614D01*
X1150643Y-3062757D01*
X1150643Y-3045614D01*
X1156357Y-3022757D01*
X1162071Y-3011328D01*
X1173500Y-2999900D01*
X1190643Y-2994186D01*
X1202071Y-2994186D01*
X1219214Y-2999900D01*
X1224929Y-3005614D01*
X1344929Y-3102757D02*
X1339214Y-3108471D01*
X1322071Y-3114186D01*
X1310643Y-3114186D01*
X1293500Y-3108471D01*
X1282071Y-3097043D01*
X1276357Y-3085614D01*
X1270643Y-3062757D01*
X1270643Y-3045614D01*
X1276357Y-3022757D01*
X1282071Y-3011328D01*
X1293500Y-2999900D01*
X1310643Y-2994186D01*
X1322071Y-2994186D01*
X1339214Y-2999900D01*
X1344929Y-3005614D01*
D11*
X-3144100Y-902400D02*
X-3207600Y-965900D01*
X-3144100Y-902400D02*
X-3207600Y-838900D01*
D10*
X-3303562Y2642762D02*
X-3303562Y2742762D01*
X-3265467Y2742762D01*
X-3255943Y2738000D01*
X-3251181Y2733238D01*
X-3246419Y2723714D01*
X-3246419Y2709429D01*
X-3251181Y2699905D01*
X-3255943Y2695143D01*
X-3265467Y2690381D01*
X-3303562Y2690381D01*
X-3208324Y2671333D02*
X-3160705Y2671333D01*
X-3217848Y2642762D02*
X-3184514Y2742762D01*
X-3151181Y2642762D01*
X-3117848Y2642762D02*
X-3117848Y2742762D01*
X-3060705Y2642762D01*
X-3060705Y2742762D01*
X-3027371Y2742762D02*
X-2970229Y2742762D01*
X-2998800Y2642762D02*
X-2998800Y2742762D01*
X-2941657Y2671333D02*
X-2894038Y2671333D01*
X-2951181Y2642762D02*
X-2917848Y2742762D01*
X-2884514Y2642762D01*
X-2803562Y2642762D02*
X-2851181Y2642762D01*
X-2851181Y2742762D01*
X-2722610Y2642762D02*
X-2770229Y2642762D01*
X-2770229Y2742762D01*
X-2694038Y2671333D02*
X-2646419Y2671333D01*
X-2703562Y2642762D02*
X-2670229Y2742762D01*
X-2636895Y2642762D01*
X-2474991Y2642762D02*
X-2532133Y2642762D01*
X-2503562Y2642762D02*
X-2503562Y2742762D01*
X-2513086Y2728476D01*
X-2522610Y2718952D01*
X-2532133Y2714191D01*
X-2389276Y2742762D02*
X-2408324Y2742762D01*
X-2417848Y2738000D01*
X-2422610Y2733238D01*
X-2432133Y2718952D01*
X-2436895Y2699905D01*
X-2436895Y2661810D01*
X-2432133Y2652286D01*
X-2427372Y2647524D01*
X-2417848Y2642762D01*
X-2398800Y2642762D01*
X-2389276Y2647524D01*
X-2384514Y2652286D01*
X-2379752Y2661810D01*
X-2379752Y2685619D01*
X-2384514Y2695143D01*
X-2389276Y2699905D01*
X-2398800Y2704667D01*
X-2417848Y2704667D01*
X-2427372Y2699905D01*
X-2432133Y2695143D01*
X-2436895Y2685619D01*
X-2346419Y2742762D02*
X-2279752Y2642762D01*
X-2279752Y2742762D02*
X-2346419Y2642762D01*
X-2246419Y2733238D02*
X-2241657Y2738000D01*
X-2232133Y2742762D01*
X-2208324Y2742762D01*
X-2198800Y2738000D01*
X-2194038Y2733238D01*
X-2189276Y2723714D01*
X-2189276Y2714191D01*
X-2194038Y2699905D01*
X-2251181Y2642762D01*
X-2189276Y2642762D01*
X-3303419Y2051724D02*
X-3289133Y2046962D01*
X-3265324Y2046962D01*
X-3255800Y2051724D01*
X-3251038Y2056486D01*
X-3246276Y2066010D01*
X-3246276Y2075533D01*
X-3251038Y2085057D01*
X-3255800Y2089819D01*
X-3265324Y2094581D01*
X-3284371Y2099343D01*
X-3293895Y2104105D01*
X-3298657Y2108867D01*
X-3303419Y2118391D01*
X-3303419Y2127914D01*
X-3298657Y2137438D01*
X-3293895Y2142200D01*
X-3284371Y2146962D01*
X-3260562Y2146962D01*
X-3246276Y2142200D01*
X-3146276Y2056486D02*
X-3151038Y2051724D01*
X-3165324Y2046962D01*
X-3174848Y2046962D01*
X-3189133Y2051724D01*
X-3198657Y2061248D01*
X-3203419Y2070771D01*
X-3208181Y2089819D01*
X-3208181Y2104105D01*
X-3203419Y2123152D01*
X-3198657Y2132676D01*
X-3189133Y2142200D01*
X-3174848Y2146962D01*
X-3165324Y2146962D01*
X-3151038Y2142200D01*
X-3146276Y2137438D01*
X-3055800Y2046962D02*
X-3103419Y2046962D01*
X-3103419Y2146962D01*
X-2951038Y2051724D02*
X-2936752Y2046962D01*
X-2912943Y2046962D01*
X-2903419Y2051724D01*
X-2898657Y2056486D01*
X-2893895Y2066010D01*
X-2893895Y2075533D01*
X-2898657Y2085057D01*
X-2903419Y2089819D01*
X-2912943Y2094581D01*
X-2931990Y2099343D01*
X-2941514Y2104105D01*
X-2946276Y2108867D01*
X-2951038Y2118391D01*
X-2951038Y2127914D01*
X-2946276Y2137438D01*
X-2941514Y2142200D01*
X-2931990Y2146962D01*
X-2908181Y2146962D01*
X-2893895Y2142200D01*
X-2793895Y2056486D02*
X-2798657Y2051724D01*
X-2812943Y2046962D01*
X-2822467Y2046962D01*
X-2836752Y2051724D01*
X-2846276Y2061248D01*
X-2851038Y2070771D01*
X-2855800Y2089819D01*
X-2855800Y2104105D01*
X-2851038Y2123152D01*
X-2846276Y2132676D01*
X-2836752Y2142200D01*
X-2822467Y2146962D01*
X-2812943Y2146962D01*
X-2798657Y2142200D01*
X-2793895Y2137438D01*
X-2755800Y2075533D02*
X-2708181Y2075533D01*
X-2765324Y2046962D02*
X-2731991Y2146962D01*
X-2698657Y2046962D01*
X-2589133Y2085057D02*
X-2512943Y2085057D01*
X-2389133Y2085057D02*
X-2312943Y2085057D01*
X-2351038Y2046962D02*
X-2351038Y2123152D01*
X1519919Y-3274267D02*
X1567538Y-3274267D01*
X1510395Y-3302838D02*
X1543728Y-3202838D01*
X1577062Y-3302838D01*
X1658014Y-3302838D02*
X1610395Y-3302838D01*
X1610395Y-3202838D01*
X1691348Y-3302838D02*
X1691348Y-3202838D01*
X1738967Y-3302838D02*
X1738967Y-3202838D01*
X1772300Y-3274267D01*
X1805633Y-3202838D01*
X1805633Y-3302838D01*
X1853252Y-3250457D02*
X1886586Y-3250457D01*
X1900871Y-3302838D02*
X1853252Y-3302838D01*
X1853252Y-3202838D01*
X1900871Y-3202838D01*
X1943728Y-3302838D02*
X1943728Y-3202838D01*
X2000871Y-3302838D01*
X2000871Y-3202838D01*
X2034205Y-3202838D02*
X2091348Y-3202838D01*
X2062776Y-3302838D02*
X2062776Y-3202838D01*
X2119919Y-3274267D02*
X2167538Y-3274267D01*
X2110395Y-3302838D02*
X2143729Y-3202838D01*
X2177062Y-3302838D01*
X2267538Y-3293314D02*
X2262776Y-3298076D01*
X2248490Y-3302838D01*
X2238967Y-3302838D01*
X2224681Y-3298076D01*
X2215157Y-3288552D01*
X2210395Y-3279028D01*
X2205633Y-3259981D01*
X2205633Y-3245695D01*
X2210395Y-3226648D01*
X2215157Y-3217124D01*
X2224681Y-3207600D01*
X2238967Y-3202838D01*
X2248490Y-3202838D01*
X2262776Y-3207600D01*
X2267538Y-3212362D01*
X2310395Y-3302838D02*
X2310395Y-3202838D01*
X2377062Y-3202838D02*
X2396110Y-3202838D01*
X2405633Y-3207600D01*
X2415157Y-3217124D01*
X2419919Y-3236171D01*
X2419919Y-3269505D01*
X2415157Y-3288552D01*
X2405633Y-3298076D01*
X2396110Y-3302838D01*
X2377062Y-3302838D01*
X2367538Y-3298076D01*
X2358014Y-3288552D01*
X2353252Y-3269505D01*
X2353252Y-3236171D01*
X2358014Y-3217124D01*
X2367538Y-3207600D01*
X2377062Y-3202838D01*
X2462776Y-3302838D02*
X2462776Y-3202838D01*
X2519919Y-3302838D01*
X2519919Y-3202838D01*
D11*
X-1195100Y-1562800D02*
X-1195100Y-1258000D01*
X-674400Y-1562800D02*
X-1195100Y-1562800D01*
X-674400Y-1258000D02*
X-674400Y-1562800D01*
X-1195100Y-1258000D02*
X-674400Y-1258000D01*
X-1195100Y-1054800D02*
X-1195100Y-750000D01*
X-674400Y-1054800D02*
X-1195100Y-1054800D01*
X-674400Y-750000D02*
X-674400Y-1054800D01*
X-1195100Y-750000D02*
X-674400Y-750000D01*
D12*
X5000Y0D02*
G75*
G03*
X5000Y0I-5000J0D01*
G01*
D11*
X-3257400Y-902400D02*
X-3144100Y-902400D01*
X-3257400Y-1086000D02*
X-3257400Y-902400D01*
D10*
X-3310900Y-1409528D02*
X-3316614Y-1420957D01*
X-3316614Y-1438100D01*
X-3310900Y-1455243D01*
X-3299471Y-1466671D01*
X-3288043Y-1472386D01*
X-3265186Y-1478100D01*
X-3248043Y-1478100D01*
X-3225186Y-1472386D01*
X-3213757Y-1466671D01*
X-3202329Y-1455243D01*
X-3196614Y-1438100D01*
X-3196614Y-1426671D01*
X-3202329Y-1409528D01*
X-3208043Y-1403814D01*
X-3248043Y-1403814D01*
X-3248043Y-1426671D01*
X-3196614Y-1352386D02*
X-3316614Y-1352386D01*
X-3196614Y-1283814D01*
X-3316614Y-1283814D01*
X-3196614Y-1226671D02*
X-3316614Y-1226671D01*
X-3316614Y-1198100D01*
X-3310900Y-1180957D01*
X-3299471Y-1169529D01*
X-3288043Y-1163814D01*
X-3265186Y-1158100D01*
X-3248043Y-1158100D01*
X-3225186Y-1163814D01*
X-3213757Y-1169529D01*
X-3202329Y-1180957D01*
X-3196614Y-1198100D01*
X-3196614Y-1226671D01*
X1729057Y-2265286D02*
X1729057Y-2145286D01*
X1774771Y-2145286D01*
X1786200Y-2151000D01*
X1791914Y-2156714D01*
X1797628Y-2168143D01*
X1797628Y-2185286D01*
X1791914Y-2196714D01*
X1786200Y-2202429D01*
X1774771Y-2208143D01*
X1729057Y-2208143D01*
X1871914Y-2145286D02*
X1894771Y-2145286D01*
X1906200Y-2151000D01*
X1917628Y-2162429D01*
X1923343Y-2185286D01*
X1923343Y-2225286D01*
X1917628Y-2248143D01*
X1906200Y-2259571D01*
X1894771Y-2265286D01*
X1871914Y-2265286D01*
X1860486Y-2259571D01*
X1849057Y-2248143D01*
X1843343Y-2225286D01*
X1843343Y-2185286D01*
X1849057Y-2162429D01*
X1860486Y-2151000D01*
X1871914Y-2145286D01*
X1963343Y-2145286D02*
X1991914Y-2265286D01*
X2014771Y-2179571D01*
X2037628Y-2265286D01*
X2066200Y-2145286D01*
X2111914Y-2202429D02*
X2151914Y-2202429D01*
X2169057Y-2265286D02*
X2111914Y-2265286D01*
X2111914Y-2145286D01*
X2169057Y-2145286D01*
X2289057Y-2265286D02*
X2249057Y-2208143D01*
X2220486Y-2265286D02*
X2220486Y-2145286D01*
X2266200Y-2145286D01*
X2277629Y-2151000D01*
X2283343Y-2156714D01*
X2289057Y-2168143D01*
X2289057Y-2185286D01*
X2283343Y-2196714D01*
X2277629Y-2202429D01*
X2266200Y-2208143D01*
X2220486Y-2208143D01*
D11*
X2891900Y-1559000D02*
X3665200Y-1559000D01*
D10*
X-2966614Y-3114186D02*
X-2966614Y-2994186D01*
X-2938043Y-2994186D01*
X-2920900Y-2999900D01*
X-2909471Y-3011328D01*
X-2903757Y-3022757D01*
X-2898043Y-3045614D01*
X-2898043Y-3062757D01*
X-2903757Y-3085614D01*
X-2909471Y-3097043D01*
X-2920900Y-3108471D01*
X-2938043Y-3114186D01*
X-2966614Y-3114186D01*
X-2852329Y-3079900D02*
X-2795186Y-3079900D01*
X-2863757Y-3114186D02*
X-2823757Y-2994186D01*
X-2783757Y-3114186D01*
X-2760900Y-2994186D02*
X-2692329Y-2994186D01*
X-2726614Y-3114186D02*
X-2726614Y-2994186D01*
X-2658043Y-3079900D02*
X-2600900Y-3079900D01*
X-2669472Y-3114186D02*
X-2629472Y-2994186D01*
X-2589472Y-3114186D01*
X-2395186Y-2999900D02*
X-2406614Y-2994186D01*
X-2423757Y-2994186D01*
X-2440900Y-2999900D01*
X-2452329Y-3011328D01*
X-2458043Y-3022757D01*
X-2463757Y-3045614D01*
X-2463757Y-3062757D01*
X-2458043Y-3085614D01*
X-2452329Y-3097043D01*
X-2440900Y-3108471D01*
X-2423757Y-3114186D01*
X-2412329Y-3114186D01*
X-2395186Y-3108471D01*
X-2389472Y-3102757D01*
X-2389472Y-3062757D01*
X-2412329Y-3062757D01*
X-2338043Y-3114186D02*
X-2338043Y-2994186D01*
X-2269472Y-3114186D01*
X-2269472Y-2994186D01*
X-2212329Y-3114186D02*
X-2212329Y-2994186D01*
X-2183757Y-2994186D01*
X-2166614Y-2999900D01*
X-2155186Y-3011328D01*
X-2149472Y-3022757D01*
X-2143757Y-3045614D01*
X-2143757Y-3062757D01*
X-2149472Y-3085614D01*
X-2155186Y-3097043D01*
X-2166614Y-3108471D01*
X-2183757Y-3114186D01*
X-2212329Y-3114186D01*
X-2018043Y-2994186D02*
X-1978043Y-3114186D01*
X-1938043Y-2994186D01*
X-1829471Y-3102757D02*
X-1835186Y-3108471D01*
X-1852329Y-3114186D01*
X-1863757Y-3114186D01*
X-1880900Y-3108471D01*
X-1892329Y-3097043D01*
X-1898043Y-3085614D01*
X-1903757Y-3062757D01*
X-1903757Y-3045614D01*
X-1898043Y-3022757D01*
X-1892329Y-3011328D01*
X-1880900Y-2999900D01*
X-1863757Y-2994186D01*
X-1852329Y-2994186D01*
X-1835186Y-2999900D01*
X-1829471Y-3005614D01*
X-1709471Y-3102757D02*
X-1715186Y-3108471D01*
X-1732329Y-3114186D01*
X-1743757Y-3114186D01*
X-1760900Y-3108471D01*
X-1772329Y-3097043D01*
X-1778043Y-3085614D01*
X-1783757Y-3062757D01*
X-1783757Y-3045614D01*
X-1778043Y-3022757D01*
X-1772329Y-3011328D01*
X-1760900Y-2999900D01*
X-1743757Y-2994186D01*
X-1732329Y-2994186D01*
X-1715186Y-2999900D01*
X-1709471Y-3005614D01*
X-3030043Y-3306171D02*
X-3012900Y-3311886D01*
X-2984329Y-3311886D01*
X-2972900Y-3306171D01*
X-2967186Y-3300457D01*
X-2961471Y-3289028D01*
X-2961471Y-3277600D01*
X-2967186Y-3266171D01*
X-2972900Y-3260457D01*
X-2984329Y-3254743D01*
X-3007186Y-3249028D01*
X-3018614Y-3243314D01*
X-3024329Y-3237600D01*
X-3030043Y-3226171D01*
X-3030043Y-3214743D01*
X-3024329Y-3203314D01*
X-3018614Y-3197600D01*
X-3007186Y-3191886D01*
X-2978614Y-3191886D01*
X-2961471Y-3197600D01*
X-2887186Y-3191886D02*
X-2864329Y-3191886D01*
X-2852900Y-3197600D01*
X-2841471Y-3209028D01*
X-2835757Y-3231886D01*
X-2835757Y-3271886D01*
X-2841471Y-3294743D01*
X-2852900Y-3306171D01*
X-2864329Y-3311886D01*
X-2887186Y-3311886D01*
X-2898614Y-3306171D01*
X-2910043Y-3294743D01*
X-2915757Y-3271886D01*
X-2915757Y-3231886D01*
X-2910043Y-3209028D01*
X-2898614Y-3197600D01*
X-2887186Y-3191886D01*
X-2784329Y-3311886D02*
X-2784329Y-3191886D01*
X-2715757Y-3311886D01*
X-2715757Y-3191886D01*
X-2658614Y-3311886D02*
X-2658614Y-3191886D01*
X-2630043Y-3191886D01*
X-2612900Y-3197600D01*
X-2601472Y-3209028D01*
X-2595757Y-3220457D01*
X-2590043Y-3243314D01*
X-2590043Y-3260457D01*
X-2595757Y-3283314D01*
X-2601472Y-3294743D01*
X-2612900Y-3306171D01*
X-2630043Y-3311886D01*
X-2658614Y-3311886D01*
X-2544329Y-3277600D02*
X-2487186Y-3277600D01*
X-2555757Y-3311886D02*
X-2515757Y-3191886D01*
X-2475757Y-3311886D01*
X-2355757Y-3191886D02*
X-2275757Y-3191886D01*
X-2355757Y-3311886D01*
X-2275757Y-3311886D01*
X-2230043Y-3266171D02*
X-2138614Y-3266171D01*
X-2098614Y-3191886D02*
X-2030043Y-3191886D01*
X-2064329Y-3311886D02*
X-2064329Y-3191886D01*
X-1990043Y-3249028D02*
X-1950043Y-3249028D01*
X-1932900Y-3311886D02*
X-1990043Y-3311886D01*
X-1990043Y-3191886D01*
X-1932900Y-3191886D01*
X-1812900Y-3311886D02*
X-1852900Y-3254743D01*
X-1881471Y-3311886D02*
X-1881471Y-3191886D01*
X-1835757Y-3191886D01*
X-1824329Y-3197600D01*
X-1818614Y-3203314D01*
X-1812900Y-3214743D01*
X-1812900Y-3231886D01*
X-1818614Y-3243314D01*
X-1824329Y-3249028D01*
X-1835757Y-3254743D01*
X-1881471Y-3254743D01*
X-1761471Y-3311886D02*
X-1761471Y-3191886D01*
X-1721471Y-3277600D01*
X-1681471Y-3191886D01*
X-1681471Y-3311886D01*
X-1357529Y-3306171D02*
X-1340386Y-3311886D01*
X-1311814Y-3311886D01*
X-1300386Y-3306171D01*
X-1294672Y-3300457D01*
X-1288957Y-3289028D01*
X-1288957Y-3277600D01*
X-1294672Y-3266171D01*
X-1300386Y-3260457D01*
X-1311814Y-3254743D01*
X-1334672Y-3249028D01*
X-1346100Y-3243314D01*
X-1351814Y-3237600D01*
X-1357529Y-3226171D01*
X-1357529Y-3214743D01*
X-1351814Y-3203314D01*
X-1346100Y-3197600D01*
X-1334672Y-3191886D01*
X-1306100Y-3191886D01*
X-1288957Y-3197600D01*
X-1214672Y-3191886D02*
X-1191814Y-3191886D01*
X-1180386Y-3197600D01*
X-1168957Y-3209028D01*
X-1163243Y-3231886D01*
X-1163243Y-3271886D01*
X-1168957Y-3294743D01*
X-1180386Y-3306171D01*
X-1191814Y-3311886D01*
X-1214672Y-3311886D01*
X-1226100Y-3306171D01*
X-1237529Y-3294743D01*
X-1243243Y-3271886D01*
X-1243243Y-3231886D01*
X-1237529Y-3209028D01*
X-1226100Y-3197600D01*
X-1214672Y-3191886D01*
X-1111814Y-3311886D02*
X-1111814Y-3191886D01*
X-1043243Y-3311886D01*
X-1043243Y-3191886D01*
X-986100Y-3311886D02*
X-986100Y-3191886D01*
X-957529Y-3191886D01*
X-940386Y-3197600D01*
X-928957Y-3209028D01*
X-923243Y-3220457D01*
X-917529Y-3243314D01*
X-917529Y-3260457D01*
X-923243Y-3283314D01*
X-928957Y-3294743D01*
X-940386Y-3306171D01*
X-957529Y-3311886D01*
X-986100Y-3311886D01*
X-871814Y-3277600D02*
X-814671Y-3277600D01*
X-883243Y-3311886D02*
X-843243Y-3191886D01*
X-803243Y-3311886D01*
X-671814Y-3311886D02*
X-671814Y-3191886D01*
X-643243Y-3191886D01*
X-626100Y-3197600D01*
X-614672Y-3209028D01*
X-608957Y-3220457D01*
X-603243Y-3243314D01*
X-603243Y-3260457D01*
X-608957Y-3283314D01*
X-614672Y-3294743D01*
X-626100Y-3306171D01*
X-643243Y-3311886D01*
X-671814Y-3311886D01*
X-551814Y-3249028D02*
X-511814Y-3249028D01*
X-494671Y-3311886D02*
X-551814Y-3311886D01*
X-551814Y-3191886D01*
X-494671Y-3191886D01*
X-443243Y-3311886D02*
X-443243Y-3191886D01*
X-397529Y-3191886D01*
X-386100Y-3197600D01*
X-380386Y-3203314D01*
X-374671Y-3214743D01*
X-374671Y-3231886D01*
X-380386Y-3243314D01*
X-386100Y-3249028D01*
X-397529Y-3254743D01*
X-443243Y-3254743D01*
X-1440514Y-3114186D02*
X-1440514Y-2994186D01*
X-1411943Y-2994186D01*
X-1394800Y-2999900D01*
X-1383372Y-3011328D01*
X-1377657Y-3022757D01*
X-1371943Y-3045614D01*
X-1371943Y-3062757D01*
X-1377657Y-3085614D01*
X-1383372Y-3097043D01*
X-1394800Y-3108471D01*
X-1411943Y-3114186D01*
X-1440514Y-3114186D01*
X-1326229Y-3079900D02*
X-1269086Y-3079900D01*
X-1337657Y-3114186D02*
X-1297657Y-2994186D01*
X-1257657Y-3114186D01*
X-1234800Y-2994186D02*
X-1166229Y-2994186D01*
X-1200514Y-3114186D02*
X-1200514Y-2994186D01*
X-1131943Y-3079900D02*
X-1074800Y-3079900D01*
X-1143372Y-3114186D02*
X-1103372Y-2994186D01*
X-1063372Y-3114186D01*
X-869086Y-2999900D02*
X-880514Y-2994186D01*
X-897657Y-2994186D01*
X-914800Y-2999900D01*
X-926229Y-3011328D01*
X-931943Y-3022757D01*
X-937657Y-3045614D01*
X-937657Y-3062757D01*
X-931943Y-3085614D01*
X-926229Y-3097043D01*
X-914800Y-3108471D01*
X-897657Y-3114186D01*
X-886229Y-3114186D01*
X-869086Y-3108471D01*
X-863371Y-3102757D01*
X-863371Y-3062757D01*
X-886229Y-3062757D01*
X-811943Y-3114186D02*
X-811943Y-2994186D01*
X-743371Y-3114186D01*
X-743371Y-2994186D01*
X-686229Y-3114186D02*
X-686229Y-2994186D01*
X-657657Y-2994186D01*
X-640514Y-2999900D01*
X-629086Y-3011328D01*
X-623372Y-3022757D01*
X-617657Y-3045614D01*
X-617657Y-3062757D01*
X-623372Y-3085614D01*
X-629086Y-3097043D01*
X-640514Y-3108471D01*
X-657657Y-3114186D01*
X-686229Y-3114186D01*
X-491943Y-2994186D02*
X-451943Y-3114186D01*
X-411943Y-2994186D01*
X-303372Y-3102757D02*
X-309086Y-3108471D01*
X-326229Y-3114186D01*
X-337657Y-3114186D01*
X-354800Y-3108471D01*
X-366229Y-3097043D01*
X-371943Y-3085614D01*
X-377657Y-3062757D01*
X-377657Y-3045614D01*
X-371943Y-3022757D01*
X-366229Y-3011328D01*
X-354800Y-2999900D01*
X-337657Y-2994186D01*
X-326229Y-2994186D01*
X-309086Y-2999900D01*
X-303372Y-3005614D01*
X-183371Y-3102757D02*
X-189086Y-3108471D01*
X-206229Y-3114186D01*
X-217657Y-3114186D01*
X-234800Y-3108471D01*
X-246229Y-3097043D01*
X-251943Y-3085614D01*
X-257657Y-3062757D01*
X-257657Y-3045614D01*
X-251943Y-3022757D01*
X-246229Y-3011328D01*
X-234800Y-2999900D01*
X-217657Y-2994186D01*
X-206229Y-2994186D01*
X-189086Y-2999900D01*
X-183371Y-3005614D01*
X-3165000Y-2141200D02*
X-3164800Y-3388000D01*
X1482200Y-2141300D02*
X-372100Y-2141300D01*
X-1568200Y-2143000D02*
X-1568200Y-3387000D01*
X181928Y-3306171D02*
X199071Y-3311886D01*
X227643Y-3311886D01*
X239071Y-3306171D01*
X244786Y-3300457D01*
X250500Y-3289028D01*
X250500Y-3277600D01*
X244786Y-3266171D01*
X239071Y-3260457D01*
X227643Y-3254743D01*
X204786Y-3249028D01*
X193357Y-3243314D01*
X187643Y-3237600D01*
X181928Y-3226171D01*
X181928Y-3214743D01*
X187643Y-3203314D01*
X193357Y-3197600D01*
X204786Y-3191886D01*
X233357Y-3191886D01*
X250500Y-3197600D01*
X324786Y-3191886D02*
X347643Y-3191886D01*
X359071Y-3197600D01*
X370500Y-3209028D01*
X376214Y-3231886D01*
X376214Y-3271886D01*
X370500Y-3294743D01*
X359071Y-3306171D01*
X347643Y-3311886D01*
X324786Y-3311886D01*
X313357Y-3306171D01*
X301929Y-3294743D01*
X296214Y-3271886D01*
X296214Y-3231886D01*
X301929Y-3209028D01*
X313357Y-3197600D01*
X324786Y-3191886D01*
X427643Y-3311886D02*
X427643Y-3191886D01*
X496214Y-3311886D01*
X496214Y-3191886D01*
X553357Y-3311886D02*
X553357Y-3191886D01*
X581929Y-3191886D01*
X599071Y-3197600D01*
X610500Y-3209028D01*
X616214Y-3220457D01*
X621929Y-3243314D01*
X621929Y-3260457D01*
X616214Y-3283314D01*
X610500Y-3294743D01*
X599071Y-3306171D01*
X581929Y-3311886D01*
X553357Y-3311886D01*
X667643Y-3277600D02*
X724786Y-3277600D01*
X656214Y-3311886D02*
X696214Y-3191886D01*
X736214Y-3311886D01*
X936214Y-3300457D02*
X930500Y-3306171D01*
X913357Y-3311886D01*
X901928Y-3311886D01*
X884786Y-3306171D01*
X873357Y-3294743D01*
X867643Y-3283314D01*
X861928Y-3260457D01*
X861928Y-3243314D01*
X867643Y-3220457D01*
X873357Y-3209028D01*
X884786Y-3197600D01*
X901928Y-3191886D01*
X913357Y-3191886D01*
X930500Y-3197600D01*
X936214Y-3203314D01*
X1010500Y-3191886D02*
X1033357Y-3191886D01*
X1044786Y-3197600D01*
X1056214Y-3209028D01*
X1061929Y-3231886D01*
X1061929Y-3271886D01*
X1056214Y-3294743D01*
X1044786Y-3306171D01*
X1033357Y-3311886D01*
X1010500Y-3311886D01*
X999071Y-3306171D01*
X987643Y-3294743D01*
X981928Y-3271886D01*
X981928Y-3231886D01*
X987643Y-3209028D01*
X999071Y-3197600D01*
X1010500Y-3191886D01*
X1170500Y-3311886D02*
X1113357Y-3311886D01*
X1113357Y-3191886D01*
X-4340229Y-2385714D02*
X-4321657Y-2391905D01*
X-4315467Y-2398095D01*
X-4309276Y-2410476D01*
X-4309276Y-2429048D01*
X-4315467Y-2441429D01*
X-4321657Y-2447619D01*
X-4334038Y-2453810D01*
X-4383562Y-2453810D01*
X-4383562Y-2323810D01*
X-4340229Y-2323810D01*
X-4327848Y-2330000D01*
X-4321657Y-2336190D01*
X-4315467Y-2348571D01*
X-4315467Y-2360952D01*
X-4321657Y-2373333D01*
X-4327848Y-2379524D01*
X-4340229Y-2385714D01*
X-4383562Y-2385714D01*
X-4253562Y-2323810D02*
X-4253562Y-2429048D01*
X-4247372Y-2441429D01*
X-4241181Y-2447619D01*
X-4228800Y-2453810D01*
X-4204038Y-2453810D01*
X-4191657Y-2447619D01*
X-4185467Y-2441429D01*
X-4179276Y-2429048D01*
X-4179276Y-2323810D01*
X-4129752Y-2323810D02*
X-4043086Y-2323810D01*
X-4129752Y-2453810D01*
X-4043086Y-2453810D01*
X-4005943Y-2323810D02*
X-3919276Y-2323810D01*
X-4005943Y-2453810D01*
X-3919276Y-2453810D01*
X-3869752Y-2385714D02*
X-3826419Y-2385714D01*
X-3807848Y-2453810D02*
X-3869752Y-2453810D01*
X-3869752Y-2323810D01*
X-3807848Y-2323810D01*
X-3677848Y-2453810D02*
X-3721181Y-2391905D01*
X-3752133Y-2453810D02*
X-3752133Y-2323810D01*
X-3702610Y-2323810D01*
X-3690229Y-2330000D01*
X-3684038Y-2336190D01*
X-3677848Y-2348571D01*
X-3677848Y-2367143D01*
X-3684038Y-2379524D01*
X-3690229Y-2385714D01*
X-3702610Y-2391905D01*
X-3752133Y-2391905D01*
X-4538892Y-1473426D02*
X-4578892Y-1416283D01*
X-4607463Y-1473426D02*
X-4607463Y-1353426D01*
X-4561749Y-1353426D01*
X-4550320Y-1359140D01*
X-4544606Y-1364854D01*
X-4538892Y-1376283D01*
X-4538892Y-1393426D01*
X-4544606Y-1404854D01*
X-4550320Y-1410568D01*
X-4561749Y-1416283D01*
X-4607463Y-1416283D01*
X-4487463Y-1410568D02*
X-4447463Y-1410568D01*
X-4430320Y-1473426D02*
X-4487463Y-1473426D01*
X-4487463Y-1353426D01*
X-4430320Y-1353426D01*
X-4338892Y-1410568D02*
X-4378892Y-1410568D01*
X-4378892Y-1473426D02*
X-4378892Y-1353426D01*
X-4321749Y-1353426D01*
X-4727263Y2488060D02*
X-4670120Y2488060D01*
X-4738692Y2453774D02*
X-4698692Y2573774D01*
X-4658692Y2453774D01*
X-4561549Y2453774D02*
X-4618692Y2453774D01*
X-4618692Y2573774D01*
X-4527263Y2488060D02*
X-4470120Y2488060D01*
X-4538692Y2453774D02*
X-4498692Y2573774D01*
X-4458692Y2453774D01*
X-4350120Y2453774D02*
X-4390120Y2510917D01*
X-4418692Y2453774D02*
X-4418692Y2573774D01*
X-4372977Y2573774D01*
X-4361549Y2568060D01*
X-4355834Y2562346D01*
X-4350120Y2550917D01*
X-4350120Y2533774D01*
X-4355834Y2522346D01*
X-4361549Y2516632D01*
X-4372977Y2510917D01*
X-4418692Y2510917D01*
X-4298692Y2453774D02*
X-4298692Y2573774D01*
X-4258692Y2488060D01*
X-4218692Y2573774D01*
X-4218692Y2453774D01*
X-4618692Y1671374D02*
X-4675834Y1671374D01*
X-4675834Y1791374D01*
X-4555834Y1791374D02*
X-4532977Y1791374D01*
X-4521549Y1785660D01*
X-4510120Y1774231D01*
X-4504406Y1751374D01*
X-4504406Y1711374D01*
X-4510120Y1688517D01*
X-4521549Y1677089D01*
X-4532977Y1671374D01*
X-4555834Y1671374D01*
X-4567263Y1677089D01*
X-4578692Y1688517D01*
X-4584406Y1711374D01*
X-4584406Y1751374D01*
X-4578692Y1774231D01*
X-4567263Y1785660D01*
X-4555834Y1791374D01*
X-4430120Y1791374D02*
X-4407263Y1791374D01*
X-4395834Y1785660D01*
X-4384406Y1774231D01*
X-4378692Y1751374D01*
X-4378692Y1711374D01*
X-4384406Y1688517D01*
X-4395834Y1677089D01*
X-4407263Y1671374D01*
X-4430120Y1671374D01*
X-4441549Y1677089D01*
X-4452977Y1688517D01*
X-4458692Y1711374D01*
X-4458692Y1751374D01*
X-4452977Y1774231D01*
X-4441549Y1785660D01*
X-4430120Y1791374D01*
X-4327263Y1671374D02*
X-4327263Y1791374D01*
X-4281549Y1791374D01*
X-4270120Y1785660D01*
X-4264406Y1779946D01*
X-4258692Y1768517D01*
X-4258692Y1751374D01*
X-4264406Y1739946D01*
X-4270120Y1734231D01*
X-4281549Y1728517D01*
X-4327263Y1728517D01*
X-4692977Y880174D02*
X-4692977Y1000174D01*
X-4647263Y1000174D01*
X-4635834Y994460D01*
X-4630120Y988746D01*
X-4624406Y977317D01*
X-4624406Y960174D01*
X-4630120Y948746D01*
X-4635834Y943031D01*
X-4647263Y937317D01*
X-4692977Y937317D01*
X-4572977Y1000174D02*
X-4572977Y903031D01*
X-4567263Y891603D01*
X-4561549Y885889D01*
X-4550120Y880174D01*
X-4527263Y880174D01*
X-4515834Y885889D01*
X-4510120Y891603D01*
X-4504406Y903031D01*
X-4504406Y1000174D01*
X-4447263Y880174D02*
X-4447263Y1000174D01*
X-4407263Y914460D01*
X-4367263Y1000174D01*
X-4367263Y880174D01*
X-4310120Y880174D02*
X-4310120Y1000174D01*
X-4264406Y1000174D01*
X-4252977Y994460D01*
X-4247263Y988746D01*
X-4241549Y977317D01*
X-4241549Y960174D01*
X-4247263Y948746D01*
X-4252977Y943031D01*
X-4264406Y937317D01*
X-4310120Y937317D01*
X-4532977Y-676397D02*
X-4538692Y-682111D01*
X-4555834Y-687826D01*
X-4567263Y-687826D01*
X-4584406Y-682111D01*
X-4595834Y-670683D01*
X-4601549Y-659254D01*
X-4607263Y-636397D01*
X-4607263Y-619254D01*
X-4601549Y-596397D01*
X-4595834Y-584969D01*
X-4584406Y-573540D01*
X-4567263Y-567826D01*
X-4555834Y-567826D01*
X-4538692Y-573540D01*
X-4532977Y-579254D01*
X-4487263Y-653540D02*
X-4430120Y-653540D01*
X-4498692Y-687826D02*
X-4458692Y-567826D01*
X-4418692Y-687826D01*
X-4321549Y-687826D02*
X-4378692Y-687826D01*
X-4378692Y-567826D01*
X-4670120Y96374D02*
X-4670120Y216374D01*
X-4624406Y216374D01*
X-4612977Y210660D01*
X-4607263Y204946D01*
X-4601549Y193517D01*
X-4601549Y176374D01*
X-4607263Y164946D01*
X-4612977Y159232D01*
X-4624406Y153517D01*
X-4670120Y153517D01*
X-4550120Y216374D02*
X-4550120Y119231D01*
X-4544406Y107803D01*
X-4538692Y102089D01*
X-4527263Y96374D01*
X-4504406Y96374D01*
X-4492977Y102089D01*
X-4487263Y107803D01*
X-4481549Y119231D01*
X-4481549Y216374D01*
X-4367263Y96374D02*
X-4424406Y96374D01*
X-4424406Y216374D01*
X-4332977Y102089D02*
X-4315834Y96374D01*
X-4287263Y96374D01*
X-4275834Y102089D01*
X-4270120Y107803D01*
X-4264406Y119231D01*
X-4264406Y130660D01*
X-4270120Y142089D01*
X-4275834Y147803D01*
X-4287263Y153517D01*
X-4310120Y159232D01*
X-4321549Y164946D01*
X-4327263Y170660D01*
X-4332977Y182089D01*
X-4332977Y193517D01*
X-4327263Y204946D01*
X-4321549Y210660D01*
X-4310120Y216374D01*
X-4281549Y216374D01*
X-4264406Y210660D01*
X3015143Y-1351310D02*
X3015143Y-1275119D01*
X3053238Y-1313214D02*
X2977048Y-1313214D01*
X3015143Y-1075119D02*
X3015143Y-998928D01*
X3053238Y-746548D02*
X3053238Y-803690D01*
X3053238Y-775119D02*
X2953238Y-775119D01*
X2967524Y-784643D01*
X2977048Y-794167D01*
X2981809Y-803690D01*
X2962762Y-556071D02*
X2958000Y-551310D01*
X2953238Y-541786D01*
X2953238Y-517976D01*
X2958000Y-508452D01*
X2962762Y-503690D01*
X2972286Y-498928D01*
X2981809Y-498928D01*
X2996095Y-503690D01*
X3053238Y-560833D01*
X3053238Y-498928D01*
X3006143Y-2583510D02*
X3006143Y-2507319D01*
X3044238Y-2545414D02*
X2968048Y-2545414D01*
X3006143Y-2307319D02*
X3006143Y-2231129D01*
X2944238Y-2040652D02*
X2944238Y-1978748D01*
X2982333Y-2012081D01*
X2982333Y-1997795D01*
X2987095Y-1988271D01*
X2991857Y-1983509D01*
X3001381Y-1978748D01*
X3025190Y-1978748D01*
X3034714Y-1983509D01*
X3039476Y-1988271D01*
X3044238Y-1997795D01*
X3044238Y-2026367D01*
X3039476Y-2035890D01*
X3034714Y-2040652D01*
X2977571Y-1740652D02*
X3044238Y-1740652D01*
X2939476Y-1764462D02*
X3010905Y-1788271D01*
X3010905Y-1726367D01*
X1483360Y-2143000D02*
X1483360Y-3387000D01*
X-46100Y-2142000D02*
X-46100Y-3386000D01*
X2839681Y-1798990D02*
X2763490Y-1852324D01*
X2839681Y-1890419D02*
X2679681Y-1890419D01*
X2679681Y-1829467D01*
X2687300Y-1814228D01*
X2694919Y-1806609D01*
X2710157Y-1798990D01*
X2733014Y-1798990D01*
X2748252Y-1806609D01*
X2755871Y-1814228D01*
X2763490Y-1829467D01*
X2763490Y-1890419D01*
X2755871Y-1730419D02*
X2755871Y-1677086D01*
X2839681Y-1654228D02*
X2839681Y-1730419D01*
X2679681Y-1730419D01*
X2679681Y-1654228D01*
X2839681Y-1509467D02*
X2839681Y-1585657D01*
X2679681Y-1585657D01*
X2755871Y-1456133D02*
X2755871Y-1402800D01*
X2839681Y-1379943D02*
X2839681Y-1456133D01*
X2679681Y-1456133D01*
X2679681Y-1379943D01*
X2832062Y-1318990D02*
X2839681Y-1296133D01*
X2839681Y-1258038D01*
X2832062Y-1242800D01*
X2824443Y-1235181D01*
X2809205Y-1227562D01*
X2793967Y-1227562D01*
X2778729Y-1235181D01*
X2771110Y-1242800D01*
X2763490Y-1258038D01*
X2755871Y-1288514D01*
X2748252Y-1303752D01*
X2740633Y-1311371D01*
X2725395Y-1318990D01*
X2710157Y-1318990D01*
X2694919Y-1311371D01*
X2687300Y-1303752D01*
X2679681Y-1288514D01*
X2679681Y-1250419D01*
X2687300Y-1227562D01*
X2599049Y2616986D02*
X2620477Y2609843D01*
X2656191Y2609843D01*
X2670477Y2616986D01*
X2677620Y2624129D01*
X2684763Y2638414D01*
X2684763Y2652700D01*
X2677620Y2666986D01*
X2670477Y2674129D01*
X2656191Y2681272D01*
X2627620Y2688414D01*
X2613334Y2695557D01*
X2606191Y2702700D01*
X2599049Y2716986D01*
X2599049Y2731272D01*
X2606191Y2745557D01*
X2613334Y2752700D01*
X2627620Y2759843D01*
X2663334Y2759843D01*
X2684763Y2752700D01*
X2734763Y2759843D02*
X2770477Y2609843D01*
X2799048Y2716986D01*
X2827620Y2609843D01*
X2863334Y2759843D01*
X281529Y2619686D02*
X302957Y2612543D01*
X338671Y2612543D01*
X352957Y2619686D01*
X360100Y2626829D01*
X367243Y2641114D01*
X367243Y2655400D01*
X360100Y2669686D01*
X352957Y2676829D01*
X338671Y2683972D01*
X310100Y2691114D01*
X295814Y2698257D01*
X288671Y2705400D01*
X281529Y2719686D01*
X281529Y2733972D01*
X288671Y2748257D01*
X295814Y2755400D01*
X310100Y2762543D01*
X345814Y2762543D01*
X367243Y2755400D01*
X417243Y2762543D02*
X452957Y2612543D01*
X481528Y2719686D01*
X510100Y2612543D01*
X545814Y2762543D01*
X2599049Y614786D02*
X2620477Y607643D01*
X2656191Y607643D01*
X2670477Y614786D01*
X2677620Y621929D01*
X2684763Y636214D01*
X2684763Y650500D01*
X2677620Y664786D01*
X2670477Y671929D01*
X2656191Y679072D01*
X2627620Y686214D01*
X2613334Y693357D01*
X2606191Y700500D01*
X2599049Y714786D01*
X2599049Y729071D01*
X2606191Y743357D01*
X2613334Y750500D01*
X2627620Y757643D01*
X2663334Y757643D01*
X2684763Y750500D01*
X2734763Y757643D02*
X2770477Y607643D01*
X2799048Y714786D01*
X2827620Y607643D01*
X2863334Y757643D01*
X281529Y614786D02*
X302957Y607643D01*
X338671Y607643D01*
X352957Y614786D01*
X360100Y621929D01*
X367243Y636214D01*
X367243Y650500D01*
X360100Y664786D01*
X352957Y671929D01*
X338671Y679072D01*
X310100Y686214D01*
X295814Y693357D01*
X288671Y700500D01*
X281529Y714786D01*
X281529Y729071D01*
X288671Y743357D01*
X295814Y750500D01*
X310100Y757643D01*
X345814Y757643D01*
X367243Y750500D01*
X417243Y757643D02*
X452957Y607643D01*
X481528Y714786D01*
X510100Y607643D01*
X545814Y757643D01*
X2566100Y-2211000D02*
X2338200Y-2211000D01*
X2566100Y-3387000D02*
X2566100Y-2211000D01*
X-1178400Y-2141200D02*
X-3165000Y-2141200D01*
X-1107472Y-2191571D02*
X-1090329Y-2197286D01*
X-1061757Y-2197286D01*
X-1050329Y-2191571D01*
X-1044614Y-2185857D01*
X-1038900Y-2174429D01*
X-1038900Y-2163000D01*
X-1044614Y-2151571D01*
X-1050329Y-2145857D01*
X-1061757Y-2140143D01*
X-1084614Y-2134429D01*
X-1096043Y-2128714D01*
X-1101757Y-2123000D01*
X-1107472Y-2111571D01*
X-1107472Y-2100143D01*
X-1101757Y-2088714D01*
X-1096043Y-2083000D01*
X-1084614Y-2077286D01*
X-1056043Y-2077286D01*
X-1038900Y-2083000D01*
X-964614Y-2077286D02*
X-941757Y-2077286D01*
X-930329Y-2083000D01*
X-918900Y-2094428D01*
X-913186Y-2117286D01*
X-913186Y-2157286D01*
X-918900Y-2180143D01*
X-930329Y-2191571D01*
X-941757Y-2197286D01*
X-964614Y-2197286D01*
X-976043Y-2191571D01*
X-987471Y-2180143D01*
X-993186Y-2157286D01*
X-993186Y-2117286D01*
X-987471Y-2094428D01*
X-976043Y-2083000D01*
X-964614Y-2077286D01*
X-861757Y-2197286D02*
X-861757Y-2077286D01*
X-793186Y-2197286D01*
X-793186Y-2077286D01*
X-736043Y-2197286D02*
X-736043Y-2077286D01*
X-707471Y-2077286D01*
X-690329Y-2083000D01*
X-678900Y-2094428D01*
X-673186Y-2105857D01*
X-667472Y-2128714D01*
X-667472Y-2145857D01*
X-673186Y-2168714D01*
X-678900Y-2180143D01*
X-690329Y-2191571D01*
X-707471Y-2197286D01*
X-736043Y-2197286D01*
X-621757Y-2163000D02*
X-564614Y-2163000D01*
X-633186Y-2197286D02*
X-593186Y-2077286D01*
X-553186Y-2197286D01*
X-518900Y-2191571D02*
X-501757Y-2197286D01*
X-473186Y-2197286D01*
X-461757Y-2191571D01*
X-456043Y-2185857D01*
X-450329Y-2174429D01*
X-450329Y-2163000D01*
X-456043Y-2151571D01*
X-461757Y-2145857D01*
X-473186Y-2140143D01*
X-496043Y-2134429D01*
X-507471Y-2128714D01*
X-513186Y-2123000D01*
X-518900Y-2111571D01*
X-518900Y-2100143D01*
X-513186Y-2088714D01*
X-507471Y-2083000D01*
X-496043Y-2077286D01*
X-467471Y-2077286D01*
X-450329Y-2083000D01*
X1719586Y-2999900D02*
X1708157Y-2994186D01*
X1691014Y-2994186D01*
X1673871Y-2999900D01*
X1662443Y-3011328D01*
X1656728Y-3022757D01*
X1651014Y-3045614D01*
X1651014Y-3062757D01*
X1656728Y-3085614D01*
X1662443Y-3097043D01*
X1673871Y-3108471D01*
X1691014Y-3114186D01*
X1702443Y-3114186D01*
X1719586Y-3108471D01*
X1725300Y-3102757D01*
X1725300Y-3062757D01*
X1702443Y-3062757D01*
X1776728Y-3114186D02*
X1776728Y-2994186D01*
X1845300Y-3114186D01*
X1845300Y-2994186D01*
X1902443Y-3114186D02*
X1902443Y-2994186D01*
X1931014Y-2994186D01*
X1948157Y-2999900D01*
X1959586Y-3011328D01*
X1965300Y-3022757D01*
X1971014Y-3045614D01*
X1971014Y-3062757D01*
X1965300Y-3085614D01*
X1959586Y-3097043D01*
X1948157Y-3108471D01*
X1931014Y-3114186D01*
X1902443Y-3114186D01*
X2119586Y-3114186D02*
X2142443Y-3114186D01*
X2153871Y-3108471D01*
X2159586Y-3102757D01*
X2171014Y-3085614D01*
X2176729Y-3062757D01*
X2176729Y-3017043D01*
X2171014Y-3005614D01*
X2165300Y-2999900D01*
X2153871Y-2994186D01*
X2131014Y-2994186D01*
X2119586Y-2999900D01*
X2113871Y-3005614D01*
X2108157Y-3017043D01*
X2108157Y-3045614D01*
X2113871Y-3057043D01*
X2119586Y-3062757D01*
X2131014Y-3068471D01*
X2153871Y-3068471D01*
X2165300Y-3062757D01*
X2171014Y-3057043D01*
X2176729Y-3045614D01*
X2211014Y-2994186D02*
X2251014Y-3114186D01*
X2291014Y-2994186D01*
D11*
X4759700Y-2194700D02*
X4179700Y-2194700D01*
X4759700Y-330700D02*
X4759700Y-2194700D01*
X4179700Y-330700D02*
X4759700Y-330700D01*
X4179700Y-2194700D02*
X4179700Y-330700D01*
D13*
X4998980Y3747000D02*
X-4998900Y3747000D01*
D10*
X183228Y1817143D02*
X183228Y1967143D01*
X268943Y1817143D02*
X204657Y1902857D01*
X268943Y1967143D02*
X183228Y1881429D01*
X333229Y1831429D02*
X340371Y1824286D01*
X333229Y1817143D01*
X326086Y1824286D01*
X333229Y1831429D01*
X333229Y1817143D01*
X433228Y1967143D02*
X461800Y1967143D01*
X476086Y1960000D01*
X490371Y1945714D01*
X497514Y1917143D01*
X497514Y1867143D01*
X490371Y1838571D01*
X476086Y1824286D01*
X461800Y1817143D01*
X433228Y1817143D01*
X418943Y1824286D01*
X404657Y1838571D01*
X397514Y1867143D01*
X397514Y1917143D01*
X404657Y1945714D01*
X418943Y1960000D01*
X433228Y1967143D01*
X561800Y1817143D02*
X561800Y1967143D01*
X647514Y1817143D02*
X583229Y1902857D01*
X647514Y1967143D02*
X561800Y1881429D01*
X-1832729Y-872071D02*
X-1766062Y-872071D01*
X-1870824Y-895881D02*
X-1799395Y-919690D01*
X-1799395Y-857786D01*
X-1766062Y-819690D02*
X-1866062Y-819690D01*
X-1766062Y-762548D02*
X-1823205Y-805405D01*
X-1866062Y-762548D02*
X-1808919Y-819690D01*
X-1866062Y-729214D02*
X-1866062Y-662548D01*
X-1766062Y-705405D01*
D13*
X4999100Y-3746890D02*
X4998980Y3747000D01*
X-4998780Y-3746890D02*
X4999100Y-3746890D01*
X-4998780Y-3746890D02*
X-4998900Y3747000D01*
D14*
X4329771Y-1600367D02*
X4329771Y-1653700D01*
X4413581Y-1653700D02*
X4253581Y-1653700D01*
X4253581Y-1577509D01*
X4413581Y-1425128D02*
X4337390Y-1478462D01*
X4413581Y-1516557D02*
X4253581Y-1516557D01*
X4253581Y-1455605D01*
X4261200Y-1440367D01*
X4268819Y-1432748D01*
X4284057Y-1425128D01*
X4306914Y-1425128D01*
X4322152Y-1432748D01*
X4329771Y-1440367D01*
X4337390Y-1455605D01*
X4337390Y-1516557D01*
X4329771Y-1356557D02*
X4329771Y-1303224D01*
X4413581Y-1280367D02*
X4413581Y-1356557D01*
X4253581Y-1356557D01*
X4253581Y-1280367D01*
X4413581Y-1211795D02*
X4253581Y-1211795D01*
X4413581Y-1120367D01*
X4253581Y-1120367D01*
X4253581Y-1067033D02*
X4253581Y-975605D01*
X4413581Y-1021319D02*
X4253581Y-1021319D01*
X4329771Y-922271D02*
X4329771Y-868938D01*
X4413581Y-846081D02*
X4413581Y-922271D01*
X4253581Y-922271D01*
X4253581Y-846081D01*
X4678581Y-1764176D02*
X4518581Y-1764176D01*
X4678581Y-1687986D02*
X4518581Y-1687986D01*
X4678581Y-1596557D01*
X4518581Y-1596557D01*
X4518581Y-1543224D02*
X4518581Y-1451795D01*
X4678581Y-1497509D02*
X4518581Y-1497509D01*
X4594771Y-1398462D02*
X4594771Y-1345129D01*
X4678581Y-1322271D02*
X4678581Y-1398462D01*
X4518581Y-1398462D01*
X4518581Y-1322271D01*
X4678581Y-1162271D02*
X4602390Y-1215605D01*
X4678581Y-1253700D02*
X4518581Y-1253700D01*
X4518581Y-1192748D01*
X4526200Y-1177510D01*
X4533819Y-1169890D01*
X4549057Y-1162271D01*
X4571914Y-1162271D01*
X4587152Y-1169890D01*
X4594771Y-1177510D01*
X4602390Y-1192748D01*
X4602390Y-1253700D01*
X4594771Y-1040367D02*
X4594771Y-1093700D01*
X4678581Y-1093700D02*
X4518581Y-1093700D01*
X4518581Y-1017509D01*
X4632867Y-964176D02*
X4632867Y-887986D01*
X4678581Y-979414D02*
X4518581Y-926081D01*
X4678581Y-872748D01*
X4518581Y-834652D02*
X4518581Y-727986D01*
X4678581Y-834652D01*
X4678581Y-727986D01*
D10*
X2304282Y1389695D02*
X2304282Y1559695D01*
X2401425Y1389695D02*
X2328568Y1486838D01*
X2401425Y1559695D02*
X2304282Y1462552D01*
X2474282Y1405886D02*
X2482377Y1397791D01*
X2474282Y1389695D01*
X2466187Y1397791D01*
X2474282Y1405886D01*
X2474282Y1389695D01*
X2555234Y1389695D02*
X2555234Y1559695D01*
X2595710Y1559695D01*
X2619996Y1551600D01*
X2636187Y1535410D01*
X2644282Y1519219D01*
X2652377Y1486838D01*
X2652377Y1462552D01*
X2644282Y1430171D01*
X2636187Y1413981D01*
X2619996Y1397791D01*
X2595710Y1389695D01*
X2555234Y1389695D01*
X2757615Y1559695D02*
X2789996Y1559695D01*
X2806187Y1551600D01*
X2822377Y1535410D01*
X2830472Y1503029D01*
X2830472Y1446362D01*
X2822377Y1413981D01*
X2806187Y1397791D01*
X2789996Y1389695D01*
X2757615Y1389695D01*
X2741425Y1397791D01*
X2725234Y1413981D01*
X2717139Y1446362D01*
X2717139Y1503029D01*
X2725234Y1535410D01*
X2741425Y1551600D01*
X2757615Y1559695D01*
X2887139Y1559695D02*
X2927615Y1389695D01*
X2959996Y1511124D01*
X2992377Y1389695D01*
X3032853Y1559695D01*
X3097615Y1389695D02*
X3097615Y1559695D01*
X3194758Y1389695D01*
X3194758Y1559695D01*
X-1057Y1389695D02*
X-1057Y1559695D01*
X96086Y1389695D02*
X23228Y1486838D01*
X96086Y1559695D02*
X-1057Y1462552D01*
X168943Y1405886D02*
X177038Y1397791D01*
X168943Y1389695D01*
X160848Y1397791D01*
X168943Y1405886D01*
X168943Y1389695D01*
X306562Y1478743D02*
X330848Y1470648D01*
X338943Y1462552D01*
X347038Y1446362D01*
X347038Y1422076D01*
X338943Y1405886D01*
X330848Y1397791D01*
X314657Y1389695D01*
X249895Y1389695D01*
X249895Y1559695D01*
X306562Y1559695D01*
X322752Y1551600D01*
X330848Y1543505D01*
X338943Y1527314D01*
X338943Y1511124D01*
X330848Y1494933D01*
X322752Y1486838D01*
X306562Y1478743D01*
X249895Y1478743D01*
X411800Y1438267D02*
X492752Y1438267D01*
X395609Y1389695D02*
X452276Y1559695D01*
X508943Y1389695D01*
X662752Y1405886D02*
X654657Y1397791D01*
X630371Y1389695D01*
X614181Y1389695D01*
X589895Y1397791D01*
X573705Y1413981D01*
X565610Y1430171D01*
X557514Y1462552D01*
X557514Y1486838D01*
X565610Y1519219D01*
X573705Y1535410D01*
X589895Y1551600D01*
X614181Y1559695D01*
X630371Y1559695D01*
X654657Y1551600D01*
X662752Y1543505D01*
X735609Y1389695D02*
X735609Y1559695D01*
X832752Y1389695D02*
X759895Y1486838D01*
X832752Y1559695D02*
X735609Y1462552D01*
X2520949Y1817143D02*
X2520949Y1967143D01*
X2606663Y1817143D02*
X2542377Y1902857D01*
X2606663Y1967143D02*
X2520949Y1881429D01*
X2670949Y1831429D02*
X2678091Y1824286D01*
X2670949Y1817143D01*
X2663806Y1824286D01*
X2670949Y1831429D01*
X2670949Y1817143D01*
X2742377Y1967143D02*
X2742377Y1845714D01*
X2749520Y1831429D01*
X2756663Y1824286D01*
X2770949Y1817143D01*
X2799520Y1817143D01*
X2813806Y1824286D01*
X2820948Y1831429D01*
X2828091Y1845714D01*
X2828091Y1967143D01*
X2899520Y1817143D02*
X2899520Y1967143D01*
X2956663Y1967143D01*
X2970948Y1960000D01*
X2978091Y1952857D01*
X2985234Y1938571D01*
X2985234Y1917143D01*
X2978091Y1902857D01*
X2970948Y1895714D01*
X2956663Y1888571D01*
X2899520Y1888571D01*
X-1019829Y-1358100D02*
X-1031257Y-1352386D01*
X-1048400Y-1352386D01*
X-1065543Y-1358100D01*
X-1076972Y-1369529D01*
X-1082686Y-1380957D01*
X-1088400Y-1403814D01*
X-1088400Y-1420957D01*
X-1082686Y-1443814D01*
X-1076972Y-1455243D01*
X-1065543Y-1466671D01*
X-1048400Y-1472386D01*
X-1036971Y-1472386D01*
X-1019829Y-1466671D01*
X-1014114Y-1460957D01*
X-1014114Y-1420957D01*
X-1036971Y-1420957D01*
X-962686Y-1472386D02*
X-962686Y-1352386D01*
X-894114Y-1472386D01*
X-894114Y-1352386D01*
X-836971Y-1472386D02*
X-836971Y-1352386D01*
X-808400Y-1352386D01*
X-791257Y-1358100D01*
X-779829Y-1369529D01*
X-774114Y-1380957D01*
X-768400Y-1403814D01*
X-768400Y-1420957D01*
X-774114Y-1443814D01*
X-779829Y-1455243D01*
X-791257Y-1466671D01*
X-808400Y-1472386D01*
X-836971Y-1472386D01*
X-1101100Y-844386D02*
X-1061100Y-964386D01*
X-1021100Y-844386D01*
X-912529Y-952957D02*
X-918243Y-958671D01*
X-935386Y-964386D01*
X-946814Y-964386D01*
X-963957Y-958671D01*
X-975386Y-947243D01*
X-981100Y-935814D01*
X-986814Y-912957D01*
X-986814Y-895814D01*
X-981100Y-872957D01*
X-975386Y-861528D01*
X-963957Y-850100D01*
X-946814Y-844386D01*
X-935386Y-844386D01*
X-918243Y-850100D01*
X-912529Y-855814D01*
X-792529Y-952957D02*
X-798243Y-958671D01*
X-815386Y-964386D01*
X-826814Y-964386D01*
X-843957Y-958671D01*
X-855386Y-947243D01*
X-861100Y-935814D01*
X-866814Y-912957D01*
X-866814Y-895814D01*
X-861100Y-872957D01*
X-855386Y-861528D01*
X-843957Y-850100D01*
X-826814Y-844386D01*
X-815386Y-844386D01*
X-798243Y-850100D01*
X-792529Y-855814D01*
D15*
%TO.C,R_L_C_R1*%
X-3860540Y-1448606D02*
X-3860540Y-1303194D01*
X-3678540Y-1448606D02*
X-3678540Y-1303194D01*
%TO.C,R_TEMP1*%
X-2267266Y-701480D02*
X-2121854Y-701480D01*
X-2267266Y-883480D02*
X-2121854Y-883480D01*
%TO.C,R_D1*%
X-2240086Y212920D02*
X-2094674Y212920D01*
X-2240086Y30920D02*
X-2094674Y30920D01*
%TO.C,R_BK1*%
X-2240086Y568520D02*
X-2094674Y568520D01*
X-2240086Y386520D02*
X-2094674Y386520D01*
%TO.C,R_U1*%
X-2240086Y924120D02*
X-2094674Y924120D01*
X-2240086Y742120D02*
X-2094674Y742120D01*
%TO.C,R_OK1*%
X-2240086Y1274640D02*
X-2094674Y1274640D01*
X-2240086Y1092640D02*
X-2094674Y1092640D01*
%TO.C,LED_REFRIGERADOR1*%
X-4298030Y-1546760D02*
X-4686530Y-1546760D01*
X-4686530Y-1546760D02*
X-4686530Y-1773760D01*
X-4686530Y-1773760D02*
X-4298030Y-1773760D01*
%TO.C,LED_CALENTADOR1*%
X-4298030Y-759760D02*
X-4686530Y-759760D01*
X-4686530Y-759760D02*
X-4686530Y-986760D01*
X-4686530Y-986760D02*
X-4298030Y-986760D01*
%TO.C,LED_PUMP_PULS1*%
X-4298030Y27640D02*
X-4686530Y27640D01*
X-4686530Y27640D02*
X-4686530Y-199360D01*
X-4686530Y-199360D02*
X-4298030Y-199360D01*
%TO.C,LED_PUMP1*%
X-4298030Y815040D02*
X-4686530Y815040D01*
X-4686530Y815040D02*
X-4686530Y588040D01*
X-4686530Y588040D02*
X-4298030Y588040D01*
%TO.C,LED_LOOP1*%
X-4298030Y1602440D02*
X-4686530Y1602440D01*
X-4686530Y1602440D02*
X-4686530Y1375440D01*
X-4686530Y1375440D02*
X-4298030Y1375440D01*
%TO.C,LED_ALARMA1*%
X-4686530Y2162840D02*
X-4298030Y2162840D01*
X-4686530Y2389840D02*
X-4686530Y2162840D01*
X-4298030Y2389840D02*
X-4686530Y2389840D01*
%TO.C,R_L_C1*%
X-3858930Y-806106D02*
X-3858930Y-660694D01*
X-3676930Y-806106D02*
X-3676930Y-660694D01*
%TO.C,R_L_P1*%
X-3856130Y-59706D02*
X-3856130Y85706D01*
X-3674130Y-59706D02*
X-3674130Y85706D01*
%TO.C,R_L_B1*%
X-3674130Y831706D02*
X-3674130Y686294D01*
X-3856130Y831706D02*
X-3856130Y686294D01*
%TO.C,R_L_W1*%
X-3856130Y1562646D02*
X-3856130Y1417234D01*
X-3674130Y1562646D02*
X-3674130Y1417234D01*
%TO.C,R_L_A1*%
X-3856130Y2350046D02*
X-3856130Y2204634D01*
X-3674130Y2350046D02*
X-3674130Y2204634D01*
%TO.C,SW_OK1*%
X-203800Y3296700D02*
X1026200Y3296700D01*
X1026200Y2838700D02*
X1026200Y2524700D01*
X1026200Y2066700D02*
X-203800Y2066700D01*
X-203800Y3024700D02*
X-203800Y3296700D01*
X879105Y2677700D02*
G75*
G03*
X879105Y2677700I-457905J0D01*
G01*
X-203800Y2066700D02*
X-203800Y2338700D01*
X-203800Y2524700D02*
X-203800Y2838700D01*
X1026200Y2338700D02*
X1026200Y2066700D01*
X1026200Y3296700D02*
X1026200Y3024700D01*
%TO.C,SW_D1*%
X3359020Y1296480D02*
X3359020Y1024480D01*
X3359020Y338480D02*
X3359020Y66480D01*
X2129020Y524480D02*
X2129020Y838480D01*
X2129020Y66480D02*
X2129020Y338480D01*
X3211925Y677480D02*
G75*
G03*
X3211925Y677480I-457905J0D01*
G01*
X2129020Y1024480D02*
X2129020Y1296480D01*
X3359020Y66480D02*
X2129020Y66480D01*
X3359020Y838480D02*
X3359020Y524480D01*
X2129020Y1296480D02*
X3359020Y1296480D01*
%TO.C,SW_BK1*%
X1026200Y1296480D02*
X1026200Y1024480D01*
X1026200Y338480D02*
X1026200Y66480D01*
X-203800Y524480D02*
X-203800Y838480D01*
X-203800Y66480D02*
X-203800Y338480D01*
X879105Y677480D02*
G75*
G03*
X879105Y677480I-457905J0D01*
G01*
X-203800Y1024480D02*
X-203800Y1296480D01*
X1026200Y66480D02*
X-203800Y66480D01*
X1026200Y838480D02*
X1026200Y524480D01*
X-203800Y1296480D02*
X1026200Y1296480D01*
%TO.C,SW_U1*%
X2129020Y3296700D02*
X3359020Y3296700D01*
X3359020Y2838700D02*
X3359020Y2524700D01*
X3359020Y2066700D02*
X2129020Y2066700D01*
X2129020Y3024700D02*
X2129020Y3296700D01*
X3211925Y2677700D02*
G75*
G03*
X3211925Y2677700I-457905J0D01*
G01*
X2129020Y2066700D02*
X2129020Y2338700D01*
X2129020Y2524700D02*
X2129020Y2838700D01*
X3359020Y2338700D02*
X3359020Y2066700D01*
X3359020Y3296700D02*
X3359020Y3024700D01*
%TD*%
%TO.C,R_L_C_R1*%
D10*
X-4070016Y-1504271D02*
X-4075730Y-1498557D01*
X-4081444Y-1487128D01*
X-4081444Y-1458557D01*
X-4075730Y-1447128D01*
X-4070016Y-1441414D01*
X-4058587Y-1435700D01*
X-4047159Y-1435700D01*
X-4030016Y-1441414D01*
X-3961444Y-1509986D01*
X-3961444Y-1435700D01*
X-4081444Y-1327129D02*
X-4081444Y-1384271D01*
X-4024301Y-1389986D01*
X-4030016Y-1384271D01*
X-4035730Y-1372843D01*
X-4035730Y-1344271D01*
X-4030016Y-1332843D01*
X-4024301Y-1327129D01*
X-4012873Y-1321414D01*
X-3984301Y-1321414D01*
X-3972873Y-1327129D01*
X-3967159Y-1332843D01*
X-3961444Y-1344271D01*
X-3961444Y-1372843D01*
X-3967159Y-1384271D01*
X-3972873Y-1389986D01*
X-4081444Y-1212843D02*
X-4081444Y-1269986D01*
X-4024301Y-1275700D01*
X-4030016Y-1269986D01*
X-4035730Y-1258557D01*
X-4035730Y-1229986D01*
X-4030016Y-1218557D01*
X-4024301Y-1212843D01*
X-4012873Y-1207129D01*
X-3984301Y-1207129D01*
X-3972873Y-1212843D01*
X-3967159Y-1218557D01*
X-3961444Y-1229986D01*
X-3961444Y-1258557D01*
X-3967159Y-1269986D01*
X-3972873Y-1275700D01*
%TO.C,R_L_C1*%
X-4070016Y-858971D02*
X-4075730Y-853257D01*
X-4081444Y-841828D01*
X-4081444Y-813257D01*
X-4075730Y-801828D01*
X-4070016Y-796114D01*
X-4058587Y-790400D01*
X-4047159Y-790400D01*
X-4030016Y-796114D01*
X-3961444Y-864686D01*
X-3961444Y-790400D01*
X-4081444Y-681829D02*
X-4081444Y-738971D01*
X-4024301Y-744686D01*
X-4030016Y-738971D01*
X-4035730Y-727543D01*
X-4035730Y-698971D01*
X-4030016Y-687543D01*
X-4024301Y-681829D01*
X-4012873Y-676114D01*
X-3984301Y-676114D01*
X-3972873Y-681829D01*
X-3967159Y-687543D01*
X-3961444Y-698971D01*
X-3961444Y-727543D01*
X-3967159Y-738971D01*
X-3972873Y-744686D01*
X-4081444Y-567543D02*
X-4081444Y-624686D01*
X-4024301Y-630400D01*
X-4030016Y-624686D01*
X-4035730Y-613257D01*
X-4035730Y-584686D01*
X-4030016Y-573257D01*
X-4024301Y-567543D01*
X-4012873Y-561829D01*
X-3984301Y-561829D01*
X-3972873Y-567543D01*
X-3967159Y-573257D01*
X-3961444Y-584686D01*
X-3961444Y-613257D01*
X-3967159Y-624686D01*
X-3972873Y-630400D01*
%TO.C,R_L_P1*%
X-4047626Y-104611D02*
X-4053340Y-98897D01*
X-4059054Y-87468D01*
X-4059054Y-58897D01*
X-4053340Y-47468D01*
X-4047626Y-41754D01*
X-4036197Y-36040D01*
X-4024769Y-36040D01*
X-4007626Y-41754D01*
X-3939054Y-110326D01*
X-3939054Y-36040D01*
X-4059054Y72532D02*
X-4059054Y15389D01*
X-4001911Y9674D01*
X-4007626Y15389D01*
X-4013340Y26817D01*
X-4013340Y55389D01*
X-4007626Y66817D01*
X-4001911Y72532D01*
X-3990483Y78246D01*
X-3961911Y78246D01*
X-3950483Y72532D01*
X-3944769Y66817D01*
X-3939054Y55389D01*
X-3939054Y26817D01*
X-3944769Y15389D01*
X-3950483Y9674D01*
X-4059054Y186817D02*
X-4059054Y129674D01*
X-4001911Y123960D01*
X-4007626Y129674D01*
X-4013340Y141103D01*
X-4013340Y169674D01*
X-4007626Y181103D01*
X-4001911Y186817D01*
X-3990483Y192531D01*
X-3961911Y192531D01*
X-3950483Y186817D01*
X-3944769Y181103D01*
X-3939054Y169674D01*
X-3939054Y141103D01*
X-3944769Y129674D01*
X-3950483Y123960D01*
%TO.C,R_L_B1*%
X-4047626Y641389D02*
X-4053340Y647103D01*
X-4059054Y658532D01*
X-4059054Y687103D01*
X-4053340Y698532D01*
X-4047626Y704246D01*
X-4036197Y709960D01*
X-4024769Y709960D01*
X-4007626Y704246D01*
X-3939054Y635674D01*
X-3939054Y709960D01*
X-4059054Y818531D02*
X-4059054Y761389D01*
X-4001911Y755674D01*
X-4007626Y761389D01*
X-4013340Y772817D01*
X-4013340Y801389D01*
X-4007626Y812817D01*
X-4001911Y818531D01*
X-3990483Y824246D01*
X-3961911Y824246D01*
X-3950483Y818531D01*
X-3944769Y812817D01*
X-3939054Y801389D01*
X-3939054Y772817D01*
X-3944769Y761389D01*
X-3950483Y755674D01*
X-4059054Y932817D02*
X-4059054Y875674D01*
X-4001911Y869960D01*
X-4007626Y875674D01*
X-4013340Y887103D01*
X-4013340Y915674D01*
X-4007626Y927103D01*
X-4001911Y932817D01*
X-3990483Y938531D01*
X-3961911Y938531D01*
X-3950483Y932817D01*
X-3944769Y927103D01*
X-3939054Y915674D01*
X-3939054Y887103D01*
X-3944769Y875674D01*
X-3950483Y869960D01*
%TO.C,R_L_W1*%
X-4047626Y1372329D02*
X-4053340Y1378043D01*
X-4059054Y1389472D01*
X-4059054Y1418043D01*
X-4053340Y1429471D01*
X-4047626Y1435186D01*
X-4036197Y1440900D01*
X-4024769Y1440900D01*
X-4007626Y1435186D01*
X-3939054Y1366614D01*
X-3939054Y1440900D01*
X-4059054Y1549471D02*
X-4059054Y1492329D01*
X-4001911Y1486614D01*
X-4007626Y1492329D01*
X-4013340Y1503757D01*
X-4013340Y1532329D01*
X-4007626Y1543757D01*
X-4001911Y1549471D01*
X-3990483Y1555186D01*
X-3961911Y1555186D01*
X-3950483Y1549471D01*
X-3944769Y1543757D01*
X-3939054Y1532329D01*
X-3939054Y1503757D01*
X-3944769Y1492329D01*
X-3950483Y1486614D01*
X-4059054Y1663757D02*
X-4059054Y1606614D01*
X-4001911Y1600900D01*
X-4007626Y1606614D01*
X-4013340Y1618043D01*
X-4013340Y1646614D01*
X-4007626Y1658043D01*
X-4001911Y1663757D01*
X-3990483Y1669471D01*
X-3961911Y1669471D01*
X-3950483Y1663757D01*
X-3944769Y1658043D01*
X-3939054Y1646614D01*
X-3939054Y1618043D01*
X-3944769Y1606614D01*
X-3950483Y1600900D01*
%TO.C,R_L_A1*%
X-4058626Y2136729D02*
X-4064340Y2142443D01*
X-4070054Y2153872D01*
X-4070054Y2182443D01*
X-4064340Y2193872D01*
X-4058626Y2199586D01*
X-4047197Y2205300D01*
X-4035769Y2205300D01*
X-4018626Y2199586D01*
X-3950054Y2131014D01*
X-3950054Y2205300D01*
X-4070054Y2313872D02*
X-4070054Y2256729D01*
X-4012911Y2251014D01*
X-4018626Y2256729D01*
X-4024340Y2268157D01*
X-4024340Y2296729D01*
X-4018626Y2308157D01*
X-4012911Y2313872D01*
X-4001483Y2319586D01*
X-3972911Y2319586D01*
X-3961483Y2313872D01*
X-3955769Y2308157D01*
X-3950054Y2296729D01*
X-3950054Y2268157D01*
X-3955769Y2256729D01*
X-3961483Y2251014D01*
X-4070054Y2428157D02*
X-4070054Y2371014D01*
X-4012911Y2365300D01*
X-4018626Y2371014D01*
X-4024340Y2382443D01*
X-4024340Y2411014D01*
X-4018626Y2422443D01*
X-4012911Y2428157D01*
X-4001483Y2433872D01*
X-3972911Y2433872D01*
X-3961483Y2428157D01*
X-3955769Y2422443D01*
X-3950054Y2411014D01*
X-3950054Y2382443D01*
X-3955769Y2371014D01*
X-3961483Y2365300D01*
%TD*%
M02*
