%TF.GenerationSoftware,KiCad,Pcbnew,5.1.10*%
%TF.CreationDate,2021-09-02T20:29:26+02:00*%
%TF.ProjectId,Termostato-Diferencial-Mini,5465726d-6f73-4746-9174-6f2d44696665,rev?*%
%TF.SameCoordinates,PX9e11d20PY4c6afd0*%
%TF.FileFunction,Legend,Bot*%
%TF.FilePolarity,Positive*%
%FSLAX45Y45*%
G04 Gerber Fmt 4.5, Leading zero omitted, Abs format (unit mm)*
G04 Created by KiCad (PCBNEW 5.1.10) date 2021-09-02 20:29:26*
%MOMM*%
%LPD*%
G01*
G04 APERTURE LIST*
%ADD10C,0.100000*%
%ADD11C,0.150000*%
%ADD12C,0.050000*%
%ADD13C,0.300000*%
%TA.AperFunction,Profile*%
%ADD14C,0.200000*%
%TD*%
%ADD15C,0.250000*%
%ADD16C,0.120000*%
G04 APERTURE END LIST*
D10*
X2618200Y-3047920D02*
X-3096800Y-3047920D01*
D11*
X-675100Y-1258000D02*
X-675100Y-1562800D01*
X-675100Y-1562000D02*
X-1195800Y-1562000D01*
X-1195800Y-1562800D02*
X-1195800Y-1258000D01*
X-1195800Y-1258000D02*
X-675100Y-1258000D01*
X-1195800Y-1054800D02*
X-1195800Y-750000D01*
X-1195500Y-750000D02*
X-674800Y-750000D01*
X-674800Y-749200D02*
X-674800Y-1054000D01*
X-674800Y-1054000D02*
X-1195500Y-1054000D01*
X-3379800Y-1090000D02*
X-3154800Y-1090000D01*
X-3154800Y-1090000D02*
X-3154800Y-1559000D01*
X-3154800Y-1559000D02*
X-3379800Y-1559000D01*
X-3379800Y-1559000D02*
X-3379800Y-1090000D01*
X-1883700Y1570300D02*
X-1787400Y1645700D01*
X-1883700Y1570300D02*
X-1883700Y1693500D01*
X-1701100Y2002000D02*
X-1883700Y1570300D01*
D10*
X2301057Y-3353186D02*
X2278200Y-3353186D01*
X2266771Y-3347471D01*
X2261057Y-3341757D01*
X2249629Y-3324614D01*
X2243914Y-3301757D01*
X2243914Y-3256043D01*
X2249629Y-3244614D01*
X2255343Y-3238900D01*
X2266771Y-3233186D01*
X2289629Y-3233186D01*
X2301057Y-3238900D01*
X2306771Y-3244614D01*
X2312486Y-3256043D01*
X2312486Y-3284614D01*
X2306771Y-3296043D01*
X2301057Y-3301757D01*
X2289629Y-3307471D01*
X2266771Y-3307471D01*
X2255343Y-3301757D01*
X2249629Y-3296043D01*
X2243914Y-3284614D01*
X2209629Y-3233186D02*
X2169629Y-3353186D01*
X2129629Y-3233186D01*
X1935343Y-3238900D02*
X1946771Y-3233186D01*
X1963914Y-3233186D01*
X1981057Y-3238900D01*
X1992486Y-3250328D01*
X1998200Y-3261757D01*
X2003914Y-3284614D01*
X2003914Y-3301757D01*
X1998200Y-3324614D01*
X1992486Y-3336043D01*
X1981057Y-3347471D01*
X1963914Y-3353186D01*
X1952486Y-3353186D01*
X1935343Y-3347471D01*
X1929628Y-3341757D01*
X1929628Y-3301757D01*
X1952486Y-3301757D01*
X1878200Y-3353186D02*
X1878200Y-3233186D01*
X1809628Y-3353186D01*
X1809628Y-3233186D01*
X1752486Y-3353186D02*
X1752486Y-3233186D01*
X1723914Y-3233186D01*
X1706771Y-3238900D01*
X1695343Y-3250328D01*
X1689628Y-3261757D01*
X1683914Y-3284614D01*
X1683914Y-3301757D01*
X1689628Y-3324614D01*
X1695343Y-3336043D01*
X1706771Y-3347471D01*
X1723914Y-3353186D01*
X1752486Y-3353186D01*
X2962762Y-498928D02*
X2958000Y-503690D01*
X2953238Y-513214D01*
X2953238Y-537024D01*
X2958000Y-546548D01*
X2962762Y-551310D01*
X2972286Y-556071D01*
X2981809Y-556071D01*
X2996095Y-551310D01*
X3053238Y-494167D01*
X3053238Y-556071D01*
X3053238Y-803690D02*
X3053238Y-746548D01*
X3053238Y-775119D02*
X2953238Y-775119D01*
X2967524Y-765595D01*
X2977048Y-756071D01*
X2981809Y-746548D01*
X3015143Y-998928D02*
X3015143Y-1075119D01*
X3015143Y-1275119D02*
X3015143Y-1351310D01*
X3053238Y-1313214D02*
X2977048Y-1313214D01*
X2977571Y-1778748D02*
X3044238Y-1778748D01*
X2939476Y-1754938D02*
X3010905Y-1731128D01*
X3010905Y-1793033D01*
X2944238Y-1973986D02*
X2944238Y-2035890D01*
X2982333Y-2002557D01*
X2982333Y-2016843D01*
X2987095Y-2026367D01*
X2991857Y-2031128D01*
X3001381Y-2035890D01*
X3025190Y-2035890D01*
X3034714Y-2031128D01*
X3039476Y-2026367D01*
X3044238Y-2016843D01*
X3044238Y-1988271D01*
X3039476Y-1978748D01*
X3034714Y-1973986D01*
X3006143Y-2231129D02*
X3006143Y-2307319D01*
X3006143Y-2507319D02*
X3006143Y-2583510D01*
X3044238Y-2545414D02*
X2968048Y-2545414D01*
D12*
X5000Y0D02*
G75*
G03*
X5000Y0I-5000J0D01*
G01*
D10*
X-3735371Y-1340714D02*
X-3753943Y-1346905D01*
X-3760133Y-1353095D01*
X-3766324Y-1365476D01*
X-3766324Y-1384048D01*
X-3760133Y-1396429D01*
X-3753943Y-1402619D01*
X-3741562Y-1408809D01*
X-3692038Y-1408809D01*
X-3692038Y-1278810D01*
X-3735371Y-1278810D01*
X-3747752Y-1285000D01*
X-3753943Y-1291190D01*
X-3760133Y-1303571D01*
X-3760133Y-1315952D01*
X-3753943Y-1328333D01*
X-3747752Y-1334524D01*
X-3735371Y-1340714D01*
X-3692038Y-1340714D01*
X-3822038Y-1278810D02*
X-3822038Y-1384048D01*
X-3828229Y-1396429D01*
X-3834419Y-1402619D01*
X-3846800Y-1408809D01*
X-3871562Y-1408809D01*
X-3883943Y-1402619D01*
X-3890133Y-1396429D01*
X-3896324Y-1384048D01*
X-3896324Y-1278810D01*
X-3945848Y-1278810D02*
X-4032514Y-1278810D01*
X-3945848Y-1408809D01*
X-4032514Y-1408809D01*
X-4069657Y-1278810D02*
X-4156324Y-1278810D01*
X-4069657Y-1408809D01*
X-4156324Y-1408809D01*
X-4205848Y-1340714D02*
X-4249181Y-1340714D01*
X-4267752Y-1408809D02*
X-4205848Y-1408809D01*
X-4205848Y-1278810D01*
X-4267752Y-1278810D01*
X-4397752Y-1408809D02*
X-4354419Y-1346905D01*
X-4323467Y-1408809D02*
X-4323467Y-1278810D01*
X-4372991Y-1278810D01*
X-4385372Y-1285000D01*
X-4391562Y-1291190D01*
X-4397752Y-1303571D01*
X-4397752Y-1322143D01*
X-4391562Y-1334524D01*
X-4385372Y-1340714D01*
X-4372991Y-1346905D01*
X-4323467Y-1346905D01*
X-3573610Y-2365286D02*
X-3725990Y-2365286D01*
X-3649800Y-2441476D02*
X-3649800Y-2289095D01*
X-4326610Y-2300000D02*
X-4317086Y-2295238D01*
X-4302800Y-2295238D01*
X-4288514Y-2300000D01*
X-4278991Y-2309524D01*
X-4274229Y-2319048D01*
X-4269467Y-2338095D01*
X-4269467Y-2352381D01*
X-4274229Y-2371429D01*
X-4278991Y-2380952D01*
X-4288514Y-2390476D01*
X-4302800Y-2395238D01*
X-4312324Y-2395238D01*
X-4326610Y-2390476D01*
X-4331372Y-2385714D01*
X-4331372Y-2352381D01*
X-4312324Y-2352381D01*
X-4374229Y-2395238D02*
X-4374229Y-2295238D01*
X-4431372Y-2395238D01*
X-4431372Y-2295238D01*
X-4478991Y-2395238D02*
X-4478991Y-2295238D01*
X-4502800Y-2295238D01*
X-4517086Y-2300000D01*
X-4526610Y-2309524D01*
X-4531372Y-2319048D01*
X-4536133Y-2338095D01*
X-4536133Y-2352381D01*
X-4531372Y-2371429D01*
X-4526610Y-2380952D01*
X-4517086Y-2390476D01*
X-4502800Y-2395238D01*
X-4478991Y-2395238D01*
D11*
X-3256800Y-902400D02*
X-3143500Y-902400D01*
X-3256800Y-1088000D02*
X-3256800Y-902400D01*
D10*
X-3310900Y-1228171D02*
X-3316614Y-1216743D01*
X-3316614Y-1199600D01*
X-3310900Y-1182457D01*
X-3299471Y-1171029D01*
X-3288043Y-1165314D01*
X-3265186Y-1159600D01*
X-3248043Y-1159600D01*
X-3225186Y-1165314D01*
X-3213757Y-1171029D01*
X-3202329Y-1182457D01*
X-3196614Y-1199600D01*
X-3196614Y-1211029D01*
X-3202329Y-1228171D01*
X-3208043Y-1233886D01*
X-3248043Y-1233886D01*
X-3248043Y-1211029D01*
X-3196614Y-1285314D02*
X-3316614Y-1285314D01*
X-3196614Y-1353886D01*
X-3316614Y-1353886D01*
X-3196614Y-1411028D02*
X-3316614Y-1411028D01*
X-3316614Y-1439600D01*
X-3310900Y-1456743D01*
X-3299471Y-1468171D01*
X-3288043Y-1473886D01*
X-3265186Y-1479600D01*
X-3248043Y-1479600D01*
X-3225186Y-1473886D01*
X-3213757Y-1468171D01*
X-3202329Y-1456743D01*
X-3196614Y-1439600D01*
X-3196614Y-1411028D01*
X2932400Y-1556800D02*
X3903800Y-1556800D01*
X2618200Y-3554000D02*
X2618200Y-3047920D01*
X-1669443Y-3233186D02*
X-1709443Y-3353186D01*
X-1749443Y-3233186D01*
X-1858014Y-3341757D02*
X-1852300Y-3347471D01*
X-1835157Y-3353186D01*
X-1823729Y-3353186D01*
X-1806586Y-3347471D01*
X-1795157Y-3336043D01*
X-1789443Y-3324614D01*
X-1783729Y-3301757D01*
X-1783729Y-3284614D01*
X-1789443Y-3261757D01*
X-1795157Y-3250328D01*
X-1806586Y-3238900D01*
X-1823729Y-3233186D01*
X-1835157Y-3233186D01*
X-1852300Y-3238900D01*
X-1858014Y-3244614D01*
X-1978014Y-3341757D02*
X-1972300Y-3347471D01*
X-1955157Y-3353186D01*
X-1943729Y-3353186D01*
X-1926586Y-3347471D01*
X-1915157Y-3336043D01*
X-1909443Y-3324614D01*
X-1903729Y-3301757D01*
X-1903729Y-3284614D01*
X-1909443Y-3261757D01*
X-1915157Y-3250328D01*
X-1926586Y-3238900D01*
X-1943729Y-3233186D01*
X-1955157Y-3233186D01*
X-1972300Y-3238900D01*
X-1978014Y-3244614D01*
X-2183729Y-3238900D02*
X-2172300Y-3233186D01*
X-2155157Y-3233186D01*
X-2138014Y-3238900D01*
X-2126586Y-3250328D01*
X-2120872Y-3261757D01*
X-2115157Y-3284614D01*
X-2115157Y-3301757D01*
X-2120872Y-3324614D01*
X-2126586Y-3336043D01*
X-2138014Y-3347471D01*
X-2155157Y-3353186D01*
X-2166586Y-3353186D01*
X-2183729Y-3347471D01*
X-2189443Y-3341757D01*
X-2189443Y-3301757D01*
X-2166586Y-3301757D01*
X-2240872Y-3353186D02*
X-2240872Y-3233186D01*
X-2309443Y-3353186D01*
X-2309443Y-3233186D01*
X-2366586Y-3353186D02*
X-2366586Y-3233186D01*
X-2395157Y-3233186D01*
X-2412300Y-3238900D01*
X-2423729Y-3250328D01*
X-2429443Y-3261757D01*
X-2435157Y-3284614D01*
X-2435157Y-3301757D01*
X-2429443Y-3324614D01*
X-2423729Y-3336043D01*
X-2412300Y-3347471D01*
X-2395157Y-3353186D01*
X-2366586Y-3353186D01*
X-2578014Y-3353186D02*
X-2578014Y-3233186D01*
X-2606586Y-3233186D01*
X-2623729Y-3238900D01*
X-2635157Y-3250328D01*
X-2640872Y-3261757D01*
X-2646586Y-3284614D01*
X-2646586Y-3301757D01*
X-2640872Y-3324614D01*
X-2635157Y-3336043D01*
X-2623729Y-3347471D01*
X-2606586Y-3353186D01*
X-2578014Y-3353186D01*
X-2692300Y-3318900D02*
X-2749443Y-3318900D01*
X-2680872Y-3353186D02*
X-2720872Y-3233186D01*
X-2760872Y-3353186D01*
X-2783729Y-3233186D02*
X-2852300Y-3233186D01*
X-2818014Y-3353186D02*
X-2818014Y-3233186D01*
X-2886586Y-3318900D02*
X-2943729Y-3318900D01*
X-2875157Y-3353186D02*
X-2915157Y-3233186D01*
X-2955157Y-3353186D01*
X-1658957Y-3545171D02*
X-1676100Y-3550886D01*
X-1704671Y-3550886D01*
X-1716100Y-3545171D01*
X-1721814Y-3539457D01*
X-1727529Y-3528028D01*
X-1727529Y-3516600D01*
X-1721814Y-3505171D01*
X-1716100Y-3499457D01*
X-1704671Y-3493743D01*
X-1681814Y-3488028D01*
X-1670386Y-3482314D01*
X-1664671Y-3476600D01*
X-1658957Y-3465171D01*
X-1658957Y-3453743D01*
X-1664671Y-3442314D01*
X-1670386Y-3436600D01*
X-1681814Y-3430886D01*
X-1710386Y-3430886D01*
X-1727529Y-3436600D01*
X-1801814Y-3430886D02*
X-1824671Y-3430886D01*
X-1836100Y-3436600D01*
X-1847529Y-3448028D01*
X-1853243Y-3470886D01*
X-1853243Y-3510886D01*
X-1847529Y-3533743D01*
X-1836100Y-3545171D01*
X-1824671Y-3550886D01*
X-1801814Y-3550886D01*
X-1790386Y-3545171D01*
X-1778957Y-3533743D01*
X-1773243Y-3510886D01*
X-1773243Y-3470886D01*
X-1778957Y-3448028D01*
X-1790386Y-3436600D01*
X-1801814Y-3430886D01*
X-1904671Y-3550886D02*
X-1904671Y-3430886D01*
X-1973243Y-3550886D01*
X-1973243Y-3430886D01*
X-2030386Y-3550886D02*
X-2030386Y-3430886D01*
X-2058957Y-3430886D01*
X-2076100Y-3436600D01*
X-2087529Y-3448028D01*
X-2093243Y-3459457D01*
X-2098957Y-3482314D01*
X-2098957Y-3499457D01*
X-2093243Y-3522314D01*
X-2087529Y-3533743D01*
X-2076100Y-3545171D01*
X-2058957Y-3550886D01*
X-2030386Y-3550886D01*
X-2144672Y-3516600D02*
X-2201814Y-3516600D01*
X-2133243Y-3550886D02*
X-2173243Y-3430886D01*
X-2213243Y-3550886D01*
X-2333243Y-3430886D02*
X-2413243Y-3430886D01*
X-2333243Y-3550886D01*
X-2413243Y-3550886D01*
X-2458957Y-3505171D02*
X-2550386Y-3505171D01*
X-2590386Y-3430886D02*
X-2658957Y-3430886D01*
X-2624672Y-3550886D02*
X-2624672Y-3430886D01*
X-2698957Y-3488028D02*
X-2738957Y-3488028D01*
X-2756100Y-3550886D02*
X-2698957Y-3550886D01*
X-2698957Y-3430886D01*
X-2756100Y-3430886D01*
X-2876100Y-3550886D02*
X-2836100Y-3493743D01*
X-2807529Y-3550886D02*
X-2807529Y-3430886D01*
X-2853243Y-3430886D01*
X-2864671Y-3436600D01*
X-2870386Y-3442314D01*
X-2876100Y-3453743D01*
X-2876100Y-3470886D01*
X-2870386Y-3482314D01*
X-2864671Y-3488028D01*
X-2853243Y-3493743D01*
X-2807529Y-3493743D01*
X-2927529Y-3550886D02*
X-2927529Y-3430886D01*
X-2967529Y-3516600D01*
X-3007529Y-3430886D01*
X-3007529Y-3550886D01*
X-158443Y-3233186D02*
X-198443Y-3353186D01*
X-238443Y-3233186D01*
X-347014Y-3341757D02*
X-341300Y-3347471D01*
X-324157Y-3353186D01*
X-312729Y-3353186D01*
X-295586Y-3347471D01*
X-284157Y-3336043D01*
X-278443Y-3324614D01*
X-272729Y-3301757D01*
X-272729Y-3284614D01*
X-278443Y-3261757D01*
X-284157Y-3250328D01*
X-295586Y-3238900D01*
X-312729Y-3233186D01*
X-324157Y-3233186D01*
X-341300Y-3238900D01*
X-347014Y-3244614D01*
X-467014Y-3341757D02*
X-461300Y-3347471D01*
X-444157Y-3353186D01*
X-432729Y-3353186D01*
X-415586Y-3347471D01*
X-404157Y-3336043D01*
X-398443Y-3324614D01*
X-392729Y-3301757D01*
X-392729Y-3284614D01*
X-398443Y-3261757D01*
X-404157Y-3250328D01*
X-415586Y-3238900D01*
X-432729Y-3233186D01*
X-444157Y-3233186D01*
X-461300Y-3238900D01*
X-467014Y-3244614D01*
X-672729Y-3238900D02*
X-661300Y-3233186D01*
X-644157Y-3233186D01*
X-627014Y-3238900D01*
X-615586Y-3250328D01*
X-609872Y-3261757D01*
X-604157Y-3284614D01*
X-604157Y-3301757D01*
X-609872Y-3324614D01*
X-615586Y-3336043D01*
X-627014Y-3347471D01*
X-644157Y-3353186D01*
X-655586Y-3353186D01*
X-672729Y-3347471D01*
X-678443Y-3341757D01*
X-678443Y-3301757D01*
X-655586Y-3301757D01*
X-729871Y-3353186D02*
X-729871Y-3233186D01*
X-798443Y-3353186D01*
X-798443Y-3233186D01*
X-855586Y-3353186D02*
X-855586Y-3233186D01*
X-884157Y-3233186D01*
X-901300Y-3238900D01*
X-912729Y-3250328D01*
X-918443Y-3261757D01*
X-924157Y-3284614D01*
X-924157Y-3301757D01*
X-918443Y-3324614D01*
X-912729Y-3336043D01*
X-901300Y-3347471D01*
X-884157Y-3353186D01*
X-855586Y-3353186D01*
X-1067014Y-3353186D02*
X-1067014Y-3233186D01*
X-1095586Y-3233186D01*
X-1112729Y-3238900D01*
X-1124157Y-3250328D01*
X-1129872Y-3261757D01*
X-1135586Y-3284614D01*
X-1135586Y-3301757D01*
X-1129872Y-3324614D01*
X-1124157Y-3336043D01*
X-1112729Y-3347471D01*
X-1095586Y-3353186D01*
X-1067014Y-3353186D01*
X-1181300Y-3318900D02*
X-1238443Y-3318900D01*
X-1169872Y-3353186D02*
X-1209872Y-3233186D01*
X-1249872Y-3353186D01*
X-1272729Y-3233186D02*
X-1341300Y-3233186D01*
X-1307014Y-3353186D02*
X-1307014Y-3233186D01*
X-1375586Y-3318900D02*
X-1432729Y-3318900D01*
X-1364157Y-3353186D02*
X-1404157Y-3233186D01*
X-1444157Y-3353186D01*
X-333672Y-3545171D02*
X-350814Y-3550886D01*
X-379386Y-3550886D01*
X-390814Y-3545171D01*
X-396529Y-3539457D01*
X-402243Y-3528028D01*
X-402243Y-3516600D01*
X-396529Y-3505171D01*
X-390814Y-3499457D01*
X-379386Y-3493743D01*
X-356529Y-3488028D01*
X-345100Y-3482314D01*
X-339386Y-3476600D01*
X-333672Y-3465171D01*
X-333672Y-3453743D01*
X-339386Y-3442314D01*
X-345100Y-3436600D01*
X-356529Y-3430886D01*
X-385100Y-3430886D01*
X-402243Y-3436600D01*
X-476529Y-3430886D02*
X-499386Y-3430886D01*
X-510814Y-3436600D01*
X-522243Y-3448028D01*
X-527957Y-3470886D01*
X-527957Y-3510886D01*
X-522243Y-3533743D01*
X-510814Y-3545171D01*
X-499386Y-3550886D01*
X-476529Y-3550886D01*
X-465100Y-3545171D01*
X-453671Y-3533743D01*
X-447957Y-3510886D01*
X-447957Y-3470886D01*
X-453671Y-3448028D01*
X-465100Y-3436600D01*
X-476529Y-3430886D01*
X-579386Y-3550886D02*
X-579386Y-3430886D01*
X-647957Y-3550886D01*
X-647957Y-3430886D01*
X-705100Y-3550886D02*
X-705100Y-3430886D01*
X-733671Y-3430886D01*
X-750814Y-3436600D01*
X-762243Y-3448028D01*
X-767957Y-3459457D01*
X-773671Y-3482314D01*
X-773671Y-3499457D01*
X-767957Y-3522314D01*
X-762243Y-3533743D01*
X-750814Y-3545171D01*
X-733671Y-3550886D01*
X-705100Y-3550886D01*
X-819386Y-3516600D02*
X-876529Y-3516600D01*
X-807957Y-3550886D02*
X-847957Y-3430886D01*
X-887957Y-3550886D01*
X-1019386Y-3550886D02*
X-1019386Y-3430886D01*
X-1047957Y-3430886D01*
X-1065100Y-3436600D01*
X-1076529Y-3448028D01*
X-1082243Y-3459457D01*
X-1087957Y-3482314D01*
X-1087957Y-3499457D01*
X-1082243Y-3522314D01*
X-1076529Y-3533743D01*
X-1065100Y-3545171D01*
X-1047957Y-3550886D01*
X-1019386Y-3550886D01*
X-1139386Y-3488028D02*
X-1179386Y-3488028D01*
X-1196529Y-3550886D02*
X-1139386Y-3550886D01*
X-1139386Y-3430886D01*
X-1196529Y-3430886D01*
X-1247957Y-3550886D02*
X-1247957Y-3430886D01*
X-1293672Y-3430886D01*
X-1305100Y-3436600D01*
X-1310814Y-3442314D01*
X-1316529Y-3453743D01*
X-1316529Y-3470886D01*
X-1310814Y-3482314D01*
X-1305100Y-3488028D01*
X-1293672Y-3493743D01*
X-1247957Y-3493743D01*
X1343757Y-3233186D02*
X1303757Y-3353186D01*
X1263757Y-3233186D01*
X1155186Y-3341757D02*
X1160900Y-3347471D01*
X1178043Y-3353186D01*
X1189471Y-3353186D01*
X1206614Y-3347471D01*
X1218043Y-3336043D01*
X1223757Y-3324614D01*
X1229471Y-3301757D01*
X1229471Y-3284614D01*
X1223757Y-3261757D01*
X1218043Y-3250328D01*
X1206614Y-3238900D01*
X1189471Y-3233186D01*
X1178043Y-3233186D01*
X1160900Y-3238900D01*
X1155186Y-3244614D01*
X1035186Y-3341757D02*
X1040900Y-3347471D01*
X1058043Y-3353186D01*
X1069471Y-3353186D01*
X1086614Y-3347471D01*
X1098043Y-3336043D01*
X1103757Y-3324614D01*
X1109471Y-3301757D01*
X1109471Y-3284614D01*
X1103757Y-3261757D01*
X1098043Y-3250328D01*
X1086614Y-3238900D01*
X1069471Y-3233186D01*
X1058043Y-3233186D01*
X1040900Y-3238900D01*
X1035186Y-3244614D01*
X829471Y-3238900D02*
X840900Y-3233186D01*
X858043Y-3233186D01*
X875186Y-3238900D01*
X886614Y-3250328D01*
X892328Y-3261757D01*
X898043Y-3284614D01*
X898043Y-3301757D01*
X892328Y-3324614D01*
X886614Y-3336043D01*
X875186Y-3347471D01*
X858043Y-3353186D01*
X846614Y-3353186D01*
X829471Y-3347471D01*
X823757Y-3341757D01*
X823757Y-3301757D01*
X846614Y-3301757D01*
X772328Y-3353186D02*
X772328Y-3233186D01*
X703757Y-3353186D01*
X703757Y-3233186D01*
X646614Y-3353186D02*
X646614Y-3233186D01*
X618043Y-3233186D01*
X600900Y-3238900D01*
X589471Y-3250328D01*
X583757Y-3261757D01*
X578043Y-3284614D01*
X578043Y-3301757D01*
X583757Y-3324614D01*
X589471Y-3336043D01*
X600900Y-3347471D01*
X618043Y-3353186D01*
X646614Y-3353186D01*
X435186Y-3353186D02*
X435186Y-3233186D01*
X406614Y-3233186D01*
X389471Y-3238900D01*
X378043Y-3250328D01*
X372328Y-3261757D01*
X366614Y-3284614D01*
X366614Y-3301757D01*
X372328Y-3324614D01*
X378043Y-3336043D01*
X389471Y-3347471D01*
X406614Y-3353186D01*
X435186Y-3353186D01*
X320900Y-3318900D02*
X263757Y-3318900D01*
X332329Y-3353186D02*
X292329Y-3233186D01*
X252328Y-3353186D01*
X229471Y-3233186D02*
X160900Y-3233186D01*
X195186Y-3353186D02*
X195186Y-3233186D01*
X126614Y-3318900D02*
X69471Y-3318900D01*
X138043Y-3353186D02*
X98043Y-3233186D01*
X58043Y-3353186D01*
D11*
X-1176038Y1101352D02*
X-1176038Y1044210D01*
X-1176038Y1072781D02*
X-1076038Y1072781D01*
X-1090324Y1063257D01*
X-1099848Y1053733D01*
X-1104610Y1044210D01*
X-1076038Y1163257D02*
X-1076038Y1172781D01*
X-1080800Y1182305D01*
X-1085562Y1187067D01*
X-1095086Y1191829D01*
X-1114133Y1196591D01*
X-1137943Y1196591D01*
X-1156991Y1191829D01*
X-1166514Y1187067D01*
X-1171276Y1182305D01*
X-1176038Y1172781D01*
X-1176038Y1163257D01*
X-1171276Y1153733D01*
X-1166514Y1148972D01*
X-1156991Y1144210D01*
X-1137943Y1139448D01*
X-1114133Y1139448D01*
X-1095086Y1144210D01*
X-1085562Y1148972D01*
X-1080800Y1153733D01*
X-1076038Y1163257D01*
X-3144962Y1170248D02*
X-3144962Y1151200D01*
X-3149724Y1141676D01*
X-3154486Y1136914D01*
X-3168771Y1127391D01*
X-3187819Y1122629D01*
X-3225914Y1122629D01*
X-3235438Y1127391D01*
X-3240200Y1132152D01*
X-3244962Y1141676D01*
X-3244962Y1160724D01*
X-3240200Y1170248D01*
X-3235438Y1175010D01*
X-3225914Y1179772D01*
X-3202105Y1179772D01*
X-3192581Y1175010D01*
X-3187819Y1170248D01*
X-3183057Y1160724D01*
X-3183057Y1141676D01*
X-3187819Y1132152D01*
X-3192581Y1127391D01*
X-3202105Y1122629D01*
D10*
X-1795086Y-1461000D02*
X-1852229Y-1461000D01*
X-1783657Y-1495286D02*
X-1823657Y-1375286D01*
X-1863657Y-1495286D01*
X-1972229Y-1495286D02*
X-1932229Y-1438143D01*
X-1903657Y-1495286D02*
X-1903657Y-1375286D01*
X-1949371Y-1375286D01*
X-1960800Y-1381000D01*
X-1966514Y-1386714D01*
X-1972229Y-1398143D01*
X-1972229Y-1415286D01*
X-1966514Y-1426714D01*
X-1960800Y-1432428D01*
X-1949371Y-1438143D01*
X-1903657Y-1438143D01*
X-2023657Y-1495286D02*
X-2023657Y-1375286D01*
X-2052229Y-1375286D01*
X-2069371Y-1381000D01*
X-2080800Y-1392429D01*
X-2086514Y-1403857D01*
X-2092229Y-1426714D01*
X-2092229Y-1443857D01*
X-2086514Y-1466714D01*
X-2080800Y-1478143D01*
X-2069371Y-1489571D01*
X-2052229Y-1495286D01*
X-2023657Y-1495286D01*
X-2143657Y-1375286D02*
X-2143657Y-1472428D01*
X-2149372Y-1483857D01*
X-2155086Y-1489571D01*
X-2166514Y-1495286D01*
X-2189372Y-1495286D01*
X-2200800Y-1489571D01*
X-2206514Y-1483857D01*
X-2212229Y-1472428D01*
X-2212229Y-1375286D01*
X-2269372Y-1495286D02*
X-2269372Y-1375286D01*
X-2326514Y-1495286D02*
X-2326514Y-1375286D01*
X-2395086Y-1495286D01*
X-2395086Y-1375286D01*
X-2475086Y-1375286D02*
X-2497943Y-1375286D01*
X-2509372Y-1381000D01*
X-2520800Y-1392429D01*
X-2526514Y-1415286D01*
X-2526514Y-1455286D01*
X-2520800Y-1478143D01*
X-2509372Y-1489571D01*
X-2497943Y-1495286D01*
X-2475086Y-1495286D01*
X-2463657Y-1489571D01*
X-2452229Y-1478143D01*
X-2446514Y-1455286D01*
X-2446514Y-1415286D01*
X-2452229Y-1392429D01*
X-2463657Y-1381000D01*
X-2475086Y-1375286D01*
X-1772229Y-1685286D02*
X-1772229Y-1565286D01*
X-1812229Y-1651000D01*
X-1852229Y-1565286D01*
X-1852229Y-1685286D01*
X-1909371Y-1685286D02*
X-1909371Y-1565286D01*
X-1966514Y-1685286D02*
X-1966514Y-1565286D01*
X-2035086Y-1685286D01*
X-2035086Y-1565286D01*
X-2092229Y-1685286D02*
X-2092229Y-1565286D01*
X-2240800Y-1685286D02*
X-2240800Y-1565286D01*
X-2286514Y-1565286D01*
X-2297943Y-1571000D01*
X-2303657Y-1576714D01*
X-2309372Y-1588143D01*
X-2309372Y-1605286D01*
X-2303657Y-1616714D01*
X-2297943Y-1622428D01*
X-2286514Y-1628143D01*
X-2240800Y-1628143D01*
X-2429372Y-1685286D02*
X-2389372Y-1628143D01*
X-2360800Y-1685286D02*
X-2360800Y-1565286D01*
X-2406514Y-1565286D01*
X-2417943Y-1571000D01*
X-2423657Y-1576714D01*
X-2429372Y-1588143D01*
X-2429372Y-1605286D01*
X-2423657Y-1616714D01*
X-2417943Y-1622428D01*
X-2406514Y-1628143D01*
X-2360800Y-1628143D01*
X-2503657Y-1565286D02*
X-2526514Y-1565286D01*
X-2537943Y-1571000D01*
X-2549372Y-1582428D01*
X-2555086Y-1605286D01*
X-2555086Y-1645286D01*
X-2549372Y-1668143D01*
X-2537943Y-1679571D01*
X-2526514Y-1685286D01*
X-2503657Y-1685286D01*
X-2492229Y-1679571D01*
X-2480800Y-1668143D01*
X-2475086Y-1645286D01*
X-2475086Y-1605286D01*
X-2480800Y-1582428D01*
X-2492229Y-1571000D01*
X-2503657Y-1565286D01*
X-3379514Y3390714D02*
X-3499514Y3390714D01*
X-3499514Y3345000D01*
X-3493800Y3333571D01*
X-3488086Y3327857D01*
X-3476657Y3322143D01*
X-3459514Y3322143D01*
X-3448086Y3327857D01*
X-3442371Y3333571D01*
X-3436657Y3345000D01*
X-3436657Y3390714D01*
X-3413800Y3276429D02*
X-3413800Y3219286D01*
X-3379514Y3287857D02*
X-3499514Y3247857D01*
X-3379514Y3207857D01*
X-3379514Y3167857D02*
X-3499514Y3167857D01*
X-3379514Y3099286D01*
X-3499514Y3099286D01*
X-3499514Y3059286D02*
X-3499514Y2990714D01*
X-3379514Y3025000D02*
X-3499514Y3025000D01*
X-3413800Y2956429D02*
X-3413800Y2899286D01*
X-3379514Y2967857D02*
X-3499514Y2927857D01*
X-3379514Y2887857D01*
X-3379514Y2790714D02*
X-3379514Y2847857D01*
X-3499514Y2847857D01*
X-3379514Y2693572D02*
X-3379514Y2750714D01*
X-3499514Y2750714D01*
X-3413800Y2659286D02*
X-3413800Y2602143D01*
X-3379514Y2670714D02*
X-3499514Y2630714D01*
X-3379514Y2590714D01*
X-3379514Y2396429D02*
X-3379514Y2465000D01*
X-3379514Y2430714D02*
X-3499514Y2430714D01*
X-3482371Y2442143D01*
X-3470943Y2453572D01*
X-3465229Y2465000D01*
X-3499514Y2293572D02*
X-3499514Y2316429D01*
X-3493800Y2327857D01*
X-3488086Y2333572D01*
X-3470943Y2345000D01*
X-3448086Y2350714D01*
X-3402371Y2350714D01*
X-3390943Y2345000D01*
X-3385229Y2339286D01*
X-3379514Y2327857D01*
X-3379514Y2305000D01*
X-3385229Y2293572D01*
X-3390943Y2287857D01*
X-3402371Y2282143D01*
X-3430943Y2282143D01*
X-3442371Y2287857D01*
X-3448086Y2293572D01*
X-3453800Y2305000D01*
X-3453800Y2327857D01*
X-3448086Y2339286D01*
X-3442371Y2345000D01*
X-3430943Y2350714D01*
X-3499514Y2242143D02*
X-3379514Y2162143D01*
X-3499514Y2162143D02*
X-3379514Y2242143D01*
X-3488086Y2122143D02*
X-3493800Y2116429D01*
X-3499514Y2105000D01*
X-3499514Y2076429D01*
X-3493800Y2065000D01*
X-3488086Y2059286D01*
X-3476657Y2053571D01*
X-3465229Y2053571D01*
X-3448086Y2059286D01*
X-3379514Y2127857D01*
X-3379514Y2053571D01*
D11*
X-1176038Y336552D02*
X-1176038Y279410D01*
X-1176038Y307981D02*
X-1076038Y307981D01*
X-1090324Y298457D01*
X-1099848Y288933D01*
X-1104610Y279410D01*
X-1076038Y369886D02*
X-1076038Y431790D01*
X-1114133Y398457D01*
X-1114133Y412743D01*
X-1118895Y422267D01*
X-1123657Y427029D01*
X-1133181Y431790D01*
X-1156991Y431790D01*
X-1166514Y427029D01*
X-1171276Y422267D01*
X-1176038Y412743D01*
X-1176038Y384171D01*
X-1171276Y374648D01*
X-1166514Y369886D01*
D10*
X-1272038Y2829333D02*
X-1319657Y2829333D01*
X-1262514Y2800762D02*
X-1295848Y2900762D01*
X-1329181Y2800762D01*
X-1419657Y2800762D02*
X-1386324Y2848381D01*
X-1362514Y2800762D02*
X-1362514Y2900762D01*
X-1400610Y2900762D01*
X-1410133Y2896000D01*
X-1414895Y2891238D01*
X-1419657Y2881714D01*
X-1419657Y2867429D01*
X-1414895Y2857905D01*
X-1410133Y2853143D01*
X-1400610Y2848381D01*
X-1362514Y2848381D01*
X-1462514Y2800762D02*
X-1462514Y2900762D01*
X-1486324Y2900762D01*
X-1500610Y2896000D01*
X-1510133Y2886476D01*
X-1514895Y2876952D01*
X-1519657Y2857905D01*
X-1519657Y2843619D01*
X-1514895Y2824571D01*
X-1510133Y2815048D01*
X-1500610Y2805524D01*
X-1486324Y2800762D01*
X-1462514Y2800762D01*
X-1562514Y2900762D02*
X-1562514Y2819810D01*
X-1567276Y2810286D01*
X-1572038Y2805524D01*
X-1581562Y2800762D01*
X-1600610Y2800762D01*
X-1610133Y2805524D01*
X-1614895Y2810286D01*
X-1619657Y2819810D01*
X-1619657Y2900762D01*
X-1667276Y2800762D02*
X-1667276Y2900762D01*
X-1714895Y2800762D02*
X-1714895Y2900762D01*
X-1772038Y2800762D01*
X-1772038Y2900762D01*
X-1838705Y2900762D02*
X-1857752Y2900762D01*
X-1867276Y2896000D01*
X-1876800Y2886476D01*
X-1881562Y2867429D01*
X-1881562Y2834095D01*
X-1876800Y2815048D01*
X-1867276Y2805524D01*
X-1857752Y2800762D01*
X-1838705Y2800762D01*
X-1829181Y2805524D01*
X-1819657Y2815048D01*
X-1814895Y2834095D01*
X-1814895Y2867429D01*
X-1819657Y2886476D01*
X-1829181Y2896000D01*
X-1838705Y2900762D01*
X-1481562Y2640762D02*
X-1433943Y2640762D01*
X-1433943Y2740762D01*
X-1514895Y2640762D02*
X-1514895Y2740762D01*
X-1562514Y2640762D02*
X-1562514Y2740762D01*
X-1619657Y2640762D01*
X-1619657Y2740762D01*
X-1667276Y2640762D02*
X-1667276Y2740762D01*
X-1724419Y2640762D02*
X-1681562Y2697905D01*
X-1724419Y2740762D02*
X-1667276Y2683619D01*
D13*
X3653484Y3107739D02*
X3562055Y3107739D01*
X3607769Y2947739D02*
X3607769Y3107739D01*
X3508722Y3031549D02*
X3455388Y3031549D01*
X3432531Y2947739D02*
X3508722Y2947739D01*
X3508722Y3107739D01*
X3432531Y3107739D01*
X3272531Y2947739D02*
X3325865Y3023930D01*
X3363960Y2947739D02*
X3363960Y3107739D01*
X3303008Y3107739D01*
X3287769Y3100120D01*
X3280150Y3092501D01*
X3272531Y3077263D01*
X3272531Y3054406D01*
X3280150Y3039168D01*
X3287769Y3031549D01*
X3303008Y3023930D01*
X3363960Y3023930D01*
X3203960Y2947739D02*
X3203960Y3107739D01*
X3150627Y2993453D01*
X3097293Y3107739D01*
X3097293Y2947739D01*
X2990627Y3107739D02*
X2960150Y3107739D01*
X2944912Y3100120D01*
X2929674Y3084882D01*
X2922055Y3054406D01*
X2922055Y3001072D01*
X2929674Y2970596D01*
X2944912Y2955358D01*
X2960150Y2947739D01*
X2990627Y2947739D01*
X3005865Y2955358D01*
X3021103Y2970596D01*
X3028722Y3001072D01*
X3028722Y3054406D01*
X3021103Y3084882D01*
X3005865Y3100120D01*
X2990627Y3107739D01*
X2861103Y2955358D02*
X2838246Y2947739D01*
X2800150Y2947739D01*
X2784912Y2955358D01*
X2777293Y2962977D01*
X2769674Y2978215D01*
X2769674Y2993453D01*
X2777293Y3008691D01*
X2784912Y3016310D01*
X2800150Y3023930D01*
X2830627Y3031549D01*
X2845865Y3039168D01*
X2853484Y3046787D01*
X2861103Y3062025D01*
X2861103Y3077263D01*
X2853484Y3092501D01*
X2845865Y3100120D01*
X2830627Y3107739D01*
X2792531Y3107739D01*
X2769674Y3100120D01*
X2723960Y3107739D02*
X2632531Y3107739D01*
X2678246Y2947739D02*
X2678246Y3107739D01*
X2586817Y2993453D02*
X2510627Y2993453D01*
X2602055Y2947739D02*
X2548722Y3107739D01*
X2495389Y2947739D01*
X2464912Y3107739D02*
X2373484Y3107739D01*
X2419198Y2947739D02*
X2419198Y3107739D01*
X2289674Y3107739D02*
X2259198Y3107739D01*
X2243960Y3100120D01*
X2228722Y3084882D01*
X2221103Y3054406D01*
X2221103Y3001072D01*
X2228722Y2970596D01*
X2243960Y2955358D01*
X2259198Y2947739D01*
X2289674Y2947739D01*
X2304912Y2955358D01*
X2320150Y2970596D01*
X2327770Y3001072D01*
X2327770Y3054406D01*
X2320150Y3084882D01*
X2304912Y3100120D01*
X2289674Y3107739D01*
X2030627Y2947739D02*
X2030627Y3107739D01*
X1992531Y3107739D01*
X1969674Y3100120D01*
X1954436Y3084882D01*
X1946817Y3069644D01*
X1939198Y3039168D01*
X1939198Y3016310D01*
X1946817Y2985834D01*
X1954436Y2970596D01*
X1969674Y2955358D01*
X1992531Y2947739D01*
X2030627Y2947739D01*
X1870627Y2947739D02*
X1870627Y3107739D01*
X1741103Y3031549D02*
X1794436Y3031549D01*
X1794436Y2947739D02*
X1794436Y3107739D01*
X1718246Y3107739D01*
X1657293Y3031549D02*
X1603960Y3031549D01*
X1581103Y2947739D02*
X1657293Y2947739D01*
X1657293Y3107739D01*
X1581103Y3107739D01*
X1421103Y2947739D02*
X1474436Y3023930D01*
X1512531Y2947739D02*
X1512531Y3107739D01*
X1451579Y3107739D01*
X1436341Y3100120D01*
X1428722Y3092501D01*
X1421103Y3077263D01*
X1421103Y3054406D01*
X1428722Y3039168D01*
X1436341Y3031549D01*
X1451579Y3023930D01*
X1512531Y3023930D01*
X1352531Y3031549D02*
X1299198Y3031549D01*
X1276341Y2947739D02*
X1352531Y2947739D01*
X1352531Y3107739D01*
X1276341Y3107739D01*
X1207770Y2947739D02*
X1207770Y3107739D01*
X1116341Y2947739D01*
X1116341Y3107739D01*
X948722Y2962977D02*
X956341Y2955358D01*
X979198Y2947739D01*
X994436Y2947739D01*
X1017293Y2955358D01*
X1032531Y2970596D01*
X1040150Y2985834D01*
X1047769Y3016310D01*
X1047769Y3039168D01*
X1040150Y3069644D01*
X1032531Y3084882D01*
X1017293Y3100120D01*
X994436Y3107739D01*
X979198Y3107739D01*
X956341Y3100120D01*
X948722Y3092501D01*
X880150Y2947739D02*
X880150Y3107739D01*
X811579Y2993453D02*
X735388Y2993453D01*
X826817Y2947739D02*
X773484Y3107739D01*
X720150Y2947739D01*
X590627Y2947739D02*
X666817Y2947739D01*
X666817Y3107739D01*
X415388Y2947739D02*
X415388Y3107739D01*
X362055Y2993453D01*
X308722Y3107739D01*
X308722Y2947739D01*
X232531Y2947739D02*
X232531Y3107739D01*
X156341Y2947739D02*
X156341Y3107739D01*
X64912Y2947739D01*
X64912Y3107739D01*
X-11278Y2947739D02*
X-11278Y3107739D01*
X-201754Y3092501D02*
X-209373Y3100120D01*
X-224611Y3107739D01*
X-262707Y3107739D01*
X-277945Y3100120D01*
X-285564Y3092501D01*
X-293183Y3077263D01*
X-293183Y3062025D01*
X-285564Y3039168D01*
X-194135Y2947739D01*
X-293183Y2947739D01*
X-392230Y3107739D02*
X-407469Y3107739D01*
X-422707Y3100120D01*
X-430326Y3092501D01*
X-437945Y3077263D01*
X-445564Y3046787D01*
X-445564Y3008691D01*
X-437945Y2978215D01*
X-430326Y2962977D01*
X-422707Y2955358D01*
X-407469Y2947739D01*
X-392230Y2947739D01*
X-376992Y2955358D01*
X-369373Y2962977D01*
X-361754Y2978215D01*
X-354135Y3008691D01*
X-354135Y3046787D01*
X-361754Y3077263D01*
X-369373Y3092501D01*
X-376992Y3100120D01*
X-392230Y3107739D01*
X-506516Y3092501D02*
X-514135Y3100120D01*
X-529373Y3107739D01*
X-567469Y3107739D01*
X-582707Y3100120D01*
X-590326Y3092501D01*
X-597945Y3077263D01*
X-597945Y3062025D01*
X-590326Y3039168D01*
X-498897Y2947739D01*
X-597945Y2947739D01*
X-750326Y2947739D02*
X-658897Y2947739D01*
X-704611Y2947739D02*
X-704611Y3107739D01*
X-689373Y3084882D01*
X-674135Y3069644D01*
X-658897Y3062025D01*
X2663008Y2677739D02*
X2663008Y2837739D01*
X2609674Y2723453D01*
X2556341Y2837739D01*
X2556341Y2677739D01*
X2480150Y2677739D02*
X2480150Y2837739D01*
X2411579Y2685358D02*
X2388722Y2677739D01*
X2350627Y2677739D01*
X2335389Y2685358D01*
X2327770Y2692977D01*
X2320150Y2708215D01*
X2320150Y2723453D01*
X2327770Y2738692D01*
X2335389Y2746311D01*
X2350627Y2753930D01*
X2381103Y2761549D01*
X2396341Y2769168D01*
X2403960Y2776787D01*
X2411579Y2792025D01*
X2411579Y2807263D01*
X2403960Y2822501D01*
X2396341Y2830120D01*
X2381103Y2837739D01*
X2343008Y2837739D01*
X2320150Y2830120D01*
X2221103Y2837739D02*
X2190627Y2837739D01*
X2175389Y2830120D01*
X2160150Y2814882D01*
X2152531Y2784406D01*
X2152531Y2731072D01*
X2160150Y2700596D01*
X2175389Y2685358D01*
X2190627Y2677739D01*
X2221103Y2677739D01*
X2236341Y2685358D01*
X2251579Y2700596D01*
X2259198Y2731072D01*
X2259198Y2784406D01*
X2251579Y2814882D01*
X2236341Y2830120D01*
X2221103Y2837739D01*
X2007769Y2677739D02*
X2083960Y2677739D01*
X2083960Y2837739D01*
X1962055Y2723453D02*
X1885865Y2723453D01*
X1977293Y2677739D02*
X1923960Y2837739D01*
X1870627Y2677739D01*
X1725865Y2677739D02*
X1779198Y2753930D01*
X1817293Y2677739D02*
X1817293Y2837739D01*
X1756341Y2837739D01*
X1741103Y2830120D01*
X1733484Y2822501D01*
X1725865Y2807263D01*
X1725865Y2784406D01*
X1733484Y2769168D01*
X1741103Y2761549D01*
X1756341Y2753930D01*
X1817293Y2753930D01*
X1565865Y2692977D02*
X1573484Y2685358D01*
X1596341Y2677739D01*
X1611579Y2677739D01*
X1634436Y2685358D01*
X1649674Y2700596D01*
X1657293Y2715834D01*
X1664912Y2746311D01*
X1664912Y2769168D01*
X1657293Y2799644D01*
X1649674Y2814882D01*
X1634436Y2830120D01*
X1611579Y2837739D01*
X1596341Y2837739D01*
X1573484Y2830120D01*
X1565865Y2822501D01*
X1504912Y2723453D02*
X1428722Y2723453D01*
X1520150Y2677739D02*
X1466817Y2837739D01*
X1413484Y2677739D01*
X1367770Y2685358D02*
X1344912Y2677739D01*
X1306817Y2677739D01*
X1291579Y2685358D01*
X1283960Y2692977D01*
X1276341Y2708215D01*
X1276341Y2723453D01*
X1283960Y2738692D01*
X1291579Y2746311D01*
X1306817Y2753930D01*
X1337293Y2761549D01*
X1352531Y2769168D01*
X1360150Y2776787D01*
X1367770Y2792025D01*
X1367770Y2807263D01*
X1360150Y2822501D01*
X1352531Y2830120D01*
X1337293Y2837739D01*
X1299198Y2837739D01*
X1276341Y2830120D01*
X1207770Y2761549D02*
X1154436Y2761549D01*
X1131579Y2677739D02*
X1207770Y2677739D01*
X1207770Y2837739D01*
X1131579Y2837739D01*
X971579Y2677739D02*
X1024912Y2753930D01*
X1063008Y2677739D02*
X1063008Y2837739D01*
X1002055Y2837739D01*
X986817Y2830120D01*
X979198Y2822501D01*
X971579Y2807263D01*
X971579Y2784406D01*
X979198Y2769168D01*
X986817Y2761549D01*
X1002055Y2753930D01*
X1063008Y2753930D01*
X872531Y2837739D02*
X842055Y2837739D01*
X826817Y2830120D01*
X811579Y2814882D01*
X803960Y2784406D01*
X803960Y2731072D01*
X811579Y2700596D01*
X826817Y2685358D01*
X842055Y2677739D01*
X872531Y2677739D01*
X887769Y2685358D01*
X903008Y2700596D01*
X910627Y2731072D01*
X910627Y2784406D01*
X903008Y2814882D01*
X887769Y2830120D01*
X872531Y2837739D01*
X735388Y2692977D02*
X727769Y2685358D01*
X735388Y2677739D01*
X743008Y2685358D01*
X735388Y2692977D01*
X735388Y2677739D01*
X567770Y2692977D02*
X575389Y2685358D01*
X598246Y2677739D01*
X613484Y2677739D01*
X636341Y2685358D01*
X651579Y2700596D01*
X659198Y2715834D01*
X666817Y2746311D01*
X666817Y2769168D01*
X659198Y2799644D01*
X651579Y2814882D01*
X636341Y2830120D01*
X613484Y2837739D01*
X598246Y2837739D01*
X575389Y2830120D01*
X567770Y2822501D01*
X468722Y2837739D02*
X438246Y2837739D01*
X423008Y2830120D01*
X407769Y2814882D01*
X400150Y2784406D01*
X400150Y2731072D01*
X407769Y2700596D01*
X423008Y2685358D01*
X438246Y2677739D01*
X468722Y2677739D01*
X483960Y2685358D01*
X499198Y2700596D01*
X506817Y2731072D01*
X506817Y2784406D01*
X499198Y2814882D01*
X483960Y2830120D01*
X468722Y2837739D01*
X331579Y2677739D02*
X331579Y2837739D01*
X278246Y2723453D01*
X224912Y2837739D01*
X224912Y2677739D01*
X2849674Y2453453D02*
X2773484Y2453453D01*
X2864912Y2407739D02*
X2811579Y2567739D01*
X2758246Y2407739D01*
X2704912Y2407739D02*
X2704912Y2567739D01*
X2643960Y2567739D01*
X2628722Y2560120D01*
X2621103Y2552501D01*
X2613484Y2537263D01*
X2613484Y2514406D01*
X2621103Y2499168D01*
X2628722Y2491549D01*
X2643960Y2483930D01*
X2704912Y2483930D01*
X2552531Y2453453D02*
X2476341Y2453453D01*
X2567770Y2407739D02*
X2514436Y2567739D01*
X2461103Y2407739D01*
X2316341Y2422977D02*
X2323960Y2415358D01*
X2346817Y2407739D01*
X2362055Y2407739D01*
X2384912Y2415358D01*
X2400150Y2430596D01*
X2407770Y2445834D01*
X2415389Y2476311D01*
X2415389Y2499168D01*
X2407770Y2529644D01*
X2400150Y2544882D01*
X2384912Y2560120D01*
X2362055Y2567739D01*
X2346817Y2567739D01*
X2323960Y2560120D01*
X2316341Y2552501D01*
X2247770Y2407739D02*
X2247770Y2567739D01*
X2247770Y2491549D02*
X2156341Y2491549D01*
X2156341Y2407739D02*
X2156341Y2567739D01*
X2080150Y2491549D02*
X2026817Y2491549D01*
X2003960Y2407739D02*
X2080150Y2407739D01*
X2080150Y2567739D01*
X2003960Y2567739D01*
X1882055Y2491549D02*
X1859198Y2483930D01*
X1851579Y2476311D01*
X1843960Y2461072D01*
X1843960Y2438215D01*
X1851579Y2422977D01*
X1859198Y2415358D01*
X1874436Y2407739D01*
X1935388Y2407739D01*
X1935388Y2567739D01*
X1882055Y2567739D01*
X1866817Y2560120D01*
X1859198Y2552501D01*
X1851579Y2537263D01*
X1851579Y2522025D01*
X1859198Y2506787D01*
X1866817Y2499168D01*
X1882055Y2491549D01*
X1935388Y2491549D01*
X1683960Y2422977D02*
X1691579Y2415358D01*
X1714436Y2407739D01*
X1729674Y2407739D01*
X1752531Y2415358D01*
X1767769Y2430596D01*
X1775388Y2445834D01*
X1783008Y2476311D01*
X1783008Y2499168D01*
X1775388Y2529644D01*
X1767769Y2544882D01*
X1752531Y2560120D01*
X1729674Y2567739D01*
X1714436Y2567739D01*
X1691579Y2560120D01*
X1683960Y2552501D01*
X1615388Y2407739D02*
X1615388Y2567739D01*
X1523960Y2407739D01*
X1523960Y2567739D01*
X1348722Y2483930D02*
X1356341Y2491549D01*
X1371579Y2499168D01*
X1386817Y2499168D01*
X1402055Y2491549D01*
X1409674Y2483930D01*
X1417293Y2468692D01*
X1417293Y2453453D01*
X1409674Y2438215D01*
X1402055Y2430596D01*
X1386817Y2422977D01*
X1371579Y2422977D01*
X1356341Y2430596D01*
X1348722Y2438215D01*
X1348722Y2499168D02*
X1348722Y2438215D01*
X1341103Y2430596D01*
X1333484Y2430596D01*
X1318246Y2438215D01*
X1310627Y2453453D01*
X1310627Y2491549D01*
X1325865Y2514406D01*
X1348722Y2529644D01*
X1379198Y2537263D01*
X1409674Y2529644D01*
X1432531Y2514406D01*
X1447769Y2491549D01*
X1455388Y2461072D01*
X1447769Y2430596D01*
X1432531Y2407739D01*
X1409674Y2392501D01*
X1379198Y2384882D01*
X1348722Y2392501D01*
X1325865Y2407739D01*
X1158246Y2560120D02*
X1173484Y2567739D01*
X1196341Y2567739D01*
X1219198Y2560120D01*
X1234436Y2544882D01*
X1242055Y2529644D01*
X1249674Y2499168D01*
X1249674Y2476311D01*
X1242055Y2445834D01*
X1234436Y2430596D01*
X1219198Y2415358D01*
X1196341Y2407739D01*
X1181103Y2407739D01*
X1158246Y2415358D01*
X1150627Y2422977D01*
X1150627Y2476311D01*
X1181103Y2476311D01*
X1082055Y2407739D02*
X1082055Y2567739D01*
X1028722Y2453453D01*
X975388Y2567739D01*
X975388Y2407739D01*
X906817Y2453453D02*
X830627Y2453453D01*
X922055Y2407739D02*
X868722Y2567739D01*
X815388Y2407739D01*
X762055Y2407739D02*
X762055Y2567739D01*
X609674Y2407739D02*
X685865Y2407739D01*
X685865Y2567739D01*
X556341Y2422977D02*
X548722Y2415358D01*
X556341Y2407739D01*
X563960Y2415358D01*
X556341Y2422977D01*
X556341Y2407739D01*
X388722Y2422977D02*
X396341Y2415358D01*
X419198Y2407739D01*
X434436Y2407739D01*
X457293Y2415358D01*
X472531Y2430596D01*
X480150Y2445834D01*
X487769Y2476311D01*
X487769Y2499168D01*
X480150Y2529644D01*
X472531Y2544882D01*
X457293Y2560120D01*
X434436Y2567739D01*
X419198Y2567739D01*
X396341Y2560120D01*
X388722Y2552501D01*
X289674Y2567739D02*
X259198Y2567739D01*
X243960Y2560120D01*
X228722Y2544882D01*
X221103Y2514406D01*
X221103Y2461072D01*
X228722Y2430596D01*
X243960Y2415358D01*
X259198Y2407739D01*
X289674Y2407739D01*
X304912Y2415358D01*
X320150Y2430596D01*
X327770Y2461072D01*
X327770Y2514406D01*
X320150Y2544882D01*
X304912Y2560120D01*
X289674Y2567739D01*
X152531Y2407739D02*
X152531Y2567739D01*
X99198Y2453453D01*
X45865Y2567739D01*
X45865Y2407739D01*
D11*
X4158000Y1668900D02*
X4738000Y1668900D01*
X4737000Y1667900D02*
X4737000Y-196100D01*
X4737000Y-196100D02*
X4157000Y-196100D01*
X4157000Y-196100D02*
X4157000Y1667900D01*
D14*
X4998980Y3747000D02*
X-4998900Y3747000D01*
D10*
X2750220Y-367900D02*
X3903380Y-367900D01*
X2750690Y-1169100D02*
X2750220Y-367900D01*
X2755300Y-2749020D02*
X3903380Y-2749020D01*
X3903380Y-367900D02*
X3903380Y-2748000D01*
X2755220Y-1943800D02*
X2755300Y-2749020D01*
X2826981Y-1326610D02*
X2750790Y-1273276D01*
X2826981Y-1235181D02*
X2666981Y-1235181D01*
X2666981Y-1296133D01*
X2674600Y-1311371D01*
X2682219Y-1318990D01*
X2697457Y-1326610D01*
X2720314Y-1326610D01*
X2735552Y-1318990D01*
X2743171Y-1311371D01*
X2750790Y-1296133D01*
X2750790Y-1235181D01*
X2743171Y-1395181D02*
X2743171Y-1448514D01*
X2826981Y-1471371D02*
X2826981Y-1395181D01*
X2666981Y-1395181D01*
X2666981Y-1471371D01*
X2826981Y-1616133D02*
X2826981Y-1539943D01*
X2666981Y-1539943D01*
X2743171Y-1669467D02*
X2743171Y-1722800D01*
X2826981Y-1745657D02*
X2826981Y-1669467D01*
X2666981Y-1669467D01*
X2666981Y-1745657D01*
X2819362Y-1806609D02*
X2826981Y-1829467D01*
X2826981Y-1867562D01*
X2819362Y-1882800D01*
X2811743Y-1890419D01*
X2796505Y-1898038D01*
X2781267Y-1898038D01*
X2766029Y-1890419D01*
X2758410Y-1882800D01*
X2750790Y-1867562D01*
X2743171Y-1837086D01*
X2735552Y-1821848D01*
X2727933Y-1814228D01*
X2712695Y-1806609D01*
X2697457Y-1806609D01*
X2682219Y-1814228D01*
X2674600Y-1821848D01*
X2666981Y-1837086D01*
X2666981Y-1875181D01*
X2674600Y-1898038D01*
X-3097200Y-3554000D02*
X-3097200Y-3047920D01*
X-1569200Y-3554000D02*
X-1569200Y-3048220D01*
X-42400Y-3554000D02*
X-42400Y-3051100D01*
X1482700Y-3554000D02*
X1482700Y-3051100D01*
X1165671Y-3545171D02*
X1148529Y-3550886D01*
X1119957Y-3550886D01*
X1108529Y-3545171D01*
X1102814Y-3539457D01*
X1097100Y-3528028D01*
X1097100Y-3516600D01*
X1102814Y-3505171D01*
X1108529Y-3499457D01*
X1119957Y-3493743D01*
X1142814Y-3488028D01*
X1154243Y-3482314D01*
X1159957Y-3476600D01*
X1165671Y-3465171D01*
X1165671Y-3453743D01*
X1159957Y-3442314D01*
X1154243Y-3436600D01*
X1142814Y-3430886D01*
X1114243Y-3430886D01*
X1097100Y-3436600D01*
X1022814Y-3430886D02*
X999957Y-3430886D01*
X988528Y-3436600D01*
X977100Y-3448028D01*
X971386Y-3470886D01*
X971386Y-3510886D01*
X977100Y-3533743D01*
X988528Y-3545171D01*
X999957Y-3550886D01*
X1022814Y-3550886D01*
X1034243Y-3545171D01*
X1045671Y-3533743D01*
X1051386Y-3510886D01*
X1051386Y-3470886D01*
X1045671Y-3448028D01*
X1034243Y-3436600D01*
X1022814Y-3430886D01*
X919957Y-3550886D02*
X919957Y-3430886D01*
X851386Y-3550886D01*
X851386Y-3430886D01*
X794243Y-3550886D02*
X794243Y-3430886D01*
X765671Y-3430886D01*
X748528Y-3436600D01*
X737100Y-3448028D01*
X731386Y-3459457D01*
X725671Y-3482314D01*
X725671Y-3499457D01*
X731386Y-3522314D01*
X737100Y-3533743D01*
X748528Y-3545171D01*
X765671Y-3550886D01*
X794243Y-3550886D01*
X679957Y-3516600D02*
X622814Y-3516600D01*
X691386Y-3550886D02*
X651386Y-3430886D01*
X611386Y-3550886D01*
X411386Y-3539457D02*
X417100Y-3545171D01*
X434243Y-3550886D01*
X445671Y-3550886D01*
X462814Y-3545171D01*
X474243Y-3533743D01*
X479957Y-3522314D01*
X485671Y-3499457D01*
X485671Y-3482314D01*
X479957Y-3459457D01*
X474243Y-3448028D01*
X462814Y-3436600D01*
X445671Y-3430886D01*
X434243Y-3430886D01*
X417100Y-3436600D01*
X411386Y-3442314D01*
X337100Y-3430886D02*
X314243Y-3430886D01*
X302814Y-3436600D01*
X291386Y-3448028D01*
X285671Y-3470886D01*
X285671Y-3510886D01*
X291386Y-3533743D01*
X302814Y-3545171D01*
X314243Y-3550886D01*
X337100Y-3550886D01*
X348529Y-3545171D01*
X359957Y-3533743D01*
X365671Y-3510886D01*
X365671Y-3470886D01*
X359957Y-3448028D01*
X348529Y-3436600D01*
X337100Y-3430886D01*
X177100Y-3550886D02*
X234243Y-3550886D01*
X234243Y-3430886D01*
X-802310Y-849386D02*
X-842310Y-969386D01*
X-882310Y-849386D01*
X-990881Y-957957D02*
X-985167Y-963671D01*
X-968024Y-969386D01*
X-956596Y-969386D01*
X-939453Y-963671D01*
X-928024Y-952243D01*
X-922310Y-940814D01*
X-916596Y-917957D01*
X-916596Y-900814D01*
X-922310Y-877957D01*
X-928024Y-866528D01*
X-939453Y-855100D01*
X-956596Y-849386D01*
X-968024Y-849386D01*
X-985167Y-855100D01*
X-990881Y-860814D01*
X-1110882Y-957957D02*
X-1105167Y-963671D01*
X-1088024Y-969386D01*
X-1076596Y-969386D01*
X-1059453Y-963671D01*
X-1048024Y-952243D01*
X-1042310Y-940814D01*
X-1036596Y-917957D01*
X-1036596Y-900814D01*
X-1042310Y-877957D01*
X-1048024Y-866528D01*
X-1059453Y-855100D01*
X-1076596Y-849386D01*
X-1088024Y-849386D01*
X-1105167Y-855100D01*
X-1110882Y-860814D01*
X-864971Y-1359800D02*
X-853543Y-1354086D01*
X-836400Y-1354086D01*
X-819257Y-1359800D01*
X-807829Y-1371229D01*
X-802114Y-1382657D01*
X-796400Y-1405514D01*
X-796400Y-1422657D01*
X-802114Y-1445514D01*
X-807829Y-1456943D01*
X-819257Y-1468371D01*
X-836400Y-1474086D01*
X-847829Y-1474086D01*
X-864971Y-1468371D01*
X-870686Y-1462657D01*
X-870686Y-1422657D01*
X-847829Y-1422657D01*
X-922114Y-1474086D02*
X-922114Y-1354086D01*
X-990686Y-1474086D01*
X-990686Y-1354086D01*
X-1047829Y-1474086D02*
X-1047829Y-1354086D01*
X-1076400Y-1354086D01*
X-1093543Y-1359800D01*
X-1104972Y-1371229D01*
X-1110686Y-1382657D01*
X-1116400Y-1405514D01*
X-1116400Y-1422657D01*
X-1110686Y-1445514D01*
X-1104972Y-1456943D01*
X-1093543Y-1468371D01*
X-1076400Y-1474086D01*
X-1047829Y-1474086D01*
D14*
X4999100Y-3746890D02*
X4998980Y3747000D01*
X-4998780Y-3746890D02*
X4999100Y-3746890D01*
D15*
X4346167Y1047710D02*
X4346167Y971519D01*
X4391881Y1062948D02*
X4231881Y1009614D01*
X4391881Y956281D01*
X4231881Y925805D02*
X4231881Y834376D01*
X4391881Y880090D02*
X4231881Y880090D01*
X4391881Y689614D02*
X4315690Y742948D01*
X4391881Y781043D02*
X4231881Y781043D01*
X4231881Y720090D01*
X4239500Y704852D01*
X4247119Y697233D01*
X4262357Y689614D01*
X4285214Y689614D01*
X4300452Y697233D01*
X4308071Y704852D01*
X4315690Y720090D01*
X4315690Y781043D01*
X4346167Y628662D02*
X4346167Y552472D01*
X4391881Y643900D02*
X4231881Y590567D01*
X4391881Y537233D01*
X4384262Y491519D02*
X4391881Y468662D01*
X4391881Y430567D01*
X4384262Y415329D01*
X4376643Y407710D01*
X4361405Y400090D01*
X4346167Y400090D01*
X4330929Y407710D01*
X4323310Y415329D01*
X4315690Y430567D01*
X4308071Y461043D01*
X4300452Y476281D01*
X4292833Y483900D01*
X4277595Y491519D01*
X4262357Y491519D01*
X4247119Y483900D01*
X4239500Y476281D01*
X4231881Y461043D01*
X4231881Y422948D01*
X4239500Y400090D01*
X4641643Y1462948D02*
X4649262Y1470567D01*
X4656881Y1493424D01*
X4656881Y1508662D01*
X4649262Y1531519D01*
X4634024Y1546757D01*
X4618786Y1554376D01*
X4588310Y1561995D01*
X4565452Y1561995D01*
X4534976Y1554376D01*
X4519738Y1546757D01*
X4504500Y1531519D01*
X4496881Y1508662D01*
X4496881Y1493424D01*
X4504500Y1470567D01*
X4512119Y1462948D01*
X4496881Y1363900D02*
X4496881Y1333424D01*
X4504500Y1318186D01*
X4519738Y1302948D01*
X4550214Y1295329D01*
X4603548Y1295329D01*
X4634024Y1302948D01*
X4649262Y1318186D01*
X4656881Y1333424D01*
X4656881Y1363900D01*
X4649262Y1379138D01*
X4634024Y1394376D01*
X4603548Y1401995D01*
X4550214Y1401995D01*
X4519738Y1394376D01*
X4504500Y1379138D01*
X4496881Y1363900D01*
X4656881Y1226757D02*
X4496881Y1226757D01*
X4611167Y1173424D01*
X4496881Y1120091D01*
X4656881Y1120091D01*
X4656881Y1043900D02*
X4496881Y1043900D01*
X4496881Y982948D01*
X4504500Y967710D01*
X4512119Y960090D01*
X4527357Y952471D01*
X4550214Y952471D01*
X4565452Y960090D01*
X4573071Y967710D01*
X4580690Y982948D01*
X4580690Y1043900D01*
X4496881Y853424D02*
X4496881Y822948D01*
X4504500Y807710D01*
X4519738Y792471D01*
X4550214Y784852D01*
X4603548Y784852D01*
X4634024Y792471D01*
X4649262Y807710D01*
X4656881Y822948D01*
X4656881Y853424D01*
X4649262Y868662D01*
X4634024Y883900D01*
X4603548Y891519D01*
X4550214Y891519D01*
X4519738Y883900D01*
X4504500Y868662D01*
X4496881Y853424D01*
X4656881Y716281D02*
X4496881Y716281D01*
X4656881Y624852D01*
X4496881Y624852D01*
X4573071Y548662D02*
X4573071Y495329D01*
X4656881Y472471D02*
X4656881Y548662D01*
X4496881Y548662D01*
X4496881Y472471D01*
X4656881Y403900D02*
X4496881Y403900D01*
X4656881Y312472D01*
X4496881Y312472D01*
X4496881Y259138D02*
X4496881Y167710D01*
X4656881Y213424D02*
X4496881Y213424D01*
X4573071Y114376D02*
X4573071Y61043D01*
X4656881Y38186D02*
X4656881Y114376D01*
X4496881Y114376D01*
X4496881Y38186D01*
X4649262Y-22767D02*
X4656881Y-45624D01*
X4656881Y-83719D01*
X4649262Y-98957D01*
X4641643Y-106576D01*
X4626405Y-114195D01*
X4611167Y-114195D01*
X4595929Y-106576D01*
X4588310Y-98957D01*
X4580690Y-83719D01*
X4573071Y-53243D01*
X4565452Y-38005D01*
X4557833Y-30386D01*
X4542595Y-22767D01*
X4527357Y-22767D01*
X4512119Y-30386D01*
X4504500Y-38005D01*
X4496881Y-53243D01*
X4496881Y-91338D01*
X4504500Y-114195D01*
D14*
X-4998780Y-3746890D02*
X-4998900Y3747000D01*
D10*
X2552581Y-3513267D02*
X2504962Y-3513267D01*
X2562105Y-3541838D02*
X2528771Y-3441838D01*
X2495438Y-3541838D01*
X2414486Y-3541838D02*
X2462105Y-3541838D01*
X2462105Y-3441838D01*
X2381152Y-3541838D02*
X2381152Y-3441838D01*
X2333533Y-3541838D02*
X2333533Y-3441838D01*
X2300200Y-3513267D01*
X2266867Y-3441838D01*
X2266867Y-3541838D01*
X2219248Y-3489457D02*
X2185914Y-3489457D01*
X2171629Y-3541838D02*
X2219248Y-3541838D01*
X2219248Y-3441838D01*
X2171629Y-3441838D01*
X2128771Y-3541838D02*
X2128771Y-3441838D01*
X2071628Y-3541838D01*
X2071628Y-3441838D01*
X2038295Y-3441838D02*
X1981152Y-3441838D01*
X2009724Y-3541838D02*
X2009724Y-3441838D01*
X1952581Y-3513267D02*
X1904962Y-3513267D01*
X1962105Y-3541838D02*
X1928771Y-3441838D01*
X1895438Y-3541838D01*
X1804962Y-3532314D02*
X1809724Y-3537076D01*
X1824009Y-3541838D01*
X1833533Y-3541838D01*
X1847819Y-3537076D01*
X1857343Y-3527552D01*
X1862105Y-3518028D01*
X1866867Y-3498981D01*
X1866867Y-3484695D01*
X1862105Y-3465648D01*
X1857343Y-3456124D01*
X1847819Y-3446600D01*
X1833533Y-3441838D01*
X1824009Y-3441838D01*
X1809724Y-3446600D01*
X1804962Y-3451362D01*
X1762105Y-3541838D02*
X1762105Y-3441838D01*
X1695438Y-3441838D02*
X1676390Y-3441838D01*
X1666867Y-3446600D01*
X1657343Y-3456124D01*
X1652581Y-3475171D01*
X1652581Y-3508505D01*
X1657343Y-3527552D01*
X1666867Y-3537076D01*
X1676390Y-3541838D01*
X1695438Y-3541838D01*
X1704962Y-3537076D01*
X1714486Y-3527552D01*
X1719248Y-3508505D01*
X1719248Y-3475171D01*
X1714486Y-3456124D01*
X1704962Y-3446600D01*
X1695438Y-3441838D01*
X1609724Y-3541838D02*
X1609724Y-3441838D01*
X1552581Y-3541838D01*
X1552581Y-3441838D01*
X-2311943Y2088857D02*
X-2388133Y2088857D01*
X-2350038Y2050762D02*
X-2350038Y2126952D01*
X-2511943Y2088857D02*
X-2588133Y2088857D01*
X-2707181Y2055524D02*
X-2721467Y2050762D01*
X-2745276Y2050762D01*
X-2754800Y2055524D01*
X-2759562Y2060286D01*
X-2764324Y2069810D01*
X-2764324Y2079333D01*
X-2759562Y2088857D01*
X-2754800Y2093619D01*
X-2745276Y2098381D01*
X-2726229Y2103143D01*
X-2716705Y2107905D01*
X-2711943Y2112667D01*
X-2707181Y2122191D01*
X-2707181Y2131714D01*
X-2711943Y2141238D01*
X-2716705Y2146000D01*
X-2726229Y2150762D01*
X-2750038Y2150762D01*
X-2764324Y2146000D01*
X-2864324Y2060286D02*
X-2859562Y2055524D01*
X-2845276Y2050762D01*
X-2835752Y2050762D01*
X-2821467Y2055524D01*
X-2811943Y2065048D01*
X-2807181Y2074571D01*
X-2802419Y2093619D01*
X-2802419Y2107905D01*
X-2807181Y2126952D01*
X-2811943Y2136476D01*
X-2821467Y2146000D01*
X-2835752Y2150762D01*
X-2845276Y2150762D01*
X-2859562Y2146000D01*
X-2864324Y2141238D01*
X-2902419Y2079333D02*
X-2950038Y2079333D01*
X-2892895Y2050762D02*
X-2926229Y2150762D01*
X-2959562Y2050762D01*
X-3064324Y2055524D02*
X-3078610Y2050762D01*
X-3102419Y2050762D01*
X-3111943Y2055524D01*
X-3116705Y2060286D01*
X-3121467Y2069810D01*
X-3121467Y2079333D01*
X-3116705Y2088857D01*
X-3111943Y2093619D01*
X-3102419Y2098381D01*
X-3083371Y2103143D01*
X-3073848Y2107905D01*
X-3069086Y2112667D01*
X-3064324Y2122191D01*
X-3064324Y2131714D01*
X-3069086Y2141238D01*
X-3073848Y2146000D01*
X-3083371Y2150762D01*
X-3107181Y2150762D01*
X-3121467Y2146000D01*
X-3221467Y2060286D02*
X-3216705Y2055524D01*
X-3202419Y2050762D01*
X-3192895Y2050762D01*
X-3178610Y2055524D01*
X-3169086Y2065048D01*
X-3164324Y2074571D01*
X-3159562Y2093619D01*
X-3159562Y2107905D01*
X-3164324Y2126952D01*
X-3169086Y2136476D01*
X-3178610Y2146000D01*
X-3192895Y2150762D01*
X-3202419Y2150762D01*
X-3216705Y2146000D01*
X-3221467Y2141238D01*
X-3311943Y2050762D02*
X-3264324Y2050762D01*
X-3264324Y2150762D01*
X-1288849Y2073730D02*
X-1345992Y2073730D01*
X-1277420Y2039444D02*
X-1317420Y2159444D01*
X-1357420Y2039444D01*
X-1448849Y2119444D02*
X-1448849Y2039444D01*
X-1420277Y2165159D02*
X-1391706Y2079444D01*
X-1465991Y2079444D01*
X-1511706Y2085159D02*
X-1603134Y2085159D01*
X-1654563Y2073730D02*
X-1711706Y2073730D01*
X-1643134Y2039444D02*
X-1683134Y2159444D01*
X-1723134Y2039444D01*
X-1820277Y2159444D02*
X-1763134Y2159444D01*
X-1757420Y2102302D01*
X-1763134Y2108016D01*
X-1774563Y2113730D01*
X-1803134Y2113730D01*
X-1814563Y2108016D01*
X-1820277Y2102302D01*
X-1825991Y2090873D01*
X-1825991Y2062301D01*
X-1820277Y2050873D01*
X-1814563Y2045159D01*
X-1803134Y2039444D01*
X-1774563Y2039444D01*
X-1763134Y2045159D01*
X-1757420Y2050873D01*
D16*
%TO.C,RELE-3-4*%
X3218000Y-2682500D02*
X3345000Y-2682500D01*
X3218000Y-2555500D02*
X3218000Y-2682500D01*
X3449293Y-1755500D02*
X3489000Y-1755500D01*
X3449293Y-1831500D02*
X3489000Y-1831500D01*
X4355000Y-1755500D02*
X3755000Y-1755500D01*
X4355000Y-1831500D02*
X4355000Y-1755500D01*
X3755000Y-1831500D02*
X4355000Y-1831500D01*
X3489000Y-1920500D02*
X3755000Y-1920500D01*
X3449293Y-2009500D02*
X3489000Y-2009500D01*
X3449293Y-2085500D02*
X3489000Y-2085500D01*
X4355000Y-2009500D02*
X3755000Y-2009500D01*
X4355000Y-2085500D02*
X4355000Y-2009500D01*
X3755000Y-2085500D02*
X4355000Y-2085500D01*
X3489000Y-2174500D02*
X3755000Y-2174500D01*
X3449293Y-2263500D02*
X3489000Y-2263500D01*
X3449293Y-2339500D02*
X3489000Y-2339500D01*
X4355000Y-2263500D02*
X3755000Y-2263500D01*
X4355000Y-2339500D02*
X4355000Y-2263500D01*
X3755000Y-2339500D02*
X4355000Y-2339500D01*
X3489000Y-2428500D02*
X3755000Y-2428500D01*
X3456000Y-2517500D02*
X3489000Y-2517500D01*
X3456000Y-2593500D02*
X3489000Y-2593500D01*
X3755000Y-2527500D02*
X4355000Y-2527500D01*
X3755000Y-2539500D02*
X4355000Y-2539500D01*
X3755000Y-2551500D02*
X4355000Y-2551500D01*
X3755000Y-2563500D02*
X4355000Y-2563500D01*
X3755000Y-2575500D02*
X4355000Y-2575500D01*
X3755000Y-2587500D02*
X4355000Y-2587500D01*
X4355000Y-2517500D02*
X3755000Y-2517500D01*
X4355000Y-2593500D02*
X4355000Y-2517500D01*
X3755000Y-2593500D02*
X4355000Y-2593500D01*
X3755000Y-2688500D02*
X3489000Y-2688500D01*
X3755000Y-1660500D02*
X3755000Y-2688500D01*
X3489000Y-1660500D02*
X3755000Y-1660500D01*
X3489000Y-2688500D02*
X3489000Y-1660500D01*
%TO.C,RELE-1-2*%
X3218000Y-1445500D02*
X3345000Y-1445500D01*
X3218000Y-1318500D02*
X3218000Y-1445500D01*
X3449293Y-518500D02*
X3489000Y-518500D01*
X3449293Y-594500D02*
X3489000Y-594500D01*
X4355000Y-518500D02*
X3755000Y-518500D01*
X4355000Y-594500D02*
X4355000Y-518500D01*
X3755000Y-594500D02*
X4355000Y-594500D01*
X3489000Y-683500D02*
X3755000Y-683500D01*
X3449293Y-772500D02*
X3489000Y-772500D01*
X3449293Y-848500D02*
X3489000Y-848500D01*
X4355000Y-772500D02*
X3755000Y-772500D01*
X4355000Y-848500D02*
X4355000Y-772500D01*
X3755000Y-848500D02*
X4355000Y-848500D01*
X3489000Y-937500D02*
X3755000Y-937500D01*
X3449293Y-1026500D02*
X3489000Y-1026500D01*
X3449293Y-1102500D02*
X3489000Y-1102500D01*
X4355000Y-1026500D02*
X3755000Y-1026500D01*
X4355000Y-1102500D02*
X4355000Y-1026500D01*
X3755000Y-1102500D02*
X4355000Y-1102500D01*
X3489000Y-1191500D02*
X3755000Y-1191500D01*
X3456000Y-1280500D02*
X3489000Y-1280500D01*
X3456000Y-1356500D02*
X3489000Y-1356500D01*
X3755000Y-1290500D02*
X4355000Y-1290500D01*
X3755000Y-1302500D02*
X4355000Y-1302500D01*
X3755000Y-1314500D02*
X4355000Y-1314500D01*
X3755000Y-1326500D02*
X4355000Y-1326500D01*
X3755000Y-1338500D02*
X4355000Y-1338500D01*
X3755000Y-1350500D02*
X4355000Y-1350500D01*
X4355000Y-1280500D02*
X3755000Y-1280500D01*
X4355000Y-1356500D02*
X4355000Y-1280500D01*
X3755000Y-1356500D02*
X4355000Y-1356500D01*
X3755000Y-1451500D02*
X3489000Y-1451500D01*
X3755000Y-423500D02*
X3755000Y-1451500D01*
X3489000Y-423500D02*
X3755000Y-423500D01*
X3489000Y-1451500D02*
X3489000Y-423500D01*
%TO.C,ARDUINO_R1*%
X-1536290Y-1539460D02*
X-1270290Y-1539460D01*
X-1536290Y-1539460D02*
X-1536290Y1514540D01*
X-1536290Y1514540D02*
X-1270290Y1514540D01*
X-1270290Y-1539460D02*
X-1270290Y1514540D01*
X-1270290Y-1799460D02*
X-1270290Y-1666460D01*
X-1403290Y-1799460D02*
X-1270290Y-1799460D01*
%TO.C,ARDUINO_L1*%
X-3060290Y-1539460D02*
X-2794290Y-1539460D01*
X-3060290Y-1539460D02*
X-3060290Y1514540D01*
X-3060290Y1514540D02*
X-2794290Y1514540D01*
X-2794290Y-1539460D02*
X-2794290Y1514540D01*
X-2794290Y-1799460D02*
X-2794290Y-1666460D01*
X-2927290Y-1799460D02*
X-2794290Y-1799460D01*
%TO.C,I2C-LCD1*%
X-2234320Y2264500D02*
X-2234320Y2391500D01*
X-2361320Y2264500D02*
X-2234320Y2264500D01*
X-3161320Y2495793D02*
X-3161320Y2535500D01*
X-3085320Y2495793D02*
X-3085320Y2535500D01*
X-3161320Y3401500D02*
X-3161320Y2801500D01*
X-3085320Y3401500D02*
X-3161320Y3401500D01*
X-3085320Y2801500D02*
X-3085320Y3401500D01*
X-2996320Y2535500D02*
X-2996320Y2801500D01*
X-2907320Y2495793D02*
X-2907320Y2535500D01*
X-2831320Y2495793D02*
X-2831320Y2535500D01*
X-2907320Y3401500D02*
X-2907320Y2801500D01*
X-2831320Y3401500D02*
X-2907320Y3401500D01*
X-2831320Y2801500D02*
X-2831320Y3401500D01*
X-2742320Y2535500D02*
X-2742320Y2801500D01*
X-2653320Y2495793D02*
X-2653320Y2535500D01*
X-2577320Y2495793D02*
X-2577320Y2535500D01*
X-2653320Y3401500D02*
X-2653320Y2801500D01*
X-2577320Y3401500D02*
X-2653320Y3401500D01*
X-2577320Y2801500D02*
X-2577320Y3401500D01*
X-2488320Y2535500D02*
X-2488320Y2801500D01*
X-2399320Y2502500D02*
X-2399320Y2535500D01*
X-2323320Y2502500D02*
X-2323320Y2535500D01*
X-2389320Y2801500D02*
X-2389320Y3401500D01*
X-2377320Y2801500D02*
X-2377320Y3401500D01*
X-2365320Y2801500D02*
X-2365320Y3401500D01*
X-2353320Y2801500D02*
X-2353320Y3401500D01*
X-2341320Y2801500D02*
X-2341320Y3401500D01*
X-2329320Y2801500D02*
X-2329320Y3401500D01*
X-2399320Y3401500D02*
X-2399320Y2801500D01*
X-2323320Y3401500D02*
X-2399320Y3401500D01*
X-2323320Y2801500D02*
X-2323320Y3401500D01*
X-2228320Y2801500D02*
X-2228320Y2535500D01*
X-3256320Y2801500D02*
X-2228320Y2801500D01*
X-3256320Y2535500D02*
X-3256320Y2801500D01*
X-2228320Y2535500D02*
X-3256320Y2535500D01*
%TO.C,A4-A5*%
X-1313920Y2524500D02*
X-1313920Y2258500D01*
X-1573920Y2524500D02*
X-1313920Y2524500D01*
X-1573920Y2258500D02*
X-1313920Y2258500D01*
X-1573920Y2524500D02*
X-1573920Y2258500D01*
X-1700920Y2524500D02*
X-1833920Y2524500D01*
X-1833920Y2524500D02*
X-1833920Y2391500D01*
%TO.C,BUZZER1*%
X-3429600Y-2092960D02*
G75*
G03*
X-3429600Y-2092960I-610000J0D01*
G01*
%TO.C,BORNERA1*%
X2459100Y-2614000D02*
G75*
G03*
X2459100Y-2614000I-218000J0D01*
G01*
X1951100Y-2614000D02*
G75*
G03*
X1951100Y-2614000I-218000J0D01*
G01*
X1443100Y-2614000D02*
G75*
G03*
X1443100Y-2614000I-218000J0D01*
G01*
X935100Y-2614000D02*
G75*
G03*
X935100Y-2614000I-218000J0D01*
G01*
X427100Y-2614000D02*
G75*
G03*
X427100Y-2614000I-218000J0D01*
G01*
X-80900Y-2614000D02*
G75*
G03*
X-80900Y-2614000I-218000J0D01*
G01*
X-588900Y-2614000D02*
G75*
G03*
X-588900Y-2614000I-218000J0D01*
G01*
X-1096900Y-2614000D02*
G75*
G03*
X-1096900Y-2614000I-218000J0D01*
G01*
X-1604900Y-2614000D02*
G75*
G03*
X-1604900Y-2614000I-218000J0D01*
G01*
X-2112900Y-2614000D02*
G75*
G03*
X-2112900Y-2614000I-218000J0D01*
G01*
X-2620900Y-2614000D02*
G75*
G03*
X-2620900Y-2614000I-218000J0D01*
G01*
X2501100Y-3018800D02*
X-3098900Y-3018800D01*
X2501100Y-2944000D02*
X-3098900Y-2944000D01*
X2502100Y-2309000D02*
X-3097900Y-2309000D01*
X2502100Y-2309000D02*
X2501100Y-3018800D01*
X-3097900Y-2309000D02*
X-3098900Y-3018800D01*
X2075700Y-2475200D02*
X2086400Y-2485900D01*
X2369300Y-2768700D02*
X2379900Y-2779400D01*
X2102300Y-2448600D02*
X2113000Y-2459300D01*
X2395900Y-2742100D02*
X2406500Y-2752800D01*
X1567700Y-2475200D02*
X1607200Y-2514800D01*
X1833800Y-2741400D02*
X1871800Y-2779400D01*
X1594300Y-2448600D02*
X1632300Y-2486600D01*
X1858900Y-2713200D02*
X1898400Y-2752800D01*
X1059700Y-2475200D02*
X1099200Y-2514800D01*
X1325800Y-2741400D02*
X1363800Y-2779400D01*
X1086300Y-2448600D02*
X1124300Y-2486600D01*
X1350900Y-2713200D02*
X1390400Y-2752800D01*
X551700Y-2475200D02*
X591200Y-2514800D01*
X817800Y-2741400D02*
X855800Y-2779400D01*
X578300Y-2448600D02*
X616300Y-2486600D01*
X842900Y-2713200D02*
X882400Y-2752800D01*
X43700Y-2475200D02*
X83200Y-2514800D01*
X309800Y-2741400D02*
X347800Y-2779400D01*
X70300Y-2448600D02*
X108300Y-2486600D01*
X334900Y-2713200D02*
X374400Y-2752800D01*
X-464300Y-2475200D02*
X-424800Y-2514800D01*
X-198200Y-2741400D02*
X-160200Y-2779400D01*
X-437700Y-2448600D02*
X-399700Y-2486600D01*
X-173100Y-2713200D02*
X-133600Y-2752800D01*
X-972300Y-2475200D02*
X-932800Y-2514800D01*
X-706200Y-2741400D02*
X-668200Y-2779400D01*
X-945700Y-2448600D02*
X-907700Y-2486600D01*
X-681100Y-2713200D02*
X-641600Y-2752800D01*
X-1480300Y-2475200D02*
X-1440800Y-2514800D01*
X-1214200Y-2741400D02*
X-1176200Y-2779400D01*
X-1453700Y-2448600D02*
X-1415700Y-2486600D01*
X-1189100Y-2713200D02*
X-1149600Y-2752800D01*
X-1988300Y-2475200D02*
X-1948800Y-2514800D01*
X-1722200Y-2741400D02*
X-1684200Y-2779400D01*
X-1961700Y-2448600D02*
X-1923700Y-2486600D01*
X-1697100Y-2713200D02*
X-1657600Y-2752800D01*
X-2496300Y-2475200D02*
X-2456800Y-2514800D01*
X-2230200Y-2741400D02*
X-2192200Y-2779400D01*
X-2469700Y-2448600D02*
X-2431700Y-2486600D01*
X-2205100Y-2713200D02*
X-2165600Y-2752800D01*
X-3004300Y-2475200D02*
X-2964800Y-2514800D01*
X-2738200Y-2741400D02*
X-2700200Y-2779400D01*
X-2977700Y-2448600D02*
X-2939700Y-2486600D01*
X-2713100Y-2713200D02*
X-2673600Y-2752800D01*
%TD*%
M02*
