M48
; DRILL file {KiCad 5.1.10} date Tue Aug 31 01:27:23 2021
; FORMAT={-:-/ absolute / metric / decimal}
; #@! TF.CreationDate,2021-08-31T01:27:23+02:00
; #@! TF.GenerationSoftware,Kicad,Pcbnew,5.1.10
; #@! TF.FileFunction,Plated,1,2,PTH
FMAT,2
METRIC
T1C0.800
T2C0.900
T3C1.000
T4C3.000
%
G90
G05
T1
X-44.196Y-20.93
X-36.596Y-20.93
X-29.273Y11.275
X-29.273Y8.735
X-29.273Y6.195
X-29.273Y3.655
X-29.273Y1.115
X-29.273Y-1.425
X-29.273Y-3.965
X-29.273Y-6.505
X-29.273Y-9.045
X-14.033Y11.275
X-14.033Y8.735
X-14.033Y6.195
X-14.033Y3.655
X-14.033Y1.115
X-14.033Y-1.425
X-14.033Y-3.965
X-14.033Y-6.505
X-14.033Y-9.045
X-14.033Y-14.125
X-14.033Y-16.665
T2
X-31.233Y23.915
X-28.693Y23.915
X-26.153Y23.915
X-23.613Y23.915
X-17.009Y23.915
X-14.469Y23.915
X33.45Y-5.565
X33.45Y-8.105
X33.45Y-10.645
X33.45Y-13.185
X33.45Y-17.935
X33.45Y-20.475
X33.45Y-23.015
X33.45Y-25.555
T3
X-28.389Y-26.14
X-23.309Y-26.14
X-18.229Y-26.14
X-13.149Y-26.14
X-8.069Y-26.14
X-2.989Y-26.14
X2.091Y-26.14
X7.171Y-26.14
X12.251Y-26.14
X17.331Y-26.14
X22.411Y-26.14
T4
X-43.989Y31.47
X-43.988Y-31.469
X15.776Y16.816
X43.991Y31.47
X43.991Y-31.469
T0
M30
