%TF.GenerationSoftware,KiCad,Pcbnew,5.1.10*%
%TF.CreationDate,2021-09-02T20:29:26+02:00*%
%TF.ProjectId,Termostato-Diferencial-Mini,5465726d-6f73-4746-9174-6f2d44696665,rev?*%
%TF.SameCoordinates,PX9e11d20PY4c6afd0*%
%TF.FileFunction,Soldermask,Bot*%
%TF.FilePolarity,Negative*%
%FSLAX45Y45*%
G04 Gerber Fmt 4.5, Leading zero omitted, Abs format (unit mm)*
G04 Created by KiCad (PCBNEW 5.1.10) date 2021-09-02 20:29:26*
%MOMM*%
%LPD*%
G01*
G04 APERTURE LIST*
%TA.AperFunction,Profile*%
%ADD10C,0.200000*%
%TD*%
%ADD11O,3.000000X1.700000*%
%ADD12R,3.000000X1.700000*%
%ADD13C,6.000000*%
%ADD14O,1.700000X3.000000*%
%ADD15R,1.700000X3.000000*%
%ADD16C,3.000000*%
%ADD17R,3.000000X3.000000*%
%ADD18O,2.600000X4.000000*%
%ADD19R,2.600000X4.000000*%
G04 APERTURE END LIST*
D10*
X4998980Y3747000D02*
X-4998900Y3747000D01*
X4999100Y-3746890D02*
X4998980Y3747000D01*
X-4998780Y-3746890D02*
X4999100Y-3746890D01*
X-4998780Y-3746890D02*
X-4998900Y3747000D01*
D11*
%TO.C,RELE-3-4*%
X3345000Y-1793500D03*
X3345000Y-2047500D03*
D12*
X3345000Y-2301500D03*
D11*
X3345000Y-2555500D03*
%TD*%
%TO.C,RELE-1-2*%
X3345000Y-556500D03*
X3345000Y-810500D03*
D12*
X3345000Y-1064500D03*
D11*
X3345000Y-1318500D03*
%TD*%
%TO.C,ARDUINO_R1*%
X-1403290Y1127540D03*
X-1403290Y873540D03*
X-1403290Y619540D03*
X-1403290Y365540D03*
X-1403290Y111540D03*
X-1403290Y-142460D03*
X-1403290Y-396460D03*
X-1403290Y-650460D03*
X-1403290Y-904460D03*
D12*
X-1403290Y-1412460D03*
D11*
X-1403290Y-1666460D03*
%TD*%
%TO.C,ARDUINO_L1*%
X-2927290Y1127540D03*
X-2927290Y873540D03*
X-2927290Y619540D03*
X-2927290Y365540D03*
X-2927290Y111540D03*
X-2927290Y-142460D03*
X-2927290Y-396460D03*
X-2927290Y-650460D03*
D12*
X-2927290Y-904460D03*
%TD*%
D13*
%TO.C,TORNILLO-1*%
X4399100Y3147000D03*
%TD*%
D14*
%TO.C,I2C-LCD1*%
X-3123320Y2391500D03*
X-2869320Y2391500D03*
D15*
X-2615320Y2391500D03*
D14*
X-2361320Y2391500D03*
%TD*%
%TO.C,A4-A5*%
X-1446920Y2391500D03*
X-1700920Y2391500D03*
%TD*%
D16*
%TO.C,BUZZER1*%
X-3659600Y-2092960D03*
D17*
X-4419600Y-2092960D03*
%TD*%
D18*
%TO.C,BORNERA1*%
X-2838900Y-2614000D03*
D19*
X-2330900Y-2614000D03*
D18*
X-1822900Y-2614000D03*
X-1314900Y-2614000D03*
D19*
X-806900Y-2614000D03*
D18*
X-298900Y-2614000D03*
X209100Y-2614000D03*
D19*
X717100Y-2614000D03*
D18*
X1225100Y-2614000D03*
D19*
X1733100Y-2614000D03*
X2241100Y-2614000D03*
%TD*%
D13*
%TO.C,TORNILLO-3*%
X1577600Y1681600D03*
%TD*%
%TO.C,TORNILLO-4*%
X-4398780Y-3146890D03*
%TD*%
%TO.C,TORNILLO-5*%
X4399100Y-3146890D03*
%TD*%
%TO.C,TORNILLO-1*%
X-4398900Y3147000D03*
%TD*%
M02*
