%TF.GenerationSoftware,KiCad,Pcbnew,5.1.10*%
%TF.CreationDate,2021-09-02T20:29:26+02:00*%
%TF.ProjectId,Termostato-Diferencial-Mini,5465726d-6f73-4746-9174-6f2d44696665,rev?*%
%TF.SameCoordinates,PX9e11d20PY4c6afd0*%
%TF.FileFunction,Soldermask,Top*%
%TF.FilePolarity,Negative*%
%FSLAX45Y45*%
G04 Gerber Fmt 4.5, Leading zero omitted, Abs format (unit mm)*
G04 Created by KiCad (PCBNEW 5.1.10) date 2021-09-02 20:29:26*
%MOMM*%
%LPD*%
G01*
G04 APERTURE LIST*
%TA.AperFunction,Profile*%
%ADD10C,0.200000*%
%TD*%
%ADD11R,2.000000X1.750000*%
%ADD12O,3.000000X1.700000*%
%ADD13R,3.000000X1.700000*%
%ADD14C,6.000000*%
%ADD15O,1.700000X3.000000*%
%ADD16R,1.700000X3.000000*%
%ADD17C,3.000000*%
%ADD18R,3.000000X3.000000*%
%ADD19O,2.600000X4.000000*%
%ADD20R,2.600000X4.000000*%
%ADD21R,5.798000X1.850000*%
G04 APERTURE END LIST*
D10*
X4998980Y3747000D02*
X-4998900Y3747000D01*
X4999100Y-3746890D02*
X4998980Y3747000D01*
X-4998780Y-3746890D02*
X4999100Y-3746890D01*
X-4998780Y-3746890D02*
X-4998900Y3747000D01*
%TO.C,R_L_C_R1*%
G36*
G01*
X-3720890Y-1665150D02*
X-3818190Y-1665150D01*
G75*
G02*
X-3857040Y-1626300I0J38850D01*
G01*
X-3857040Y-1504000D01*
G75*
G02*
X-3818190Y-1465150I38850J0D01*
G01*
X-3720890Y-1465150D01*
G75*
G02*
X-3682040Y-1504000I0J-38850D01*
G01*
X-3682040Y-1626300D01*
G75*
G02*
X-3720890Y-1665150I-38850J0D01*
G01*
G37*
G36*
G01*
X-3720890Y-1286650D02*
X-3818190Y-1286650D01*
G75*
G02*
X-3857040Y-1247800I0J38850D01*
G01*
X-3857040Y-1125500D01*
G75*
G02*
X-3818190Y-1086650I38850J0D01*
G01*
X-3720890Y-1086650D01*
G75*
G02*
X-3682040Y-1125500I0J-38850D01*
G01*
X-3682040Y-1247800D01*
G75*
G02*
X-3720890Y-1286650I-38850J0D01*
G01*
G37*
%TD*%
%TO.C,R_TEMP1*%
G36*
G01*
X-2483810Y-841130D02*
X-2483810Y-743830D01*
G75*
G02*
X-2444960Y-704980I38850J0D01*
G01*
X-2322660Y-704980D01*
G75*
G02*
X-2283810Y-743830I0J-38850D01*
G01*
X-2283810Y-841130D01*
G75*
G02*
X-2322660Y-879980I-38850J0D01*
G01*
X-2444960Y-879980D01*
G75*
G02*
X-2483810Y-841130I0J38850D01*
G01*
G37*
G36*
G01*
X-2105310Y-841130D02*
X-2105310Y-743830D01*
G75*
G02*
X-2066460Y-704980I38850J0D01*
G01*
X-1944160Y-704980D01*
G75*
G02*
X-1905310Y-743830I0J-38850D01*
G01*
X-1905310Y-841130D01*
G75*
G02*
X-1944160Y-879980I-38850J0D01*
G01*
X-2066460Y-879980D01*
G75*
G02*
X-2105310Y-841130I0J38850D01*
G01*
G37*
%TD*%
%TO.C,R_D1*%
G36*
G01*
X-2456630Y73270D02*
X-2456630Y170570D01*
G75*
G02*
X-2417780Y209420I38850J0D01*
G01*
X-2295480Y209420D01*
G75*
G02*
X-2256630Y170570I0J-38850D01*
G01*
X-2256630Y73270D01*
G75*
G02*
X-2295480Y34420I-38850J0D01*
G01*
X-2417780Y34420D01*
G75*
G02*
X-2456630Y73270I0J38850D01*
G01*
G37*
G36*
G01*
X-2078130Y73270D02*
X-2078130Y170570D01*
G75*
G02*
X-2039280Y209420I38850J0D01*
G01*
X-1916980Y209420D01*
G75*
G02*
X-1878130Y170570I0J-38850D01*
G01*
X-1878130Y73270D01*
G75*
G02*
X-1916980Y34420I-38850J0D01*
G01*
X-2039280Y34420D01*
G75*
G02*
X-2078130Y73270I0J38850D01*
G01*
G37*
%TD*%
%TO.C,R_BK1*%
G36*
G01*
X-2456630Y428870D02*
X-2456630Y526170D01*
G75*
G02*
X-2417780Y565020I38850J0D01*
G01*
X-2295480Y565020D01*
G75*
G02*
X-2256630Y526170I0J-38850D01*
G01*
X-2256630Y428870D01*
G75*
G02*
X-2295480Y390020I-38850J0D01*
G01*
X-2417780Y390020D01*
G75*
G02*
X-2456630Y428870I0J38850D01*
G01*
G37*
G36*
G01*
X-2078130Y428870D02*
X-2078130Y526170D01*
G75*
G02*
X-2039280Y565020I38850J0D01*
G01*
X-1916980Y565020D01*
G75*
G02*
X-1878130Y526170I0J-38850D01*
G01*
X-1878130Y428870D01*
G75*
G02*
X-1916980Y390020I-38850J0D01*
G01*
X-2039280Y390020D01*
G75*
G02*
X-2078130Y428870I0J38850D01*
G01*
G37*
%TD*%
%TO.C,R_U1*%
G36*
G01*
X-2456630Y784470D02*
X-2456630Y881770D01*
G75*
G02*
X-2417780Y920620I38850J0D01*
G01*
X-2295480Y920620D01*
G75*
G02*
X-2256630Y881770I0J-38850D01*
G01*
X-2256630Y784470D01*
G75*
G02*
X-2295480Y745620I-38850J0D01*
G01*
X-2417780Y745620D01*
G75*
G02*
X-2456630Y784470I0J38850D01*
G01*
G37*
G36*
G01*
X-2078130Y784470D02*
X-2078130Y881770D01*
G75*
G02*
X-2039280Y920620I38850J0D01*
G01*
X-1916980Y920620D01*
G75*
G02*
X-1878130Y881770I0J-38850D01*
G01*
X-1878130Y784470D01*
G75*
G02*
X-1916980Y745620I-38850J0D01*
G01*
X-2039280Y745620D01*
G75*
G02*
X-2078130Y784470I0J38850D01*
G01*
G37*
%TD*%
%TO.C,R_OK1*%
G36*
G01*
X-2456630Y1134990D02*
X-2456630Y1232290D01*
G75*
G02*
X-2417780Y1271140I38850J0D01*
G01*
X-2295480Y1271140D01*
G75*
G02*
X-2256630Y1232290I0J-38850D01*
G01*
X-2256630Y1134990D01*
G75*
G02*
X-2295480Y1096140I-38850J0D01*
G01*
X-2417780Y1096140D01*
G75*
G02*
X-2456630Y1134990I0J38850D01*
G01*
G37*
G36*
G01*
X-2078130Y1134990D02*
X-2078130Y1232290D01*
G75*
G02*
X-2039280Y1271140I38850J0D01*
G01*
X-1916980Y1271140D01*
G75*
G02*
X-1878130Y1232290I0J-38850D01*
G01*
X-1878130Y1134990D01*
G75*
G02*
X-1916980Y1096140I-38850J0D01*
G01*
X-2039280Y1096140D01*
G75*
G02*
X-2078130Y1134990I0J38850D01*
G01*
G37*
%TD*%
D11*
%TO.C,LED_REFRIGERADOR1*%
X-4636030Y-1660260D03*
G36*
G01*
X-4380030Y-1712760D02*
X-4380030Y-1607760D01*
G75*
G02*
X-4345030Y-1572760I35000J0D01*
G01*
X-4215030Y-1572760D01*
G75*
G02*
X-4180030Y-1607760I0J-35000D01*
G01*
X-4180030Y-1712760D01*
G75*
G02*
X-4215030Y-1747760I-35000J0D01*
G01*
X-4345030Y-1747760D01*
G75*
G02*
X-4380030Y-1712760I0J35000D01*
G01*
G37*
%TD*%
%TO.C,LED_CALENTADOR1*%
X-4636030Y-873260D03*
G36*
G01*
X-4380030Y-925760D02*
X-4380030Y-820760D01*
G75*
G02*
X-4345030Y-785760I35000J0D01*
G01*
X-4215030Y-785760D01*
G75*
G02*
X-4180030Y-820760I0J-35000D01*
G01*
X-4180030Y-925760D01*
G75*
G02*
X-4215030Y-960760I-35000J0D01*
G01*
X-4345030Y-960760D01*
G75*
G02*
X-4380030Y-925760I0J35000D01*
G01*
G37*
%TD*%
%TO.C,LED_PUMP_PULS1*%
X-4636030Y-85860D03*
G36*
G01*
X-4380030Y-138360D02*
X-4380030Y-33360D01*
G75*
G02*
X-4345030Y1640I35000J0D01*
G01*
X-4215030Y1640D01*
G75*
G02*
X-4180030Y-33360I0J-35000D01*
G01*
X-4180030Y-138360D01*
G75*
G02*
X-4215030Y-173360I-35000J0D01*
G01*
X-4345030Y-173360D01*
G75*
G02*
X-4380030Y-138360I0J35000D01*
G01*
G37*
%TD*%
%TO.C,LED_PUMP1*%
X-4636030Y701540D03*
G36*
G01*
X-4380030Y649040D02*
X-4380030Y754040D01*
G75*
G02*
X-4345030Y789040I35000J0D01*
G01*
X-4215030Y789040D01*
G75*
G02*
X-4180030Y754040I0J-35000D01*
G01*
X-4180030Y649040D01*
G75*
G02*
X-4215030Y614040I-35000J0D01*
G01*
X-4345030Y614040D01*
G75*
G02*
X-4380030Y649040I0J35000D01*
G01*
G37*
%TD*%
%TO.C,LED_LOOP1*%
X-4636030Y1488940D03*
G36*
G01*
X-4380030Y1436440D02*
X-4380030Y1541440D01*
G75*
G02*
X-4345030Y1576440I35000J0D01*
G01*
X-4215030Y1576440D01*
G75*
G02*
X-4180030Y1541440I0J-35000D01*
G01*
X-4180030Y1436440D01*
G75*
G02*
X-4215030Y1401440I-35000J0D01*
G01*
X-4345030Y1401440D01*
G75*
G02*
X-4380030Y1436440I0J35000D01*
G01*
G37*
%TD*%
%TO.C,LED_ALARMA1*%
X-4636030Y2276340D03*
G36*
G01*
X-4380030Y2223840D02*
X-4380030Y2328840D01*
G75*
G02*
X-4345030Y2363840I35000J0D01*
G01*
X-4215030Y2363840D01*
G75*
G02*
X-4180030Y2328840I0J-35000D01*
G01*
X-4180030Y2223840D01*
G75*
G02*
X-4215030Y2188840I-35000J0D01*
G01*
X-4345030Y2188840D01*
G75*
G02*
X-4380030Y2223840I0J35000D01*
G01*
G37*
%TD*%
%TO.C,R_L_C1*%
G36*
G01*
X-3719280Y-1022650D02*
X-3816580Y-1022650D01*
G75*
G02*
X-3855430Y-983800I0J38850D01*
G01*
X-3855430Y-861500D01*
G75*
G02*
X-3816580Y-822650I38850J0D01*
G01*
X-3719280Y-822650D01*
G75*
G02*
X-3680430Y-861500I0J-38850D01*
G01*
X-3680430Y-983800D01*
G75*
G02*
X-3719280Y-1022650I-38850J0D01*
G01*
G37*
G36*
G01*
X-3719280Y-644150D02*
X-3816580Y-644150D01*
G75*
G02*
X-3855430Y-605300I0J38850D01*
G01*
X-3855430Y-483000D01*
G75*
G02*
X-3816580Y-444150I38850J0D01*
G01*
X-3719280Y-444150D01*
G75*
G02*
X-3680430Y-483000I0J-38850D01*
G01*
X-3680430Y-605300D01*
G75*
G02*
X-3719280Y-644150I-38850J0D01*
G01*
G37*
%TD*%
%TO.C,R_L_P1*%
G36*
G01*
X-3716480Y-276250D02*
X-3813780Y-276250D01*
G75*
G02*
X-3852630Y-237400I0J38850D01*
G01*
X-3852630Y-115100D01*
G75*
G02*
X-3813780Y-76250I38850J0D01*
G01*
X-3716480Y-76250D01*
G75*
G02*
X-3677630Y-115100I0J-38850D01*
G01*
X-3677630Y-237400D01*
G75*
G02*
X-3716480Y-276250I-38850J0D01*
G01*
G37*
G36*
G01*
X-3716480Y102250D02*
X-3813780Y102250D01*
G75*
G02*
X-3852630Y141100I0J38850D01*
G01*
X-3852630Y263400D01*
G75*
G02*
X-3813780Y302250I38850J0D01*
G01*
X-3716480Y302250D01*
G75*
G02*
X-3677630Y263400I0J-38850D01*
G01*
X-3677630Y141100D01*
G75*
G02*
X-3716480Y102250I-38850J0D01*
G01*
G37*
%TD*%
%TO.C,R_L_B1*%
G36*
G01*
X-3813780Y1048250D02*
X-3716480Y1048250D01*
G75*
G02*
X-3677630Y1009400I0J-38850D01*
G01*
X-3677630Y887100D01*
G75*
G02*
X-3716480Y848250I-38850J0D01*
G01*
X-3813780Y848250D01*
G75*
G02*
X-3852630Y887100I0J38850D01*
G01*
X-3852630Y1009400D01*
G75*
G02*
X-3813780Y1048250I38850J0D01*
G01*
G37*
G36*
G01*
X-3813780Y669750D02*
X-3716480Y669750D01*
G75*
G02*
X-3677630Y630900I0J-38850D01*
G01*
X-3677630Y508600D01*
G75*
G02*
X-3716480Y469750I-38850J0D01*
G01*
X-3813780Y469750D01*
G75*
G02*
X-3852630Y508600I0J38850D01*
G01*
X-3852630Y630900D01*
G75*
G02*
X-3813780Y669750I38850J0D01*
G01*
G37*
%TD*%
%TO.C,R_L_W1*%
G36*
G01*
X-3813780Y1779190D02*
X-3716480Y1779190D01*
G75*
G02*
X-3677630Y1740340I0J-38850D01*
G01*
X-3677630Y1618040D01*
G75*
G02*
X-3716480Y1579190I-38850J0D01*
G01*
X-3813780Y1579190D01*
G75*
G02*
X-3852630Y1618040I0J38850D01*
G01*
X-3852630Y1740340D01*
G75*
G02*
X-3813780Y1779190I38850J0D01*
G01*
G37*
G36*
G01*
X-3813780Y1400690D02*
X-3716480Y1400690D01*
G75*
G02*
X-3677630Y1361840I0J-38850D01*
G01*
X-3677630Y1239540D01*
G75*
G02*
X-3716480Y1200690I-38850J0D01*
G01*
X-3813780Y1200690D01*
G75*
G02*
X-3852630Y1239540I0J38850D01*
G01*
X-3852630Y1361840D01*
G75*
G02*
X-3813780Y1400690I38850J0D01*
G01*
G37*
%TD*%
%TO.C,R_L_A1*%
G36*
G01*
X-3813780Y2566590D02*
X-3716480Y2566590D01*
G75*
G02*
X-3677630Y2527740I0J-38850D01*
G01*
X-3677630Y2405440D01*
G75*
G02*
X-3716480Y2366590I-38850J0D01*
G01*
X-3813780Y2366590D01*
G75*
G02*
X-3852630Y2405440I0J38850D01*
G01*
X-3852630Y2527740D01*
G75*
G02*
X-3813780Y2566590I38850J0D01*
G01*
G37*
G36*
G01*
X-3813780Y2188090D02*
X-3716480Y2188090D01*
G75*
G02*
X-3677630Y2149240I0J-38850D01*
G01*
X-3677630Y2026940D01*
G75*
G02*
X-3716480Y1988090I-38850J0D01*
G01*
X-3813780Y1988090D01*
G75*
G02*
X-3852630Y2026940I0J38850D01*
G01*
X-3852630Y2149240D01*
G75*
G02*
X-3813780Y2188090I38850J0D01*
G01*
G37*
%TD*%
D12*
%TO.C,RELE-3-4*%
X3345000Y-1793500D03*
X3345000Y-2047500D03*
D13*
X3345000Y-2301500D03*
D12*
X3345000Y-2555500D03*
%TD*%
%TO.C,RELE-1-2*%
X3345000Y-556500D03*
X3345000Y-810500D03*
D13*
X3345000Y-1064500D03*
D12*
X3345000Y-1318500D03*
%TD*%
%TO.C,ARDUINO_R1*%
X-1403290Y1127540D03*
X-1403290Y873540D03*
X-1403290Y619540D03*
X-1403290Y365540D03*
X-1403290Y111540D03*
X-1403290Y-142460D03*
X-1403290Y-396460D03*
X-1403290Y-650460D03*
X-1403290Y-904460D03*
D13*
X-1403290Y-1412460D03*
D12*
X-1403290Y-1666460D03*
%TD*%
%TO.C,ARDUINO_L1*%
X-2927290Y1127540D03*
X-2927290Y873540D03*
X-2927290Y619540D03*
X-2927290Y365540D03*
X-2927290Y111540D03*
X-2927290Y-142460D03*
X-2927290Y-396460D03*
X-2927290Y-650460D03*
D13*
X-2927290Y-904460D03*
%TD*%
D14*
%TO.C,TORNILLO-1*%
X4399100Y3147000D03*
%TD*%
D15*
%TO.C,I2C-LCD1*%
X-3123320Y2391500D03*
X-2869320Y2391500D03*
D16*
X-2615320Y2391500D03*
D15*
X-2361320Y2391500D03*
%TD*%
%TO.C,A4-A5*%
X-1446920Y2391500D03*
X-1700920Y2391500D03*
%TD*%
D17*
%TO.C,BUZZER1*%
X-3659600Y-2092960D03*
D18*
X-4419600Y-2092960D03*
%TD*%
D19*
%TO.C,BORNERA1*%
X-2838900Y-2614000D03*
D20*
X-2330900Y-2614000D03*
D19*
X-1822900Y-2614000D03*
X-1314900Y-2614000D03*
D20*
X-806900Y-2614000D03*
D19*
X-298900Y-2614000D03*
X209100Y-2614000D03*
D20*
X717100Y-2614000D03*
D19*
X1225100Y-2614000D03*
D20*
X1733100Y-2614000D03*
X2241100Y-2614000D03*
%TD*%
D14*
%TO.C,TORNILLO-3*%
X1577600Y1681600D03*
%TD*%
D21*
%TO.C,SW_OK1*%
X-351300Y2431700D03*
X-351300Y2931700D03*
X1173700Y2431700D03*
X1173700Y2931700D03*
%TD*%
D14*
%TO.C,TORNILLO-4*%
X-4398780Y-3146890D03*
%TD*%
%TO.C,TORNILLO-5*%
X4399100Y-3146890D03*
%TD*%
%TO.C,TORNILLO-1*%
X-4398900Y3147000D03*
%TD*%
D21*
%TO.C,SW_D1*%
X3506520Y931480D03*
X3506520Y431480D03*
X1981520Y931480D03*
X1981520Y431480D03*
%TD*%
%TO.C,SW_BK1*%
X1173700Y931480D03*
X1173700Y431480D03*
X-351300Y931480D03*
X-351300Y431480D03*
%TD*%
%TO.C,SW_U1*%
X1981520Y2431700D03*
X1981520Y2931700D03*
X3506520Y2431700D03*
X3506520Y2931700D03*
%TD*%
M02*
