%TF.GenerationSoftware,KiCad,Pcbnew,5.1.10*%
%TF.CreationDate,2021-09-02T20:29:26+02:00*%
%TF.ProjectId,Termostato-Diferencial-Mini,5465726d-6f73-4746-9174-6f2d44696665,rev?*%
%TF.SameCoordinates,PX9e11d20PY4c6afd0*%
%TF.FileFunction,Copper,L2,Bot*%
%TF.FilePolarity,Positive*%
%FSLAX45Y45*%
G04 Gerber Fmt 4.5, Leading zero omitted, Abs format (unit mm)*
G04 Created by KiCad (PCBNEW 5.1.10) date 2021-09-02 20:29:26*
%MOMM*%
%LPD*%
G01*
G04 APERTURE LIST*
%TA.AperFunction,NonConductor*%
%ADD10C,0.050000*%
%TD*%
%TA.AperFunction,Profile*%
%ADD11C,0.200000*%
%TD*%
%TA.AperFunction,ComponentPad*%
%ADD12O,3.000000X1.700000*%
%TD*%
%TA.AperFunction,ComponentPad*%
%ADD13R,3.000000X1.700000*%
%TD*%
%TA.AperFunction,ComponentPad*%
%ADD14C,6.000000*%
%TD*%
%TA.AperFunction,ComponentPad*%
%ADD15O,1.700000X3.000000*%
%TD*%
%TA.AperFunction,ComponentPad*%
%ADD16R,1.700000X3.000000*%
%TD*%
%TA.AperFunction,ComponentPad*%
%ADD17C,3.000000*%
%TD*%
%TA.AperFunction,ComponentPad*%
%ADD18R,3.000000X3.000000*%
%TD*%
%TA.AperFunction,ComponentPad*%
%ADD19O,2.600000X4.000000*%
%TD*%
%TA.AperFunction,ComponentPad*%
%ADD20R,2.600000X4.000000*%
%TD*%
G04 APERTURE END LIST*
D10*
X5000Y0D02*
G75*
G03*
X5000Y0I-5000J0D01*
G01*
D11*
X4998980Y3747000D02*
X-4998900Y3747000D01*
X4999100Y-3746890D02*
X4998980Y3747000D01*
X-4998780Y-3746890D02*
X4999100Y-3746890D01*
X-4998780Y-3746890D02*
X-4998900Y3747000D01*
D12*
%TO.P,RELE-3-4,4*%
%TO.N,/PIN-A2*%
X3345000Y-1793500D03*
%TO.P,RELE-3-4,3*%
%TO.N,/PIN-A3*%
X3345000Y-2047500D03*
D13*
%TO.P,RELE-3-4,2*%
%TO.N,GND*%
X3345000Y-2301500D03*
D12*
%TO.P,RELE-3-4,1*%
%TO.N,VCC*%
X3345000Y-2555500D03*
%TD*%
%TO.P,RELE-1-2,4*%
%TO.N,/PIN-A0*%
X3345000Y-556500D03*
%TO.P,RELE-1-2,3*%
%TO.N,/PIN-A1*%
X3345000Y-810500D03*
D13*
%TO.P,RELE-1-2,2*%
%TO.N,GND*%
X3345000Y-1064500D03*
D12*
%TO.P,RELE-1-2,1*%
%TO.N,VCC*%
X3345000Y-1318500D03*
%TD*%
%TO.P,ARDUINO_R1,12*%
%TO.N,/PIN-10*%
X-1403290Y1127540D03*
%TO.P,ARDUINO_R1,11*%
%TO.N,/PIN-11*%
X-1403290Y873540D03*
%TO.P,ARDUINO_R1,10*%
%TO.N,/PIN-12*%
X-1403290Y619540D03*
%TO.P,ARDUINO_R1,9*%
%TO.N,/PIN-13*%
X-1403290Y365540D03*
%TO.P,ARDUINO_R1,8*%
%TO.N,/PIN-A0*%
X-1403290Y111540D03*
%TO.P,ARDUINO_R1,7*%
%TO.N,/PIN-A1*%
X-1403290Y-142460D03*
%TO.P,ARDUINO_R1,6*%
%TO.N,/PIN-A2*%
X-1403290Y-396460D03*
%TO.P,ARDUINO_R1,5*%
%TO.N,/PIN-A3*%
X-1403290Y-650460D03*
%TO.P,ARDUINO_R1,4*%
%TO.N,VCC*%
X-1403290Y-904460D03*
D13*
%TO.P,ARDUINO_R1,2*%
%TO.N,GND*%
X-1403290Y-1412460D03*
D12*
%TO.P,ARDUINO_R1,1*%
%TO.N,/RAW9V*%
X-1403290Y-1666460D03*
%TD*%
%TO.P,ARDUINO_L1,12*%
%TO.N,/PIN-9*%
X-2927290Y1127540D03*
%TO.P,ARDUINO_L1,11*%
%TO.N,/PIN-8*%
X-2927290Y873540D03*
%TO.P,ARDUINO_L1,10*%
%TO.N,/PIN-7*%
X-2927290Y619540D03*
%TO.P,ARDUINO_L1,9*%
%TO.N,/PIN-6*%
X-2927290Y365540D03*
%TO.P,ARDUINO_L1,8*%
%TO.N,/PIN-5*%
X-2927290Y111540D03*
%TO.P,ARDUINO_L1,7*%
%TO.N,/PIN-4*%
X-2927290Y-142460D03*
%TO.P,ARDUINO_L1,6*%
%TO.N,/PIN-3*%
X-2927290Y-396460D03*
%TO.P,ARDUINO_L1,5*%
%TO.N,/PIN-2*%
X-2927290Y-650460D03*
D13*
%TO.P,ARDUINO_L1,4*%
%TO.N,GND*%
X-2927290Y-904460D03*
%TD*%
D14*
%TO.P,TORNILLO-1,1*%
%TO.N,N/C*%
X4399100Y3147000D03*
%TD*%
D15*
%TO.P,I2C-LCD1,4*%
%TO.N,Net-(A4-A5-Pad2)*%
X-3123320Y2391500D03*
%TO.P,I2C-LCD1,3*%
%TO.N,Net-(A4-A5-Pad1)*%
X-2869320Y2391500D03*
D16*
%TO.P,I2C-LCD1,2*%
%TO.N,GND*%
X-2615320Y2391500D03*
D15*
%TO.P,I2C-LCD1,1*%
%TO.N,VCC*%
X-2361320Y2391500D03*
%TD*%
%TO.P,A4-A5,2*%
%TO.N,Net-(A4-A5-Pad2)*%
X-1446920Y2391500D03*
%TO.P,A4-A5,1*%
%TO.N,Net-(A4-A5-Pad1)*%
X-1700920Y2391500D03*
%TD*%
D17*
%TO.P,BUZZER1,2*%
%TO.N,/PIN-2*%
X-3659600Y-2092960D03*
D18*
%TO.P,BUZZER1,1*%
%TO.N,GND*%
X-4419600Y-2092960D03*
%TD*%
D19*
%TO.P,BORNERA1,11*%
%TO.N,/PIN-9*%
X-2838900Y-2614000D03*
D20*
%TO.P,BORNERA1,10*%
%TO.N,GND*%
X-2330900Y-2614000D03*
D19*
%TO.P,BORNERA1,9*%
%TO.N,VCC*%
X-1822900Y-2614000D03*
%TO.P,BORNERA1,8*%
%TO.N,/PIN-9*%
X-1314900Y-2614000D03*
D20*
%TO.P,BORNERA1,7*%
%TO.N,GND*%
X-806900Y-2614000D03*
D19*
%TO.P,BORNERA1,6*%
%TO.N,VCC*%
X-298900Y-2614000D03*
%TO.P,BORNERA1,5*%
%TO.N,/PIN-9*%
X209100Y-2614000D03*
D20*
%TO.P,BORNERA1,4*%
%TO.N,GND*%
X717100Y-2614000D03*
D19*
%TO.P,BORNERA1,3*%
%TO.N,VCC*%
X1225100Y-2614000D03*
D20*
%TO.P,BORNERA1,2*%
%TO.N,GND*%
X1733100Y-2614000D03*
%TO.P,BORNERA1,1*%
%TO.N,/RAW9V*%
X2241100Y-2614000D03*
%TD*%
D14*
%TO.P,TORNILLO-3,1*%
%TO.N,N/C*%
X1577600Y1681600D03*
%TD*%
%TO.P,TORNILLO-4,1*%
%TO.N,N/C*%
X-4398780Y-3146890D03*
%TD*%
%TO.P,TORNILLO-5,1*%
%TO.N,N/C*%
X4399100Y-3146890D03*
%TD*%
%TO.P,TORNILLO-1,1*%
%TO.N,N/C*%
X-4398900Y3147000D03*
%TD*%
M02*
